<svg xmlns="http://www.w3.org/2000/svg" viewBox="0 0 1079 326.71"><defs><style>.cls-1{fill:#ff4040;}.cls-2{fill:#fff;}.cls-3{fill:none;opacity:0;}</style></defs><title>Primary_white</title><g id="Layer_2" data-name="Layer 2"><g id="Layer_1-2" data-name="Layer 1"><path class="cls-1" d="M220.09,75.39,75.39,158.93a1.73,1.73,0,0,0-.78,2,49.08,49.08,0,0,0,4,9,50.68,50.68,0,0,0,5.73,8,1.74,1.74,0,0,0,2.17.34L210,107v142.5a1.74,1.74,0,0,0,1.37,1.71,49.89,49.89,0,0,0,19.58,0,1.74,1.74,0,0,0,1.38-1.71V82.45A6.44,6.44,0,0,0,229.37,77c-1-.65-2-1.25-3.1-1.8A6.49,6.49,0,0,0,220.09,75.39Z"/><path class="cls-1" d="M96.2,191.9a1.74,1.74,0,0,0-.79,2,50,50,0,0,0,9.79,17,1.73,1.73,0,0,0,2.17.34L171,174.49V248a1.74,1.74,0,0,0,1.38,1.7,49.89,49.89,0,0,0,19.58,0,1.73,1.73,0,0,0,1.37-1.7V152.1a6.46,6.46,0,0,0-2.7-5.28,34.69,34.69,0,0,0-5.45-3.16,6.54,6.54,0,0,0-5.95.29Z"/><path class="cls-2" d="M267,154.09c1.43-.2,2.79-.36,4.08-.46s2.72-.15,4.28-.15c1.36,0,2.68.05,4,.15s2.71.26,4.28.46l22.93,73.29a55.84,55.84,0,0,1-8.15.61,45.62,45.62,0,0,1-7.55-.61l-4.07-14.68H262.48l-4.18,14.68a42.69,42.69,0,0,1-7,.61,45,45,0,0,1-7.44-.61Zm16.31,46.28-8.46-30.79-8.87,30.79Z"/><path class="cls-2" d="M313.26,174.58a21.75,21.75,0,0,1,2.8-.41c.92-.07,2-.1,3.11-.1a28.48,28.48,0,0,1,5.81.61,5.61,5.61,0,0,1,.56,1.48c.17.65.34,1.34.51,2.09s.31,1.48.41,2.19.19,1.31.26,1.78A21.22,21.22,0,0,1,329,179a14.37,14.37,0,0,1,3.21-2.8,17.91,17.91,0,0,1,4.23-2,16.7,16.7,0,0,1,5.2-.76,20.59,20.59,0,0,1,8.2,1.63,18.12,18.12,0,0,1,6.68,4.94,23.51,23.51,0,0,1,4.44,8.31,39.5,39.5,0,0,1,1.58,11.83A34.16,34.16,0,0,1,360.56,212,24.3,24.3,0,0,1,355,221a24.72,24.72,0,0,1-9,5.66,34.18,34.18,0,0,1-12,2c-1.15,0-2.29-.06-3.41-.16s-2.06-.22-2.8-.35v23.44A36.92,36.92,0,0,1,324,252c-1.19.07-2.36.1-3.51.1s-2.33,0-3.52-.1a36.42,36.42,0,0,1-3.72-.41Zm14.48,41.59a22.39,22.39,0,0,0,6.32.81q6.31,0,9.68-4.07t3.36-12.34a31.65,31.65,0,0,0-.51-5.86,13.11,13.11,0,0,0-1.73-4.64,9.07,9.07,0,0,0-3.11-3,8.91,8.91,0,0,0-4.64-1.13,9,9,0,0,0-4.33,1,8,8,0,0,0-2.9,2.65,11.61,11.61,0,0,0-1.64,3.93,21.53,21.53,0,0,0-.5,4.79Z"/><path class="cls-2" d="M371.61,174.58a21.5,21.5,0,0,1,2.8-.41c.92-.07,1.95-.1,3.11-.1a28.48,28.48,0,0,1,5.81.61,5.61,5.61,0,0,1,.56,1.48c.17.65.34,1.34.51,2.09s.31,1.48.41,2.19.19,1.31.25,1.78a22.05,22.05,0,0,1,2.25-3.21,14.37,14.37,0,0,1,3.21-2.8,17.55,17.55,0,0,1,4.23-2,16.66,16.66,0,0,1,5.2-.76,20.59,20.59,0,0,1,8.2,1.63,18.12,18.12,0,0,1,6.68,4.94,23.34,23.34,0,0,1,4.43,8.31,39.18,39.18,0,0,1,1.58,11.83A34.17,34.17,0,0,1,418.91,212,24.3,24.3,0,0,1,413.3,221a24.89,24.89,0,0,1-9,5.66,34.18,34.18,0,0,1-12,2c-1.15,0-2.29-.06-3.41-.16s-2.06-.22-2.81-.35v23.44a36.42,36.42,0,0,1-3.72.41c-1.19.07-2.36.1-3.51.1s-2.33,0-3.52-.1a36.42,36.42,0,0,1-3.72-.41Zm14.47,41.59a22.44,22.44,0,0,0,6.32.81q6.33,0,9.69-4.07t3.36-12.34a31.65,31.65,0,0,0-.51-5.86,13.3,13.3,0,0,0-1.73-4.64,9.16,9.16,0,0,0-3.11-3,8.91,8.91,0,0,0-4.64-1.13,9,9,0,0,0-4.33,1,8.14,8.14,0,0,0-2.91,2.65,11.8,11.8,0,0,0-1.63,3.93,21.52,21.52,0,0,0-.51,4.79Z"/><path class="cls-2" d="M429.74,152.87a43.8,43.8,0,0,1,7.24-.62,43.26,43.26,0,0,1,7.14.62v53.51a29.12,29.12,0,0,0,.35,5.1,7.62,7.62,0,0,0,1.12,3,4,4,0,0,0,2,1.48,9.92,9.92,0,0,0,3.06.4,16.46,16.46,0,0,0,1.78-.1,18.64,18.64,0,0,0,1.89-.3,31.22,31.22,0,0,1,1.12,8.15v1.48a6.51,6.51,0,0,1-.2,1.48,19.27,19.27,0,0,1-3.93.71c-1.53.14-2.94.2-4.23.2q-7.85,0-12.59-4.33t-4.74-14.12Z"/><path class="cls-2" d="M489.17,192.72a8.46,8.46,0,0,0-.81-4,6.2,6.2,0,0,0-2.25-2.4,9.37,9.37,0,0,0-3.51-1.17,32.8,32.8,0,0,0-4.64-.31A36,36,0,0,0,466.24,187a26.8,26.8,0,0,1-2.14-5,19.21,19.21,0,0,1-.72-5.61,55.17,55.17,0,0,1,17.33-2.95q10.6,0,16.57,5.09t6,16.31v30.59a87.73,87.73,0,0,1-8.66,2.14,59.82,59.82,0,0,1-11.52,1,46.24,46.24,0,0,1-9.54-.92,20.47,20.47,0,0,1-7.44-3.06,14.44,14.44,0,0,1-4.79-5.5,18.4,18.4,0,0,1-1.68-8.26,15.15,15.15,0,0,1,2.09-8.21,16.19,16.19,0,0,1,5.4-5.3,24.08,24.08,0,0,1,7.39-2.85,39,39,0,0,1,8.16-.87q3,0,6.52.31Zm0,10.5c-.81-.13-1.7-.25-2.65-.35a22.31,22.31,0,0,0-2.55-.16,15,15,0,0,0-7.9,1.79,6.26,6.26,0,0,0-2.9,5.76,6.44,6.44,0,0,0,1.12,4.07,6.64,6.64,0,0,0,2.7,2.09,10.75,10.75,0,0,0,3.36.82c1.19.1,2.23.15,3.11.15a18.58,18.58,0,0,0,3.06-.25l2.65-.46Z"/><path class="cls-2" d="M513.41,174.68a43.27,43.27,0,0,1,14.48,0v27.93a29.69,29.69,0,0,0,.66,6.88,10,10,0,0,0,2,4.28A7.46,7.46,0,0,0,534,216a15.62,15.62,0,0,0,4.79.66,24,24,0,0,0,6.32-.71V174.68a43.22,43.22,0,0,1,7.14-.61,43.77,43.77,0,0,1,7.24.61v50.66a69.93,69.93,0,0,1-8.62,2.2,57,57,0,0,1-11.16,1.07,60,60,0,0,1-10-.82,19.49,19.49,0,0,1-8.41-3.47,17.85,17.85,0,0,1-5.76-7.74q-2.13-5.1-2.14-13.56Z"/><path class="cls-2" d="M602.62,152.87a32.62,32.62,0,0,1,3.62-.41c1.18-.07,2.36-.1,3.51-.1s2.35,0,3.57.1a32.7,32.7,0,0,1,3.67.41v72.78a73.57,73.57,0,0,1-9.73,2.19,79.86,79.86,0,0,1-12,.77,36.17,36.17,0,0,1-10.35-1.48,23.77,23.77,0,0,1-8.71-4.69,22.15,22.15,0,0,1-6-8.31,34.57,34.57,0,0,1-.3-23.39,25.83,25.83,0,0,1,5.4-8.92,25.48,25.48,0,0,1,8.51-6A27.37,27.37,0,0,1,595,173.66c1.23,0,2.5.05,3.82.15a20.71,20.71,0,0,1,3.83.67Zm0,32.72a28,28,0,0,0-3.31-.66,26.17,26.17,0,0,0-3.22-.16,11.94,11.94,0,0,0-5.86,1.38,12.35,12.35,0,0,0-4.13,3.67,15.83,15.83,0,0,0-2.39,5.4,27,27,0,0,0-.77,6.47,21.56,21.56,0,0,0,1,7.09,11.8,11.8,0,0,0,2.81,4.64,10.44,10.44,0,0,0,4.23,2.49,17.63,17.63,0,0,0,5.3.77,30.6,30.6,0,0,0,3.16-.15,19.14,19.14,0,0,0,3.16-.67Z"/><path class="cls-2" d="M651.38,228.61a27.54,27.54,0,0,1-11.16-2.09,21.32,21.32,0,0,1-7.85-5.81,25.52,25.52,0,0,1-4.69-8.72,35.75,35.75,0,0,1-1.58-10.81,36.73,36.73,0,0,1,1.58-10.9,25.36,25.36,0,0,1,4.69-8.82,21.78,21.78,0,0,1,7.85-5.86,26.87,26.87,0,0,1,11.16-2.14,27.26,27.26,0,0,1,11.22,2.14,22.15,22.15,0,0,1,7.95,5.86,24.26,24.26,0,0,1,4.69,8.82,37.73,37.73,0,0,1,1.53,10.9A36.73,36.73,0,0,1,675.24,212a24.38,24.38,0,0,1-4.69,8.72,21.69,21.69,0,0,1-7.95,5.81A27.94,27.94,0,0,1,651.38,228.61Zm0-11q5.72,0,8.21-4.23t2.5-12.19q0-8-2.5-12.18t-8.21-4.23c-3.73,0-6.44,1.41-8.1,4.23s-2.5,6.88-2.5,12.18.83,9.37,2.5,12.19S647.65,217.6,651.38,217.6Z"/><path class="cls-2" d="M683.39,219.23c1,.27,1.94.58,3,.92a32.67,32.67,0,0,0,3.41.91c1.26.28,2.67.51,4.23.72a43.22,43.22,0,0,0,5.41.3,26.8,26.8,0,0,0,8.41-1.17,17,17,0,0,0,5.81-3.16,12.52,12.52,0,0,0,3.41-4.69,15.07,15.07,0,0,0,1.12-5.86,16,16,0,0,0-.76-5.25,10.54,10.54,0,0,0-2.65-4,21.31,21.31,0,0,0-5.2-3.51,90.42,90.42,0,0,0-8.31-3.62q-3.57-1.33-6.78-2.86a23.92,23.92,0,0,1-5.66-3.72,16.07,16.07,0,0,1-3.87-5.25,18.06,18.06,0,0,1-1.43-7.64,16.72,16.72,0,0,1,6-13.36q6-5.09,17.38-5.09c1.49,0,3,.06,4.53.2s3,.31,4.29.51,2.54.44,3.67.71,2,.51,2.7.72c-.14,1-.33,2.05-.56,3.11a26.27,26.27,0,0,1-.87,3,45.85,45.85,0,0,0-6.27-1.48,44.57,44.57,0,0,0-7.59-.66q-8.47,0-12.13,3.47a11.52,11.52,0,0,0-3.67,8.76,9.79,9.79,0,0,0,1.12,4.8,11.27,11.27,0,0,0,3.11,3.56,24.62,24.62,0,0,0,4.74,2.81q2.75,1.27,5.91,2.49,4.27,1.74,8,3.57a27.07,27.07,0,0,1,6.37,4.28,18.1,18.1,0,0,1,4.18,5.76,19,19,0,0,1,1.53,8,22.38,22.38,0,0,1-1.89,9.42,18.77,18.77,0,0,1-5.35,6.94,24.25,24.25,0,0,1-8.46,4.28A39.67,39.67,0,0,1,699,228.61a47.85,47.85,0,0,1-10-.87q-4-.87-7.44-2a22.5,22.5,0,0,1,.71-3.31A26.52,26.52,0,0,1,683.39,219.23Z"/><path class="cls-2" d="M737.93,181.1h-8.87a9.34,9.34,0,0,1-.15-1.32c0-.55,0-1.09,0-1.63s0-1.06,0-1.53a9,9,0,0,1,.15-1.23h8.87v-9.78l6.32-6.22h.41v16h14.06a10.66,10.66,0,0,1,.16,1.23c0,.47,0,1,0,1.53s0,1.08,0,1.63a10.82,10.82,0,0,1-.16,1.32H744.66V215a10,10,0,0,0,.66,4,5.83,5.83,0,0,0,1.73,2.3,5.76,5.76,0,0,0,2.45,1.07,15.35,15.35,0,0,0,2.8.25,18.82,18.82,0,0,0,6.22-.92,35.83,35.83,0,0,1,1,5.71A29.32,29.32,0,0,1,751,228.5a13.91,13.91,0,0,1-9.43-3.11q-3.63-3.1-3.62-10.14Z"/><path class="cls-2" d="M768.3,175.39q.62-.09,1.74-.15c.74,0,1.29-.05,1.63-.05s1,0,1.68.05,1.27.09,1.68.15v29.26a30.51,30.51,0,0,0,1.12,9,12.24,12.24,0,0,0,3.32,5.51,12,12,0,0,0,5.35,2.75,30.34,30.34,0,0,0,7.13.76,45.22,45.22,0,0,0,6-.35,30.59,30.59,0,0,0,4.69-1v-46c.41-.06,1-.11,1.73-.15s1.29-.05,1.63-.05,1,0,1.68.05,1.28.09,1.69.15v50.67q-3.78,1-8.41,1.78a58.55,58.55,0,0,1-9.53.77,42.64,42.64,0,0,1-9-.92,16.85,16.85,0,0,1-7.34-3.52,17.67,17.67,0,0,1-4.94-7.19,32.57,32.57,0,0,1-1.84-11.92Z"/><path class="cls-2" d="M857.3,152.46a14.23,14.23,0,0,1,1.73-.15c.75,0,1.29-.06,1.63-.06s1,0,1.68.06a14,14,0,0,1,1.69.15v73.7a50.67,50.67,0,0,1-7.85,1.73,64.51,64.51,0,0,1-9.79.72,40.15,40.15,0,0,1-10.5-1.33,21.35,21.35,0,0,1-8.46-4.38,21.1,21.1,0,0,1-5.66-8.06,32,32,0,0,1-2.09-12.33,36,36,0,0,1,1.84-12,24.81,24.81,0,0,1,5.2-8.87,22.53,22.53,0,0,1,8.1-5.55,27.39,27.39,0,0,1,10.45-1.94,40.42,40.42,0,0,1,6.68.56A34.11,34.11,0,0,1,857.3,176Zm0,29.87a31.37,31.37,0,0,0-5.2-1.48,31.86,31.86,0,0,0-6.53-.66,19.51,19.51,0,0,0-8.3,1.63,16.16,16.16,0,0,0-5.87,4.53,19.65,19.65,0,0,0-3.51,7,32.36,32.36,0,0,0-1.17,9q0,10.59,5,15.44t14.32,4.84a55,55,0,0,0,6.43-.36,29.68,29.68,0,0,0,4.79-.86Z"/><path class="cls-2" d="M880.13,181.1h-6.52a10.46,10.46,0,0,1-.16-1.22c0-.48-.05-1-.05-1.53s0-1.09.05-1.63a11,11,0,0,1,.16-1.33h13.25v52a16,16,0,0,1-1.68.16c-.72,0-1.28.05-1.69.05s-.88,0-1.63-.05a16.11,16.11,0,0,1-1.73-.16Zm-3.36-18.45c-.07-.61-.12-1.36-.16-2.24s-.05-1.63-.05-2.24,0-1.23.05-2,.09-1.5.16-2c.61-.07,1.35-.12,2.24-.15s1.63-.05,2.24-.05,1.22,0,2,.05,1.49.08,2,.15q.1.81.15,2c0,.81,0,1.49,0,2s0,1.36,0,2.24-.08,1.63-.15,2.24c-.55.07-1.22.12-2,.15s-1.5.06-2,.06-1.36,0-2.24-.06S877.38,162.72,876.77,162.65Z"/><path class="cls-2" d="M920.09,228.61a23.47,23.47,0,0,1-10.19-2.09,20.3,20.3,0,0,1-7.29-5.76,24.89,24.89,0,0,1-4.34-8.67,41.06,41.06,0,0,1,0-21.41,24.93,24.93,0,0,1,4.34-8.66,20.09,20.09,0,0,1,7.29-5.76,23.47,23.47,0,0,1,10.19-2.09,23.15,23.15,0,0,1,10.14,2.09,20.34,20.34,0,0,1,7.24,5.76,25.35,25.35,0,0,1,4.38,8.66,39.46,39.46,0,0,1,0,21.41,25.3,25.3,0,0,1-4.38,8.67,20.57,20.57,0,0,1-7.24,5.76A23.15,23.15,0,0,1,920.09,228.61Zm0-5.92q8.16,0,12.18-5.71t4-15.59q0-9.88-4-15.6t-12.18-5.71q-8.16,0-12.18,5.71t-4,15.6q0,9.88,4,15.59T920.09,222.69Z"/><path class="cls-2" d="M951.89,220.25a30.36,30.36,0,0,0,5.81,1.58,37.62,37.62,0,0,0,6.83.66q6.12,0,9.69-2.7a8.11,8.11,0,0,0,3.57-6.68,8.7,8.7,0,0,0-1.07-4.53,9.65,9.65,0,0,0-2.86-3,16.29,16.29,0,0,0-4-2L965.25,202c-1.7-.54-3.38-1.16-5-1.83a17.46,17.46,0,0,1-4.43-2.6,12.18,12.18,0,0,1-3.11-3.83,12,12,0,0,1-1.17-5.6A12.67,12.67,0,0,1,956,178q4.54-3.87,14-3.87a41.19,41.19,0,0,1,7.69.71,33.72,33.72,0,0,1,5.76,1.53,42.45,42.45,0,0,1-1.42,5.81,53.53,53.53,0,0,0-5.46-1.42,32.31,32.31,0,0,0-6.88-.72q-6.21,0-8.82,2.2a7.16,7.16,0,0,0-2.59,5.75,6.08,6.08,0,0,0,.86,3.32,7.61,7.61,0,0,0,2.35,2.34,16.47,16.47,0,0,0,3.36,1.68c1.26.48,2.6.92,4,1.33q2.75.92,5.55,2a20.64,20.64,0,0,1,5.1,2.8,13.92,13.92,0,0,1,3.77,4.38,13.44,13.44,0,0,1,1.48,6.63,14.89,14.89,0,0,1-1.48,6.68,14.54,14.54,0,0,1-4.13,5.09,18.83,18.83,0,0,1-6.32,3.21,27.33,27.33,0,0,1-8,1.13,55.36,55.36,0,0,1-8.72-.62,25.78,25.78,0,0,1-6.16-1.63A30,30,0,0,1,951.89,220.25Z"/><path class="cls-2" d="M998.6,174.72a6.22,6.22,0,0,1-2.4-.45,5.41,5.41,0,0,1-3.05-3.1,6.61,6.61,0,0,1,0-4.69,5.49,5.49,0,0,1,1.19-1.87,5.62,5.62,0,0,1,1.86-1.24,6.65,6.65,0,0,1,4.81,0,5.26,5.26,0,0,1,1.85,1.23,5.88,5.88,0,0,1,1.2,1.87,6.64,6.64,0,0,1,0,4.7,5.62,5.62,0,0,1-1.2,1.86,5.42,5.42,0,0,1-1.85,1.24A6.27,6.27,0,0,1,998.6,174.72Zm0-.93a5,5,0,0,0,2-.39,4.53,4.53,0,0,0,1.5-1.06,4.6,4.6,0,0,0,1-1.58,5.42,5.42,0,0,0,.34-1.94,5.33,5.33,0,0,0-.34-1.93,4.51,4.51,0,0,0-1-1.58,4.39,4.39,0,0,0-1.5-1.06,5,5,0,0,0-2-.39,4.94,4.94,0,0,0-2,.39,4.43,4.43,0,0,0-1.51,1.06,4.66,4.66,0,0,0-1,1.58,5.55,5.55,0,0,0-.33,1.93,5.65,5.65,0,0,0,.33,1.94,4.76,4.76,0,0,0,1,1.58,4.57,4.57,0,0,0,1.51,1.06A4.94,4.94,0,0,0,998.6,173.79Zm-1.82-8.12c.24,0,.49-.06.74-.08l.81,0a4.19,4.19,0,0,1,.86.09,2.53,2.53,0,0,1,.78.3,1.59,1.59,0,0,1,.58.57,1.68,1.68,0,0,1,.23.91,1.64,1.64,0,0,1-.12.65,2.14,2.14,0,0,1-.3.51,1.75,1.75,0,0,1-.39.38,2.16,2.16,0,0,1-.43.25l1.85,2.54-.35,0h-.71l-2.09-2.86.36-.14c.13,0,.26-.12.41-.19a2,2,0,0,0,.4-.27,1.49,1.49,0,0,0,.31-.36,1,1,0,0,0,.12-.48.9.9,0,0,0-.42-.81,1.84,1.84,0,0,0-1-.27,5.62,5.62,0,0,0-.7.05v5.33l-.19,0H997l-.18,0Z"/><rect class="cls-3" width="1079" height="326.71"/></g></g></svg>