<svg width="239" height="65" viewBox="0 0 239 65" fill="none" xmlns="http://www.w3.org/2000/svg">
<path d="M64.8 0H0V64.8H64.8V0Z" fill="#FF4040"/>
<path d="M90.2667 0L99.92 25.8267H94.0267L92.0667 20.08H82.4134L80.3867 25.8267H74.6667L84.44 0H90.2667ZM90.5867 15.84L87.3334 6.36L83.96 15.84H90.5867Z" fill="#F7F7F7"/>
<path d="M106.853 7.11983V9.5065H106.933C107.495 8.5496 108.331 7.78324 109.333 7.3065C110.327 6.86266 111.406 6.6441 112.493 6.6665C113.81 6.62944 115.115 6.91797 116.293 7.5065C117.337 8.02921 118.249 8.78134 118.96 9.7065C119.684 10.6612 120.214 11.7483 120.52 12.9065C120.859 14.1537 121.029 15.4407 121.027 16.7332C121.028 17.9554 120.858 19.1719 120.52 20.3465C120.208 21.4568 119.688 22.4976 118.987 23.4132C118.296 24.3082 117.418 25.041 116.413 25.5598C115.293 26.1034 114.059 26.373 112.813 26.3465C111.706 26.3625 110.611 26.1205 109.613 25.6398C108.641 25.1741 107.812 24.4557 107.213 23.5598H107.133V32.4265H101.973V7.11983H106.853ZM113.52 21.9598C114.057 21.6186 114.512 21.1634 114.853 20.6265C115.218 20.0441 115.467 19.3967 115.587 18.7198C115.736 17.996 115.812 17.2589 115.813 16.5198C115.813 15.7756 115.733 15.0335 115.573 14.3065C115.429 13.6222 115.168 12.9681 114.8 12.3732C114.459 11.8357 114.004 11.3803 113.467 11.0398C112.836 10.6746 112.115 10.4944 111.387 10.5198C110.67 10.4974 109.961 10.6678 109.333 11.0132C108.789 11.345 108.332 11.8022 108 12.3465C107.629 12.9319 107.375 13.5841 107.253 14.2665C107.107 15.0041 107.036 15.7546 107.04 16.5065C107.035 17.2459 107.111 17.9837 107.267 18.7065C107.408 19.3813 107.665 20.0265 108.027 20.6132C108.643 21.4766 109.551 22.0874 110.583 22.3325C111.615 22.5777 112.701 22.4405 113.64 21.9465L113.52 21.9598Z" fill="#F7F7F7"/>
<path d="M129.08 7.11983V9.5065H129.16C129.718 8.55158 130.55 7.78544 131.547 7.3065C132.528 6.86841 133.592 6.64998 134.667 6.6665C135.983 6.62944 137.288 6.91797 138.467 7.5065C139.51 8.02921 140.422 8.78134 141.133 9.7065C141.841 10.6474 142.362 11.7157 142.667 12.8532C143.006 14.1004 143.176 15.3874 143.173 16.6798C143.175 17.9021 143.005 19.1185 142.667 20.2932C142.355 21.4035 141.835 22.4443 141.133 23.3598C140.474 24.243 139.633 24.9749 138.667 25.5065C137.546 26.05 136.312 26.3197 135.067 26.2932C133.96 26.3091 132.864 26.0672 131.867 25.5865C130.895 25.1208 130.066 24.4024 129.467 23.5065H129.333V32.3732H124.2V7.11983H129.08ZM135.747 21.9598C136.284 21.6186 136.739 21.1634 137.08 20.6265C137.445 20.0441 137.694 19.3967 137.813 18.7198C137.963 17.996 138.039 17.2589 138.04 16.5198C138.04 15.7756 137.96 15.0335 137.8 14.3065C137.656 13.6222 137.394 12.9681 137.027 12.3732C136.686 11.8357 136.231 11.3803 135.693 11.0398C135.063 10.6746 134.342 10.4944 133.613 10.5198C132.877 10.4957 132.148 10.6757 131.507 11.0398C130.962 11.3717 130.505 11.8288 130.173 12.3732C129.769 12.9513 129.484 13.6039 129.333 14.2932C129.187 15.0308 129.116 15.7812 129.12 16.5332C129.11 17.2721 129.182 18.0098 129.333 18.7332C129.474 19.408 129.731 20.0531 130.093 20.6398C130.71 21.5032 131.618 22.114 132.65 22.3592C133.682 22.6043 134.768 22.4672 135.707 21.9732L135.747 21.9598Z" fill="#F7F7F7"/>
<path d="M151.613 0V25.8267H146.48V0H151.613Z" fill="#F7F7F7"/>
<path d="M155.493 12.8801C155.523 11.8171 155.836 10.7813 156.4 9.8801C156.922 9.10581 157.615 8.46245 158.427 8.0001C159.283 7.50379 160.216 7.15239 161.187 6.9601C162.206 6.76359 163.242 6.66537 164.28 6.66676C165.239 6.66794 166.197 6.73476 167.147 6.86676C168.072 6.98624 168.972 7.25177 169.813 7.65343C170.581 8.02362 171.248 8.57226 171.76 9.25343C172.286 10.0407 172.552 10.9735 172.52 11.9201V21.6534C172.52 22.4645 172.569 23.2749 172.667 24.0801C172.712 24.687 172.885 25.2776 173.173 25.8134H168C167.814 25.2241 167.693 24.6159 167.64 24.0001C166.848 24.8352 165.85 25.4469 164.747 25.7734C163.646 26.1148 162.499 26.2857 161.347 26.2801C160.505 26.2864 159.666 26.1787 158.853 25.9601C158.119 25.7563 157.43 25.4122 156.827 24.9468C156.259 24.4748 155.804 23.8827 155.493 23.2134C155.155 22.422 154.992 21.5671 155.013 20.7068C154.97 19.7847 155.163 18.8669 155.573 18.0401C155.916 17.3833 156.41 16.8168 157.013 16.3868C157.636 15.9746 158.32 15.664 159.04 15.4668C159.796 15.2685 160.561 15.1083 161.333 14.9868C162.107 14.8534 162.867 14.7601 163.613 14.6934C164.287 14.628 164.955 14.5166 165.613 14.3601C166.099 14.2524 166.554 14.0384 166.947 13.7334C167.122 13.5878 167.256 13.3999 167.338 13.1875C167.42 12.9751 167.446 12.7454 167.413 12.5201C167.436 12.0605 167.344 11.6024 167.147 11.1868C166.971 10.8753 166.718 10.6137 166.413 10.4268C166.097 10.232 165.742 10.1091 165.373 10.0668C164.932 9.99788 164.486 9.96666 164.04 9.97343C163.194 9.9239 162.356 10.1534 161.653 10.6268C161.343 10.8988 161.092 11.2326 160.918 11.6067C160.743 11.9809 160.649 12.3873 160.64 12.8001L155.493 12.8801ZM167.36 16.6801C167.12 16.8787 166.844 17.0282 166.547 17.1201C166.202 17.237 165.85 17.3305 165.493 17.4001C165.12 17.4001 164.733 17.5334 164.32 17.5734L163.093 17.7601C162.705 17.8311 162.322 17.9291 161.947 18.0534C161.599 18.1617 161.271 18.3237 160.973 18.5334C160.538 18.913 160.237 19.4238 160.117 19.9888C159.997 20.5539 160.063 21.1428 160.307 21.6668C160.471 21.9659 160.704 22.2218 160.987 22.4134C161.299 22.599 161.642 22.7255 162 22.7868C162.396 22.8565 162.798 22.8922 163.2 22.8934C164.014 22.9446 164.826 22.7692 165.547 22.3868C166.061 22.1004 166.489 21.6814 166.787 21.1734C167.035 20.7325 167.198 20.2484 167.267 19.7468C167.324 19.3626 167.355 18.9751 167.36 18.5868V16.6801Z" fill="#F7F7F7"/>
<path d="M189.053 25.8268V23.2268H188.947C188.361 24.2486 187.477 25.0673 186.413 25.5735C185.416 26.0432 184.329 26.289 183.227 26.2934C182.073 26.3355 180.922 26.1497 179.84 25.7468C179.02 25.4336 178.302 24.9036 177.76 24.2134C177.231 23.4922 176.867 22.6639 176.693 21.7868C176.482 20.7469 176.379 19.6879 176.387 18.6268V7.12012H181.533V17.6934C181.459 18.8883 181.708 20.0812 182.253 21.1468C182.542 21.5448 182.931 21.8592 183.381 22.0583C183.83 22.2573 184.325 22.3339 184.813 22.2801C185.384 22.3321 185.958 22.2453 186.487 22.027C187.017 21.8088 187.485 21.4656 187.853 21.0268C188.586 19.7938 188.917 18.3631 188.8 16.9334V7.12012H193.933V25.7868L189.053 25.8268Z" fill="#F7F7F7"/>
<path d="M211.227 23.44C210.68 24.3965 209.851 25.1604 208.853 25.6267C207.741 26.0904 206.543 26.3169 205.338 26.2917C204.133 26.2664 202.946 25.99 201.853 25.48C200.806 24.9637 199.893 24.2105 199.187 23.28C198.488 22.3122 197.964 21.2291 197.64 20.08C197.287 18.8533 197.107 17.5832 197.107 16.3067C197.108 15.0783 197.288 13.8567 197.64 12.68C197.962 11.5629 198.486 10.5144 199.187 9.58667C199.886 8.69117 200.768 7.95484 201.773 7.42667C202.916 6.88139 204.174 6.62064 205.44 6.66667C206.533 6.66561 207.612 6.90696 208.6 7.37333C209.571 7.82979 210.393 8.55069 210.973 9.45333H211.04V0H216.173V25.8267H211.293V23.44H211.227ZM211 14.2C210.882 13.531 210.633 12.892 210.267 12.32C209.935 11.7757 209.478 11.3185 208.933 10.9867C208.297 10.6243 207.572 10.4487 206.84 10.48C206.096 10.4469 205.357 10.6224 204.707 10.9867C204.158 11.3134 203.7 11.7716 203.373 12.32C203.016 12.9043 202.759 13.5442 202.613 14.2133C202.463 14.946 202.387 15.692 202.387 16.44C202.384 17.1719 202.47 17.9015 202.64 18.6133C202.79 19.3024 203.065 19.9579 203.453 20.5467C203.818 21.0921 204.301 21.5479 204.867 21.88C205.483 22.2467 206.19 22.4316 206.907 22.4133C207.642 22.4381 208.37 22.263 209.013 21.9067C209.56 21.5778 210.018 21.12 210.347 20.5733C210.697 19.9754 210.94 19.3213 211.067 18.64C211.217 17.9028 211.293 17.1524 211.293 16.4C211.27 15.6586 211.172 14.9215 211 14.2Z" fill="#F7F7F7"/>
<path d="M220.093 12.4267C220.516 11.2665 221.185 10.2113 222.053 9.3334C222.914 8.45974 223.95 7.77814 225.093 7.3334C226.369 6.8438 227.727 6.6039 229.093 6.62673C230.459 6.61068 231.816 6.85036 233.093 7.3334C234.246 7.77329 235.29 8.4575 236.153 9.33901C237.016 10.2205 237.678 11.2784 238.093 12.4401C238.565 13.7204 238.8 15.0758 238.787 16.4401C238.801 17.8045 238.566 19.1601 238.093 20.4401C237.668 21.5962 237.005 22.6501 236.147 23.5334C235.28 24.3993 234.239 25.0719 233.093 25.5067C231.812 25.9742 230.457 26.2046 229.093 26.1867C227.729 26.2104 226.373 25.9798 225.093 25.5067C223.944 25.0719 222.903 24.3941 222.04 23.5197C221.177 22.6452 220.513 21.5947 220.093 20.4401C219.631 19.1576 219.401 17.8032 219.413 16.4401C219.401 15.0726 219.631 13.7138 220.093 12.4267ZM224.76 18.6801C224.892 19.3597 225.145 20.01 225.507 20.6001C225.842 21.1419 226.298 21.5984 226.84 21.9334C227.508 22.2891 228.257 22.4638 229.013 22.4401C229.774 22.4637 230.527 22.2891 231.2 21.9334C231.774 21.6119 232.259 21.1539 232.613 20.6001C232.97 20.0073 233.222 19.358 233.36 18.6801C233.499 17.9594 233.57 17.2273 233.573 16.4934C233.57 15.7551 233.499 15.0186 233.36 14.2934C233.232 13.6128 232.979 12.9619 232.613 12.3734C232.259 11.8196 231.774 11.3616 231.2 11.0401C230.531 10.6738 229.776 10.4942 229.013 10.5201C228.255 10.494 227.504 10.6737 226.84 11.0401C226.298 11.3751 225.842 11.8316 225.507 12.3734C225.135 12.9588 224.882 13.611 224.76 14.2934C224.615 15.0177 224.544 15.7548 224.547 16.4934C224.544 17.2232 224.615 17.9514 224.76 18.6667V18.6801Z" fill="#F7F7F7"/>
<path d="M90.2667 32.4268L99.92 58.2534H94.0267L92.0667 52.5068H82.4134L80.3867 58.2534H74.6667L84.4267 32.4268H90.2667ZM90.5867 48.2668L87.3334 38.7868L83.8934 48.2668H90.5867Z" fill="#F7F7F7"/>
<path d="M110 42.9199C109.27 42.8943 108.55 43.0895 107.933 43.4799C107.388 43.8558 106.933 44.3475 106.6 44.9199C106.24 45.5253 105.987 46.1884 105.853 46.8799C105.71 47.573 105.639 48.2789 105.64 48.9866C105.639 49.681 105.711 50.3737 105.853 51.0533C105.981 51.7195 106.22 52.3595 106.56 52.9466C106.889 53.4932 107.347 53.951 107.893 54.2799C108.5 54.6587 109.205 54.8489 109.92 54.8266C110.44 54.8593 110.96 54.7838 111.449 54.6047C111.938 54.4257 112.384 54.1471 112.76 53.7866C113.458 53.0233 113.893 52.0557 114 51.0266H118.933C118.75 53.2534 117.696 55.3181 116 56.7733C114.262 58.0946 112.115 58.7646 109.933 58.6666C108.615 58.687 107.305 58.4469 106.08 57.9599C104.954 57.5313 103.935 56.8625 103.093 55.9999C102.252 55.139 101.598 54.113 101.173 52.9866C100.705 51.7564 100.47 50.4496 100.48 49.1333C100.471 47.7737 100.687 46.4221 101.12 45.1333C101.51 43.9392 102.146 42.8401 102.987 41.9066C103.818 40.9872 104.843 40.2633 105.987 39.7866C107.255 39.2663 108.616 39.0078 109.987 39.0266C111.069 39.0231 112.146 39.1712 113.187 39.4666C114.173 39.7466 115.103 40.1979 115.933 40.7999C116.738 41.3869 117.41 42.1364 117.907 42.9999C118.43 43.965 118.726 45.0365 118.773 46.1333H113.8C113.772 45.6689 113.65 45.2151 113.442 44.7992C113.233 44.3833 112.943 44.014 112.587 43.7136C112.232 43.4132 111.82 43.188 111.375 43.0516C110.93 42.9152 110.463 42.8704 110 42.9199Z" fill="#F7F7F7"/>
<path d="M121.707 45.3334C121.746 44.2561 122.078 43.2099 122.667 42.3067C123.187 41.521 123.881 40.8643 124.693 40.3867C125.556 39.8925 126.492 39.5413 127.467 39.3467C128.485 39.1451 129.521 39.0424 130.56 39.04C131.515 39.0412 132.468 39.108 133.413 39.24C134.338 39.3595 135.238 39.625 136.08 40.0267C136.854 40.3924 137.527 40.9417 138.04 41.6267C138.58 42.4326 138.847 43.391 138.8 44.36V54.0934C138.796 54.9042 138.841 55.7145 138.933 56.52C138.985 57.1258 139.157 57.7151 139.44 58.2534H134.24C134.151 57.96 134.071 57.6667 134 57.3734C133.94 57.0652 133.899 56.7535 133.88 56.44C133.085 57.2708 132.088 57.8817 130.987 58.2134C129.885 58.5527 128.739 58.7236 127.587 58.72C126.741 58.7264 125.897 58.6187 125.08 58.4C124.31 58.1885 123.589 57.8259 122.96 57.3334C122.388 56.8659 121.932 56.2727 121.627 55.6C121.278 54.8115 121.109 53.9552 121.133 53.0934C121.09 52.1713 121.283 51.2535 121.693 50.4267C122.037 49.7664 122.536 49.1991 123.147 48.7734C123.773 48.4114 124.452 48.1504 125.16 48C125.916 47.8006 126.681 47.6404 127.453 47.52C128.227 47.3867 128.987 47.2934 129.733 47.2267C130.403 47.1625 131.066 47.0511 131.72 46.8934C132.206 46.7883 132.662 46.574 133.053 46.2667C133.228 46.1211 133.363 45.9331 133.445 45.7208C133.526 45.5084 133.552 45.2786 133.52 45.0534C133.548 44.5934 133.456 44.134 133.253 43.72C133.078 43.4121 132.831 43.1513 132.533 42.96C132.211 42.7673 131.853 42.6446 131.48 42.6C131.039 42.5309 130.593 42.4997 130.147 42.5067C129.301 42.4552 128.462 42.6849 127.76 43.16C127.462 43.4368 127.226 43.7735 127.067 44.1481C126.909 44.5227 126.831 44.9267 126.84 45.3334H121.707ZM133.56 49.1334C133.322 49.3347 133.045 49.4845 132.747 49.5734C132.407 49.6919 132.06 49.7855 131.707 49.8534C131.333 49.92 130.933 49.9867 130.52 50.0267L129.293 50.2134C128.909 50.2844 128.53 50.3824 128.16 50.5067C127.811 50.6122 127.483 50.7744 127.187 50.9867C126.906 51.1967 126.674 51.4651 126.507 51.7734C126.328 52.1429 126.241 52.5499 126.253 52.96C126.245 53.3613 126.332 53.7589 126.507 54.12C126.672 54.4229 126.91 54.6796 127.2 54.8667C127.512 55.0522 127.856 55.1788 128.213 55.24C128.605 55.3092 129.002 55.3449 129.4 55.3467C130.218 55.3962 131.034 55.221 131.76 54.84C132.268 54.5498 132.691 54.1314 132.987 53.6267C133.24 53.1868 133.408 52.7026 133.48 52.2C133.527 51.8151 133.554 51.4278 133.56 51.04V49.1334Z" fill="#F7F7F7"/>
<path d="M155.853 55.8667C155.315 56.8251 154.49 57.59 153.493 58.0534C152.447 58.51 151.315 58.7373 150.173 58.7201C148.899 58.7506 147.636 58.4715 146.493 57.9067C145.441 57.3982 144.526 56.6435 143.827 55.7067C143.118 54.7427 142.59 53.6586 142.267 52.5067C141.918 51.2795 141.743 50.0093 141.747 48.7334C141.744 47.5057 141.919 46.2841 142.267 45.1067C142.589 43.9873 143.118 42.9381 143.827 42.0134C144.519 41.1114 145.402 40.3738 146.413 39.8534C147.535 39.2961 148.774 39.0171 150.027 39.0401C151.123 39.0406 152.207 39.2818 153.2 39.7467C154.17 40.1997 154.989 40.9217 155.56 41.8267H155.64V32.4934H160.773V58.2534H156V55.8667H155.853ZM155.64 46.6667C155.518 45.9969 155.264 45.3578 154.893 44.7867C154.558 44.2449 154.102 43.7884 153.56 43.4534C152.919 43.0899 152.189 42.9143 151.453 42.9467C150.709 42.9192 149.972 43.0943 149.32 43.4534C148.773 43.7823 148.316 44.2401 147.987 44.7867C147.629 45.371 147.373 46.011 147.227 46.6801C147.065 47.4112 146.984 48.1579 146.987 48.9067C146.984 49.6387 147.07 50.3683 147.24 51.0801C147.395 51.7673 147.671 52.4217 148.053 53.0134C148.418 53.5588 148.901 54.0146 149.467 54.3467C150.084 54.7114 150.79 54.8961 151.507 54.8801C152.203 54.9207 152.896 54.7678 153.51 54.4383C154.125 54.1088 154.636 53.6156 154.987 53.0134C155.331 52.4129 155.574 51.7597 155.707 51.0801C155.853 50.3425 155.924 49.592 155.92 48.8401C155.899 48.1081 155.806 47.38 155.64 46.6667Z" fill="#F7F7F7"/>
<path d="M170.28 53.7735C171.127 54.4389 172.158 54.8278 173.234 54.8874C174.31 54.947 175.378 54.6745 176.293 54.1068C176.907 53.723 177.376 53.1461 177.627 52.4668H182.147C181.631 54.4108 180.452 56.1133 178.813 57.2801C177.189 58.2529 175.318 58.7345 173.427 58.6668C172.06 58.694 170.701 58.454 169.427 57.9601C168.289 57.5267 167.264 56.8432 166.427 55.9601C165.585 55.0613 164.936 53.9995 164.52 52.8401C164.062 51.5571 163.836 50.2025 163.853 48.8401C163.838 47.506 164.073 46.1809 164.547 44.9335C164.971 43.7684 165.632 42.7038 166.488 41.8066C167.344 40.9093 168.376 40.199 169.52 39.7201C170.747 39.2014 172.068 38.9427 173.4 38.9601C174.843 38.9217 176.272 39.2424 177.56 39.8935C178.711 40.4787 179.711 41.3231 180.48 42.3601C181.251 43.4253 181.808 44.6297 182.12 45.9068C182.462 47.2652 182.584 48.6698 182.48 50.0668H169.013C168.95 51.4183 169.403 52.7433 170.28 53.7735ZM176.093 44.0001C175.726 43.6405 175.287 43.364 174.803 43.1891C174.32 43.0143 173.805 42.9453 173.293 42.9868C172.586 42.9599 171.882 43.1015 171.24 43.4001C170.726 43.6403 170.27 43.9908 169.907 44.4268C169.588 44.82 169.352 45.2735 169.213 45.7601C169.091 46.1595 169.01 46.5706 168.973 46.9868H177.333C177.208 45.8947 176.778 44.8598 176.093 44.0001Z" fill="#F7F7F7"/>
<path d="M190.533 39.5467V42.08C191.169 41.1604 192.003 40.3949 192.973 39.84C193.98 39.2963 195.109 39.0208 196.253 39.04C197.371 39.0326 198.477 39.2692 199.493 39.7333C200.509 40.2361 201.299 41.1022 201.707 42.16C202.32 41.2951 203.1 40.5609 204 40C205.009 39.354 206.189 39.0244 207.387 39.0533C208.316 39.0429 209.241 39.1687 210.133 39.4267C210.932 39.6481 211.673 40.0392 212.307 40.5733C212.948 41.1449 213.442 41.8631 213.747 42.6667C214.11 43.6563 214.282 44.7061 214.253 45.76V58.28H209.12V47.6533C209.12 47.0267 209.12 46.44 209.053 45.88C209.015 45.3786 208.879 44.8895 208.653 44.44C208.438 44.023 208.104 43.6795 207.693 43.4533C207.16 43.1893 206.568 43.0654 205.973 43.0933C205.364 43.0695 204.76 43.2124 204.227 43.5067C203.786 43.7733 203.423 44.1502 203.173 44.6C202.908 45.0692 202.736 45.5854 202.667 46.12C202.581 46.6894 202.537 47.2642 202.533 47.84V58.2533H197.4V47.76C197.4 47.2133 197.4 46.6533 197.4 46.12C197.39 45.6034 197.286 45.0929 197.093 44.6133C196.918 44.1605 196.606 43.7736 196.2 43.5067C195.627 43.2006 194.982 43.0576 194.333 43.0933C194.008 43.1074 193.686 43.1611 193.373 43.2533C192.948 43.3822 192.554 43.5954 192.213 43.88C191.794 44.2435 191.465 44.7001 191.253 45.2133C190.962 45.9184 190.826 46.6777 190.853 47.44V58.2933H185.72V39.6267L190.533 39.5467Z" fill="#F7F7F7"/>
<path d="M224.747 63.8266C223.497 64.5446 222.065 64.8828 220.627 64.7999C220.093 64.7999 219.573 64.7999 219.053 64.7999L217.48 64.6666V60.3866L218.96 60.5333C219.466 60.5599 219.974 60.5599 220.48 60.5333C220.772 60.5173 221.058 60.4374 221.316 60.2992C221.574 60.161 221.798 59.9678 221.973 59.7333C222.298 59.2935 222.472 58.76 222.467 58.2133C222.472 57.8164 222.4 57.4223 222.253 57.0533L215.707 39.5066H221.16L225.4 52.3199L229.493 39.5066H234.827L227.067 60.5733C226.662 61.8784 225.849 63.0189 224.747 63.8266Z" fill="#F7F7F7"/>
<path d="M8.66665 30.7866L31.0533 40.7333V35.3999L12.2 27.2666L31.0533 19.1866V13.8533L8.66665 23.7466C8.10526 23.9977 7.63018 24.4085 7.30062 24.9277C6.97105 25.447 6.80158 26.0517 6.81331 26.6666V27.9999C6.82565 28.5925 7.00651 29.1693 7.33473 29.6628C7.66295 30.1563 8.12495 30.5461 8.66665 30.7866Z" fill="white"/>
<path d="M56.1333 30.7866L33.7466 40.7333V35.3999L52.6 27.3199L33.7466 19.1866V13.8533L56.1333 23.7466C56.6936 23.9991 57.1678 24.4102 57.4971 24.9292C57.8265 25.4481 57.9966 26.0521 57.9866 26.6666V27.9999C57.9711 28.5917 57.789 29.1672 57.4612 29.6601C57.1333 30.153 56.6731 30.5435 56.1333 30.7866Z" fill="white"/>
<path d="M32.4 50.9998L31.16 50.1731C27.0233 47.6776 22.3094 46.2993 17.48 46.1731H16.9733C16.5136 46.1731 16.0727 45.9905 15.7477 45.6655C15.4226 45.3404 15.24 44.8995 15.24 44.4398V35.2131L19.72 37.2265V41.7331C24.1743 42.1924 28.4885 43.5533 32.4 45.7331C36.3115 43.5533 40.6257 42.1924 45.08 41.7331V37.2265L49.56 35.2131V44.3865C49.56 44.8462 49.3774 45.2871 49.0523 45.6121C48.7272 45.9372 48.2864 46.1198 47.8267 46.1198H47.32C42.4887 46.2343 37.7719 47.6135 33.64 50.1198L32.4 50.9998Z" fill="white"/>
</svg>
