<svg width="207" height="56" viewBox="0 0 207 56" fill="none" xmlns="http://www.w3.org/2000/svg">
<path d="M56 0H0V56H56V0Z" fill="#FF4040"/>
<path d="M78.268 0L86.6091 22.3168H81.4654L79.7972 17.3267H71.456L69.7183 22.3168H64.7831L73.1938 0H78.268ZM78.546 13.7228L75.6961 5.54455H75.6266L72.7072 13.7228H78.546Z" fill="white"/>
<path d="M92.6565 6.16825V8.24746H92.726C93.2821 7.34647 93.9772 6.72271 94.8113 6.30687C95.6454 5.89103 96.549 5.68311 97.5917 5.68311C98.8428 5.68311 99.955 5.89103 100.859 6.37617C101.762 6.86132 102.527 7.48509 103.152 8.31677C103.778 9.07915 104.195 10.0494 104.473 11.089C104.751 12.1287 104.89 13.2376 104.89 14.4158C104.89 15.5247 104.751 16.5643 104.473 17.5346C104.195 18.5049 103.709 19.4059 103.152 20.1683C102.527 20.9306 101.832 21.5544 100.928 22.0395C100.025 22.5247 98.9819 22.7326 97.8002 22.7326C96.8271 22.7326 95.8539 22.5247 95.0198 22.1088C94.1857 21.693 93.4906 21.0692 92.9345 20.3069H92.865V27.9999H88.4164V6.16825H92.6565ZM98.4258 18.99C98.9124 18.7128 99.3294 18.297 99.6074 17.8811C99.8855 17.396 100.094 16.8415 100.233 16.2178C100.372 15.594 100.442 14.9702 100.442 14.2772C100.442 13.6534 100.372 13.0296 100.233 12.3366C100.094 11.7128 99.8855 11.1584 99.5379 10.6732C99.1904 10.1881 98.8428 9.77221 98.3563 9.49499C97.8697 9.21776 97.2441 9.00984 96.549 9.00984C95.7844 9.00984 95.2283 9.14845 94.7418 9.49499C94.2552 9.77221 93.8381 10.1881 93.5601 10.6732C93.2821 11.1584 93.0735 11.7128 92.9345 12.3366C92.7955 12.9603 92.726 13.5841 92.726 14.2772C92.726 14.9009 92.7955 15.5247 92.9345 16.2178C93.0735 16.8415 93.2821 17.396 93.5601 17.8811C93.8381 18.3663 94.2552 18.7128 94.7418 18.99C95.2283 19.2673 95.8539 19.4059 96.549 19.4059C97.3136 19.4059 97.9392 19.2673 98.4258 18.99Z" fill="white"/>
<path d="M111.911 6.16825V8.24746H111.98C112.536 7.34647 113.231 6.72271 114.065 6.30687C114.9 5.89103 115.803 5.68311 116.846 5.68311C118.097 5.68311 119.209 5.89103 120.113 6.37617C121.016 6.86132 121.781 7.48509 122.407 8.31677C123.032 9.07915 123.449 10.0494 123.727 11.089C124.005 12.1287 124.144 13.2376 124.144 14.4158C124.144 15.5247 124.005 16.5643 123.727 17.5346C123.449 18.5049 122.963 19.4059 122.407 20.1683C121.781 20.9306 121.086 21.5544 120.182 22.0395C119.279 22.5247 118.236 22.7326 117.054 22.7326C116.081 22.7326 115.108 22.5247 114.274 22.1088C113.44 21.693 112.745 21.0692 112.189 20.3069H112.119V27.9999H107.671V6.16825H111.911ZM117.68 18.99C118.167 18.7128 118.584 18.297 118.862 17.8811C119.14 17.396 119.348 16.8415 119.487 16.2178C119.626 15.594 119.696 14.9702 119.696 14.2772C119.696 13.6534 119.626 13.0296 119.487 12.3366C119.348 11.7128 119.14 11.1584 118.792 10.6732C118.445 10.1881 118.097 9.77221 117.61 9.49499C117.124 9.21776 116.498 9.00984 115.803 9.00984C115.039 9.00984 114.483 9.14845 113.996 9.49499C113.509 9.77221 113.092 10.1881 112.814 10.6732C112.536 11.1584 112.328 11.7128 112.189 12.3366C112.05 12.9603 111.98 13.5841 111.98 14.2772C111.98 14.9009 112.05 15.5247 112.189 16.2178C112.328 16.8415 112.536 17.396 112.814 17.8811C113.092 18.3663 113.509 18.7128 113.996 18.99C114.483 19.2673 115.108 19.4059 115.803 19.4059C116.568 19.4059 117.193 19.2673 117.68 18.99Z" fill="white"/>
<path d="M131.443 0V22.3168H126.994V0H131.443Z" fill="white"/>
<path d="M134.779 11.1584C134.849 10.1188 135.127 9.21779 135.544 8.59403C136.031 7.90096 136.587 7.3465 137.282 6.93066C137.977 6.51482 138.811 6.23759 139.715 6.02967C140.618 5.82175 141.522 5.75244 142.425 5.75244C143.26 5.75244 144.094 5.82175 144.928 5.89106C145.762 6.02967 146.527 6.23759 147.222 6.58412C147.917 6.93066 148.473 7.41581 148.89 7.97026C149.307 8.52472 149.515 9.3564 149.515 10.3267V18.7128C149.515 19.4752 149.585 20.1683 149.655 20.792C149.724 21.4851 149.863 21.9703 150.072 22.3168H145.553C145.484 22.0396 145.414 21.8316 145.345 21.5544C145.275 21.2772 145.275 21 145.206 20.7227C144.511 21.4851 143.677 21.9703 142.704 22.2475C141.73 22.5247 140.757 22.6633 139.784 22.6633C139.02 22.6633 138.255 22.594 137.629 22.3861C136.934 22.1782 136.378 21.901 135.892 21.4851C135.405 21.0693 134.988 20.5841 134.71 19.9604C134.432 19.3366 134.293 18.6435 134.293 17.8118C134.293 16.9109 134.432 16.1485 134.779 15.5247C135.127 14.901 135.544 14.4851 136.031 14.0693C136.517 13.7227 137.143 13.4455 137.768 13.2376C138.394 13.0297 139.089 12.8911 139.784 12.8217C140.479 12.6831 141.105 12.6138 141.73 12.5445C142.356 12.4752 142.982 12.4059 143.468 12.2673C143.955 12.1287 144.372 11.9901 144.65 11.7128C144.928 11.5049 145.067 11.1584 145.067 10.6732C145.067 10.1881 144.997 9.84155 144.858 9.56432C144.719 9.2871 144.511 9.07917 144.233 8.94056C143.955 8.80195 143.677 8.66333 143.329 8.59403C142.982 8.52472 142.634 8.52472 142.217 8.52472C141.313 8.52472 140.618 8.73264 140.132 9.07917C139.645 9.42571 139.367 10.0495 139.228 10.9505H134.779V11.1584ZM145.067 14.4158C144.858 14.5544 144.65 14.693 144.372 14.8316C144.094 14.901 143.816 14.9703 143.468 15.0396C143.121 15.1089 142.773 15.1782 142.425 15.1782C142.078 15.2475 141.73 15.2475 141.383 15.3168C141.035 15.3861 140.688 15.4554 140.41 15.594C140.062 15.6633 139.784 15.8713 139.576 16.0099C139.367 16.2178 139.159 16.4257 139.02 16.7029C138.88 16.9802 138.811 17.3267 138.811 17.7425C138.811 18.1584 138.88 18.5049 139.02 18.7128C139.159 18.9208 139.367 19.198 139.645 19.3366C139.923 19.4752 140.201 19.6138 140.549 19.6831C140.896 19.7524 141.244 19.7524 141.591 19.7524C142.495 19.7524 143.121 19.6138 143.607 19.3366C144.094 19.0594 144.441 18.7128 144.65 18.297C144.858 17.8812 144.997 17.4653 145.067 17.0495C145.136 16.6336 145.136 16.2871 145.136 16.0792V14.4158H145.067Z" fill="white"/>
<path d="M163.904 22.317V20.0991H163.834C163.278 21.0694 162.514 21.6932 161.61 22.109C160.707 22.5249 159.803 22.7328 158.83 22.7328C157.648 22.7328 156.675 22.5942 155.91 22.2477C155.146 21.9011 154.52 21.4853 154.103 20.9308C153.686 20.3764 153.339 19.6833 153.199 18.8516C152.991 18.0199 152.921 17.119 152.921 16.1487V6.16846H157.37V15.317C157.37 16.6338 157.579 17.6734 157.996 18.2972C158.413 18.9209 159.177 19.2675 160.22 19.2675C161.402 19.2675 162.305 18.9209 162.861 18.1586C163.417 17.4655 163.695 16.2873 163.695 14.6239V6.16846H168.144V22.317H163.904Z" fill="white"/>
<path d="M183.089 20.2376C182.533 21.1386 181.907 21.7624 181.003 22.1089C180.169 22.5248 179.196 22.6634 178.153 22.6634C176.972 22.6634 175.86 22.4554 174.956 21.9703C174.052 21.4851 173.288 20.8614 172.662 20.0297C172.037 19.198 171.62 18.297 171.342 17.2574C171.064 16.2178 170.855 15.1089 170.855 14C170.855 12.8911 170.994 11.8515 171.342 10.8812C171.62 9.84158 172.106 9.0099 172.662 8.17822C173.288 7.41584 173.983 6.79208 174.887 6.30693C175.79 5.82178 176.833 5.61386 178.014 5.61386C178.988 5.61386 179.891 5.82178 180.725 6.23762C181.559 6.65347 182.255 7.27723 182.811 8.0396H182.88V0H187.329V22.3168H183.089V20.2376ZM182.95 12.2673C182.811 11.6436 182.602 11.0891 182.324 10.6733C182.046 10.1881 181.629 9.84158 181.142 9.56436C180.656 9.28713 180.03 9.14851 179.335 9.14851C178.571 9.14851 178.014 9.28713 177.458 9.56436C176.972 9.84158 176.555 10.2574 176.277 10.7426C175.999 11.2277 175.721 11.7822 175.651 12.4059C175.512 13.0297 175.443 13.6535 175.443 14.3465C175.443 14.9703 175.512 15.5941 175.651 16.2178C175.79 16.8416 175.999 17.396 176.346 17.8812C176.694 18.3663 177.111 18.7822 177.597 19.0594C178.084 19.3366 178.71 19.5446 179.335 19.5446C180.1 19.5446 180.656 19.4059 181.142 19.1287C181.629 18.8515 182.046 18.4356 182.324 17.9505C182.602 17.4653 182.811 16.9109 182.95 16.2871C183.089 15.6634 183.158 15.0396 183.158 14.3465C183.089 13.5149 183.089 12.8911 182.95 12.2673Z" fill="white"/>
<path d="M190.804 10.7425C191.221 9.70291 191.777 8.80192 192.472 8.03954C193.237 7.27717 194.071 6.72271 195.114 6.30687C196.156 5.89103 197.269 5.68311 198.589 5.68311C199.841 5.68311 201.022 5.89103 202.065 6.30687C203.107 6.72271 204.011 7.27717 204.706 8.03954C205.471 8.80192 206.027 9.70291 206.374 10.7425C206.791 11.7821 207 12.9603 207 14.2772C207 15.594 206.791 16.7722 206.374 17.8118C205.957 18.8514 205.401 19.7524 204.706 20.5148C203.942 21.2772 203.107 21.8316 202.065 22.2475C201.022 22.6633 199.841 22.8712 198.589 22.8712C197.338 22.8712 196.156 22.6633 195.114 22.2475C194.071 21.8316 193.237 21.2772 192.472 20.5148C191.708 19.7524 191.152 18.8514 190.804 17.8118C190.387 16.7722 190.179 15.594 190.179 14.2772C190.248 12.9603 190.387 11.7821 190.804 10.7425ZM194.836 16.1485C194.975 16.7722 195.183 17.3267 195.461 17.8118C195.739 18.297 196.156 18.7128 196.643 18.99C197.13 19.2673 197.755 19.4059 198.52 19.4059C199.284 19.4059 199.91 19.2673 200.397 18.99C200.883 18.7128 201.3 18.297 201.648 17.8118C201.926 17.3267 202.134 16.7722 202.273 16.1485C202.412 15.5247 202.482 14.9009 202.482 14.2772C202.482 13.6534 202.412 13.0296 202.273 12.3366C202.134 11.7128 201.926 11.1584 201.648 10.6732C201.37 10.1881 200.953 9.77221 200.397 9.49499C199.91 9.21776 199.284 9.00984 198.52 9.00984C197.755 9.00984 197.13 9.14845 196.643 9.49499C196.156 9.77221 195.739 10.1881 195.461 10.6732C195.183 11.1584 194.975 11.7128 194.836 12.3366C194.697 12.9603 194.627 13.5841 194.627 14.2772C194.697 14.9009 194.697 15.5247 194.836 16.1485Z" fill="white"/>
<path d="M78.268 28L86.6091 50.3168H81.4654L79.7972 45.3267H71.456L69.7183 50.3168H64.7831L73.2633 28H78.268V28ZM78.546 41.7228L75.6961 33.5446H75.6266L72.7072 41.7228H78.546Z" fill="white"/>
<path d="M95.3674 37.0791C94.6723 37.0791 94.0467 37.2178 93.5601 37.5643C93.0735 37.9108 92.6565 38.3267 92.3784 38.8118C92.1004 39.297 91.8919 39.8514 91.7529 40.4752C91.6138 41.0989 91.5443 41.7227 91.5443 42.2772C91.5443 42.8316 91.6138 43.4554 91.7529 44.0791C91.8919 44.7029 92.1004 45.2574 92.3784 45.7425C92.6565 46.2277 93.0735 46.6435 93.4906 46.9207C93.9772 47.2673 94.5332 47.4059 95.2283 47.4059C96.271 47.4059 97.1051 47.1286 97.6612 46.5049C98.2173 45.8811 98.5648 45.1187 98.7733 44.0791H103.083C102.805 46.2277 101.971 47.891 100.581 48.9999C99.1904 50.1088 97.4527 50.6633 95.2979 50.6633C94.1162 50.6633 93.004 50.4554 91.9614 50.0395C90.9187 49.6237 90.0846 49.0692 89.3895 48.3069C88.6944 47.5445 88.1383 46.7128 87.7213 45.6732C87.3042 44.6336 87.0957 43.5247 87.0957 42.3465C87.0957 41.0989 87.3042 39.9207 87.6518 38.8811C87.9993 37.8415 88.5554 36.8712 89.2505 36.1088C89.9456 35.3465 90.8492 34.7227 91.8224 34.3069C92.865 33.891 94.0467 33.6831 95.3674 33.6831C96.3405 33.6831 97.2441 33.8217 98.1478 34.0296C99.0514 34.3069 99.816 34.6534 100.511 35.1386C101.206 35.6237 101.762 36.3168 102.249 37.0791C102.666 37.8415 102.944 38.7425 103.013 39.7821H98.6343C98.3563 38.0494 97.2441 37.0791 95.3674 37.0791Z" fill="white"/>
<path d="M105.516 39.1584C105.585 38.1188 105.863 37.2178 106.28 36.594C106.767 35.901 107.323 35.3465 108.018 34.9307C108.713 34.5148 109.547 34.2376 110.451 34.0297C111.355 33.8217 112.258 33.7524 113.162 33.7524C113.996 33.7524 114.83 33.8217 115.664 33.8911C116.498 34.0297 117.263 34.2376 117.958 34.5841C118.653 34.9307 119.209 35.4158 119.626 35.9703C120.043 36.5247 120.252 37.3564 120.252 38.3267V46.7128C120.252 47.4752 120.321 48.1683 120.391 48.792C120.46 49.4851 120.599 49.9703 120.808 50.3168H116.29C116.22 50.0396 116.151 49.8316 116.081 49.5544C116.012 49.2772 116.012 49 115.942 48.7227C115.247 49.4851 114.413 49.9703 113.44 50.2475C112.467 50.5247 111.494 50.6633 110.521 50.6633C109.756 50.6633 108.991 50.594 108.366 50.3861C107.671 50.1782 107.115 49.901 106.628 49.4851C106.141 49.0693 105.724 48.5841 105.446 47.9604C105.168 47.3366 105.029 46.6435 105.029 45.8118C105.029 44.9109 105.168 44.1485 105.516 43.5247C105.863 42.901 106.28 42.4851 106.767 42.0693C107.254 41.7227 107.879 41.4455 108.505 41.2376C109.13 41.0297 109.825 40.8911 110.521 40.8217C111.216 40.6831 111.841 40.6138 112.467 40.5445C113.092 40.4752 113.718 40.4059 114.205 40.2673C114.691 40.1287 115.108 39.9901 115.386 39.7128C115.664 39.5049 115.803 39.1584 115.803 38.6732C115.803 38.1881 115.734 37.8415 115.595 37.5643C115.456 37.2871 115.247 37.0792 114.969 36.9406C114.691 36.8019 114.413 36.6633 114.066 36.594C113.718 36.5247 113.37 36.5247 112.953 36.5247C112.05 36.5247 111.355 36.7326 110.868 37.0792C110.381 37.4257 110.103 38.0495 109.964 38.9505H105.516V39.1584ZM115.803 42.4158C115.595 42.5544 115.386 42.693 115.108 42.8316C114.83 42.901 114.552 42.9703 114.205 43.0396C113.857 43.1089 113.509 43.1782 113.162 43.1782C112.814 43.2475 112.467 43.2475 112.119 43.3168C111.772 43.3861 111.424 43.4554 111.146 43.594C110.799 43.6633 110.52 43.8712 110.312 44.0099C110.103 44.2178 109.895 44.4257 109.756 44.7029C109.617 44.9802 109.547 45.3267 109.547 45.7425C109.547 46.1584 109.617 46.5049 109.756 46.7128C109.895 46.9901 110.103 47.198 110.381 47.3366C110.66 47.4752 110.938 47.6138 111.285 47.6831C111.633 47.7524 111.98 47.7524 112.328 47.7524C113.231 47.7524 113.857 47.6138 114.344 47.3366C114.83 47.0594 115.178 46.7128 115.386 46.297C115.595 45.8812 115.734 45.4653 115.803 45.0495C115.873 44.6336 115.873 44.2871 115.873 44.0792V42.4158H115.803Z" fill="white"/>
<path d="M135.127 48.3069C134.571 49.2079 133.945 49.8317 133.042 50.1782C132.138 50.5248 131.234 50.7327 130.192 50.7327C129.01 50.7327 127.898 50.5247 126.994 50.0396C126.091 49.5545 125.326 48.9307 124.7 48.099C124.075 47.2673 123.658 46.3663 123.38 45.3267C123.102 44.2871 122.893 43.1782 122.893 42.0693C122.893 40.9604 123.032 39.9208 123.38 38.9505C123.658 37.9109 124.144 37.0792 124.7 36.2475C125.326 35.4851 126.021 34.8614 126.925 34.3762C127.828 33.8911 128.871 33.6832 130.053 33.6832C131.026 33.6832 131.93 33.8911 132.764 34.3069C133.598 34.7228 134.293 35.3465 134.849 36.1089H134.918V28H139.367V50.3168H135.127V48.3069ZM134.918 40.3366C134.779 39.7129 134.571 39.1584 134.293 38.7426C134.015 38.2574 133.598 37.9109 133.111 37.6337C132.625 37.3564 131.999 37.2178 131.304 37.2178C130.539 37.2178 129.983 37.3564 129.427 37.6337C128.941 37.9109 128.524 38.3267 128.246 38.8119C127.967 39.297 127.689 39.8515 127.62 40.4752C127.481 41.099 127.411 41.7228 127.411 42.4158C127.411 43.0396 127.481 43.6634 127.62 44.2871C127.759 44.9109 127.967 45.4653 128.315 45.9505C128.663 46.4356 129.08 46.8515 129.566 47.1287C130.053 47.4059 130.678 47.6139 131.304 47.6139C132.069 47.6139 132.625 47.4752 133.111 47.198C133.598 46.9208 134.015 46.5049 134.293 46.0198C134.571 45.5347 134.779 44.9802 134.918 44.3564C135.057 43.7327 135.127 43.1089 135.127 42.4158C135.127 41.5842 135.057 40.8911 134.918 40.3366Z" fill="white"/>
<path d="M147.639 46.5049C148.334 47.1286 149.237 47.4752 150.558 47.4752C151.462 47.4752 152.226 47.2673 152.852 46.7821C153.478 46.3663 153.895 45.8811 154.034 45.3267H157.926C157.301 47.2673 156.327 48.6534 155.007 49.4851C153.686 50.3168 152.157 50.7326 150.28 50.7326C149.029 50.7326 147.847 50.5247 146.805 50.1088C145.762 49.693 144.928 49.1385 144.233 48.3762C143.538 47.6138 142.982 46.7128 142.565 45.6732C142.147 44.6336 142.008 43.4554 142.008 42.2079C142.008 41.0296 142.217 39.8514 142.634 38.8118C143.051 37.7722 143.607 36.8712 144.302 36.1088C145.067 35.3465 145.901 34.7227 146.944 34.3069C147.986 33.891 149.098 33.6831 150.28 33.6831C151.67 33.6831 152.852 33.9603 153.895 34.4455C154.937 34.9999 155.771 35.693 156.397 36.594C157.023 37.495 157.509 38.5346 157.857 39.6435C158.135 40.8217 158.274 41.9999 158.204 43.2475H146.527C146.596 44.7722 146.944 45.8118 147.639 46.5049ZM152.643 37.9801C152.087 37.4257 151.323 37.0791 150.211 37.0791C149.515 37.0791 148.89 37.2178 148.473 37.4257C147.986 37.6336 147.639 37.9801 147.361 38.3267C147.083 38.6732 146.874 39.089 146.735 39.4356C146.596 39.8514 146.527 40.198 146.527 40.4752H153.756C153.547 39.4356 153.199 38.5346 152.643 37.9801Z" fill="white"/>
<path d="M165.155 34.1683V36.3861H165.225C165.781 35.5544 166.545 34.9307 167.31 34.4455C168.144 33.9604 169.048 33.7524 170.16 33.7524C171.203 33.7524 172.106 33.9604 172.94 34.3762C173.774 34.792 174.4 35.4851 174.887 36.4554C175.373 35.7623 175.999 35.1386 176.833 34.5841C177.667 34.0297 178.64 33.7524 179.752 33.7524C180.586 33.7524 181.42 33.8217 182.116 34.099C182.88 34.3069 183.506 34.6534 183.992 35.0693C184.548 35.5544 184.896 36.1089 185.244 36.8713C185.522 37.6336 185.661 38.5346 185.661 39.5742V50.3861H181.212V41.1683C181.212 40.6138 181.212 40.1287 181.142 39.6435C181.073 39.1584 181.003 38.7425 180.795 38.396C180.586 38.0495 180.308 37.7722 179.961 37.5643C179.613 37.3564 179.127 37.2178 178.501 37.2178C177.875 37.2178 177.389 37.3564 176.972 37.5643C176.555 37.7722 176.277 38.1188 176.068 38.5346C175.86 38.9505 175.721 39.3663 175.651 39.8515C175.582 40.3366 175.512 40.8217 175.512 41.3069V50.3168H171.064V41.3069C171.064 40.8217 171.064 40.3366 171.064 39.8515C171.064 39.3663 170.925 38.9505 170.785 38.5346C170.646 38.1188 170.368 37.8416 170.021 37.5643C169.673 37.3564 169.117 37.2178 168.422 37.2178C168.214 37.2178 167.936 37.2871 167.588 37.3564C167.24 37.4257 166.893 37.6336 166.615 37.9109C166.267 38.1881 165.989 38.5346 165.781 39.0198C165.572 39.5049 165.433 40.1287 165.433 40.9604V50.3168H160.985V34.1683H165.155Z" fill="white"/>
<path d="M194.836 55.1682C194.002 55.7227 192.82 55.9999 191.291 55.9999C190.804 55.9999 190.387 55.9999 189.901 55.9306C189.484 55.9306 188.997 55.8613 188.51 55.792V52.1187C188.928 52.188 189.345 52.188 189.762 52.2573C190.179 52.3266 190.665 52.3266 191.082 52.2573C191.638 52.188 192.125 51.9801 192.403 51.5643C192.681 51.1484 192.82 50.7326 192.82 50.2474C192.82 49.9009 192.751 49.5544 192.612 49.2771L186.981 34.1682H191.708L195.392 45.2573H195.461L199.006 34.1682H203.594L196.852 52.3266C196.365 53.6435 195.67 54.6138 194.836 55.1682Z" fill="white"/>
<path d="M7.50705 26.7524L26.9003 35.3465V30.7029L10.5655 23.7029L26.9003 16.7029V12.0593L7.50705 20.6534C6.53391 21.0692 5.90833 22.0395 5.90833 23.1484V24.2573C5.90833 25.3663 6.53391 26.3366 7.50705 26.7524Z" fill="white"/>
<path d="M48.6568 26.7524L29.2636 35.3465V30.7029L45.5984 23.7029L29.2636 16.7722V12.1287L48.6568 20.6534C49.63 21.0693 50.2556 22.0396 50.2556 23.1485V24.2574C50.2556 25.3663 49.63 26.3366 48.6568 26.7524Z" fill="white"/>
<path d="M26.2052 43.109C26.1357 42.8317 25.9967 42.6238 25.8577 42.4159C25.6491 42.208 25.4406 42.0694 25.093 41.9307C24.7455 41.7921 24.3284 41.7228 23.8419 41.7228H18.3506C16.8214 41.7228 15.6397 41.307 14.8056 40.4753C13.902 39.6436 13.4849 38.5347 13.4849 37.2179V31.6733L16.9604 33.1981V36.0396C16.9604 36.6634 17.1689 37.0793 17.586 37.2872C18.0031 37.4951 18.4896 37.5644 18.9067 37.5644H24.2589C24.954 37.5644 25.5796 37.703 26.0662 37.9109C26.5528 38.1189 26.9003 38.3961 27.1783 38.7426C27.4564 39.0892 27.6649 39.3664 27.8039 39.7129C27.9429 40.0595 28.0125 40.3367 28.0125 40.6139H28.082C28.082 40.3367 28.221 40.0595 28.36 39.7129C28.499 39.3664 28.7076 39.0198 28.9856 38.7426C29.2636 38.3961 29.6112 38.1882 30.0977 37.9109C30.5148 37.703 31.0709 37.5644 31.766 37.5644H37.2572C37.7438 37.5644 38.1609 37.4951 38.5779 37.2872C38.995 37.0793 39.2035 36.6634 39.2035 36.0396V33.1288L42.679 31.604V37.1486C42.679 38.5347 42.262 39.6436 41.3583 40.406C40.4547 41.2377 39.273 41.6535 37.8133 41.6535H32.183C31.6965 41.6535 31.3489 41.7228 31.0014 41.8614C30.7233 42 30.4453 42.1387 30.3063 42.3466C30.1673 42.5545 30.0282 42.7624 29.9587 43.0396C29.8197 43.5248 29.4722 43.802 28.9856 43.802H27.1088C26.6918 43.9406 26.2747 43.5941 26.2052 43.109Z" fill="white"/>
</svg>
