<svg width="600" height="382" viewBox="0 0 600 382" fill="none" xmlns="http://www.w3.org/2000/svg">
<path opacity="0.39" d="M581.767 239.189L332.372 14.1655C309.767 -6.2996 274.884 -4.34612 254.698 18.4446L13.9535 290.352C-18.9768 327.561 10.6977 385.886 60.186 381.142L550.326 334.352C597.674 329.793 617.116 271.096 581.767 239.189Z" fill="#27597D"/>
<path d="M363.442 349.607H244.837C237.674 349.607 231.814 343.747 231.814 336.584V153.794C231.814 146.631 237.674 140.77 244.837 140.77H363.349C370.512 140.77 376.372 146.631 376.372 153.794V336.491C376.465 343.654 370.605 349.607 363.442 349.607Z" fill="#C19CE8"/>
<path d="M408.744 205.235L460.837 262.723C469.023 271.747 469.953 283.84 463.07 289.7C456.186 295.561 443.814 292.956 435.721 283.933L383.628 226.444C378.698 221.049 376.372 214.444 376.837 208.77V208.677C377.116 205.607 378.233 202.816 380.186 200.677C380.558 200.305 380.93 199.933 381.395 199.561C384.837 196.677 389.674 195.84 394.605 196.863C395.721 197.142 396.837 197.421 397.953 197.886C401.767 199.281 405.581 201.793 408.744 205.235Z" fill="#914723"/>
<path d="M324.93 349.886L305.023 342.258L304 349.886H324.93Z" fill="#344C9D"/>
<path d="M390.884 349.886L390.047 338.258L389.581 331.003L372.651 335.654L321.023 349.886H390.884Z" fill="#344C9D"/>
<path d="M394.512 349.886C394.698 348.212 394.884 346.537 395.07 344.863C397.395 322.258 399.256 293.7 402.233 278.723C403.721 271.282 405.395 263.468 406.791 255.654C407.163 253.7 407.535 251.747 407.814 249.793C408.186 247.375 408.558 244.956 408.837 242.537C409.023 241.421 409.116 240.398 409.209 239.282C409.302 238.444 409.395 237.7 409.395 236.863C409.953 229.235 409.86 221.979 408.465 215.189C408 213.142 407.442 211.096 406.791 209.142C403.163 199.096 395.907 190.723 382.605 185.421C382.512 185.421 382.326 185.328 382.233 185.328C382.047 185.235 381.953 185.235 381.767 185.142C380.372 184.584 378.884 184.119 377.302 183.654C376 183.282 374.605 182.91 373.302 182.63C371.907 182.351 370.512 182.072 369.116 181.886C365.86 181.421 362.605 181.421 359.535 181.7C356.186 181.979 352.93 182.723 349.953 183.747C349.209 183.933 348.558 184.212 347.814 184.491C346.884 184.863 345.953 185.328 345.116 185.793C344 186.351 342.884 187.096 341.86 187.747C339.907 189.049 338.14 190.63 336.558 192.305C333.209 196.026 330.884 200.491 329.86 205.793C329.023 208.677 327.721 214.444 326.14 221.979C325.767 223.933 325.302 226.072 324.837 228.305C324.093 232.119 323.256 236.305 322.419 240.77C321.767 244.119 321.116 247.654 320.372 251.282C320 253.235 319.628 255.189 319.256 257.142C318.512 261.049 317.767 265.049 317.023 269.049C315.814 275.654 314.512 282.444 313.302 289.235C309.209 311.747 305.209 334.165 302.419 349.886H394.512Z" fill="#FF4040"/>
<path d="M377.395 165.979C377.302 164.77 377.116 163.468 376.93 162.166L368.93 162.631C369.023 163.468 369.023 164.212 369.116 164.956C371.907 165.235 374.698 165.607 377.395 165.979Z" fill="#F9FAFB"/>
<path d="M348.837 349.887C362.512 341.607 371.535 326.538 371.256 309.514L369.116 181.793C365.86 181.328 362.605 181.328 359.535 181.607C356.186 181.887 352.93 182.631 349.954 183.654C349.209 183.84 348.558 184.119 347.814 184.398C346.884 184.77 345.953 185.235 345.116 185.7C344 186.259 342.884 187.003 341.86 187.654C339.907 188.956 338.14 190.538 336.558 192.212C333.209 195.933 330.884 200.398 329.86 205.7C329.023 208.584 327.721 214.352 326.14 221.887C325.767 223.84 325.302 225.98 324.837 228.212C324.093 232.026 323.256 236.212 322.419 240.677C321.767 244.026 321.116 247.561 320.372 251.189C320 253.142 319.628 255.096 319.256 257.049C318.512 260.956 317.767 264.956 317.023 268.956C315.814 275.561 314.512 282.352 313.302 289.142C309.209 311.654 305.209 334.073 302.419 349.794H348.837V349.887Z" fill="#69311C"/>
<path d="M390.233 349.886H395.628C397.954 326.444 399.907 297.886 402.884 282.537C404.372 274.63 406.233 266.351 407.721 258.072C408.093 256.026 408.465 253.886 408.837 251.84C409.209 249.235 409.581 246.723 409.86 244.212C410.047 243.095 410.14 241.886 410.233 240.77C410.326 239.933 410.419 239.095 410.419 238.258C411.07 230.258 410.884 222.444 409.395 215.375C408.93 213.142 408.372 211.095 407.628 208.956C403.814 198.258 396.186 189.514 382.326 183.84C382.233 183.84 382.047 183.747 381.954 183.654C380 187.002 378.884 190.816 378.977 194.909L381.302 332.677C381.395 339.84 384.93 346.072 390.233 349.886Z" fill="#69311C"/>
<path d="M377.953 170.817C377.767 168.677 377.488 165.514 377.023 162.166L369.023 162.631C369.209 164.677 369.302 166.538 369.395 167.933C369.953 176.026 368.837 183.189 366.977 188.956C366.977 189.142 367.07 189.328 367.07 189.514C369.023 185.7 371.535 183.375 374.419 183.189C377.302 183.003 380.186 185.049 382.791 188.77C379.721 181.979 378.233 174.445 377.953 170.817Z" fill="#F4A388"/>
<path d="M375.814 199.468C374.977 199.468 374.14 199.468 373.302 199.282H373.209C369.302 198.444 366.233 195.282 365.953 191.375C365.767 189.142 366.512 187.096 367.907 185.514C369.209 184.026 371.07 182.91 373.209 182.444C373.581 182.351 374.047 182.351 374.512 182.258C376.93 182.072 379.256 182.91 381.023 184.305C381.395 184.584 381.767 184.956 382.14 185.328C383.442 186.724 384.186 188.398 384.372 190.351C384.651 195.096 380.837 199.189 375.814 199.468Z" fill="#F4A388"/>
<path d="M473.116 283.933L453.581 223.375L443.349 222.91L440.372 290.352C440.186 291.84 440.093 293.421 440.186 294.91C440.837 305.793 449.209 313.979 458.977 313.235C468.744 312.491 476.093 303.096 475.442 292.305C475.163 289.328 474.419 286.445 473.116 283.933Z" fill="#723B27"/>
<path d="M379.535 135.561L371.814 140.398C371.256 140.77 370.419 140.584 369.954 140.026L369.581 139.468C369.209 138.91 369.302 138.165 369.954 137.793L377.674 132.956C378.233 132.584 379.07 132.77 379.535 133.328L379.907 133.886C380.279 134.351 380.093 135.189 379.535 135.561Z" fill="#D19730"/>
<path d="M396.279 156.026L395.349 156.119C393.395 156.212 391.628 154.817 391.442 152.956L390.977 146.445C390.791 144.584 392.372 143.003 394.326 142.817L395.256 142.724C397.209 142.631 398.977 144.026 399.163 145.886L399.628 152.398C399.814 154.352 398.326 155.933 396.279 156.026Z" fill="#F4A388"/>
<path d="M365.581 158.259L364.651 158.352C362.698 158.445 360.93 157.049 360.744 155.189L360.279 148.677C360.093 146.817 361.674 145.235 363.628 145.049L364.558 144.956C366.512 144.863 368.279 146.259 368.465 148.119L368.93 154.631C369.116 156.491 367.535 158.166 365.581 158.259Z" fill="#F4A388"/>
<path d="M386.605 171.933C378.977 173.7 369.209 169.979 367.535 160.863L365.488 133.607C364.93 126.351 370.884 119.933 378.698 119.561C386.512 119.095 393.302 124.77 393.86 132.026C393.86 132.026 395.907 159.189 395.907 159.282C396.465 166.444 392.093 170.63 386.605 171.933Z" fill="#EBC39B"/>
<path d="M386.605 171.933C378.977 173.7 369.209 169.979 367.535 160.863L365.488 133.607C364.93 126.351 370.884 119.933 378.698 119.561C386.512 119.095 393.302 124.77 393.86 132.026C393.86 132.026 395.907 159.189 395.907 159.282C396.465 166.444 392.093 170.63 386.605 171.933Z" fill="#F4A388"/>
<path d="M365.767 137.421H394.233C393.954 134.165 393.86 131.933 393.86 131.933C393.302 124.677 386.512 119.002 378.698 119.468C370.884 119.933 364.93 126.258 365.488 133.514L365.767 137.421Z" fill="#5B2591"/>
<path d="M395.442 153.142H366.977L367.535 160.863C369.209 169.98 378.977 173.7 386.605 171.933C392.093 170.631 396.465 166.445 395.907 159.282C395.907 159.189 395.721 156.677 395.442 153.142Z" fill="#011625"/>
<path d="M380.186 155.84C380.93 158.817 383.256 160.956 385.953 160.77C388.651 160.584 390.791 158.165 391.07 155.096L380.186 155.84Z" fill="#F9FAFB"/>
<path d="M338.512 218.724L302.977 277.049C297.395 286.165 287.163 289.979 280.093 285.421C273.116 280.863 271.907 269.7 277.488 260.584L313.023 202.258C316.372 196.77 321.488 193.235 326.512 192.212H326.605C329.395 191.747 332.093 191.933 334.512 193.142C334.977 193.328 335.442 193.607 335.814 193.886C339.349 196.119 341.395 200.119 341.86 204.584C341.953 205.607 341.953 206.631 341.953 207.654C341.86 211.375 340.651 215.189 338.512 218.724Z" fill="#723B27"/>
<path d="M301.581 259.56C292.558 253.886 281.023 255.84 275.814 264.026C270.605 272.212 273.767 283.467 282.884 289.142C285.488 290.723 288.186 291.747 290.977 292.119V292.212L349.209 309.607L354.326 301.514L305.116 262.351C304 261.328 302.884 260.398 301.581 259.56Z" fill="#914723"/>
<path d="M351.07 298.817L347.07 309.235L373.86 322.724L392.465 321.049L394.977 313.421L376.837 309.886L364.186 301.328L372.744 300.584L383.907 304.677L386.14 300.863L369.953 294.073L351.07 298.817Z" fill="#F4A388"/>
<path d="M369.023 170.817L351.349 193.049L359.628 201.049L348 215.375L369.767 254.072L369.023 170.817Z" fill="#011625"/>
<path d="M379.256 176.77L396.93 199.003L388.651 207.003L400.372 221.235L380.372 253.607L379.256 176.77Z" fill="#011625"/>
<path d="M358.512 193.049C359.488 193.049 360.279 192.258 360.279 191.282C360.279 190.305 359.488 189.514 358.512 189.514C357.536 189.514 356.744 190.305 356.744 191.282C356.744 192.258 357.536 193.049 358.512 193.049Z" fill="#F9FAFB"/>
<path d="M355.628 218.259C356.604 218.259 357.395 217.467 357.395 216.491C357.395 215.515 356.604 214.724 355.628 214.724C354.652 214.724 353.86 215.515 353.86 216.491C353.86 217.467 354.652 218.259 355.628 218.259Z" fill="#F9FAFB"/>
<path d="M390.977 199.374C391.953 199.374 392.744 198.583 392.744 197.607C392.744 196.631 391.953 195.84 390.977 195.84C390.001 195.84 389.209 196.631 389.209 197.607C389.209 198.583 390.001 199.374 390.977 199.374Z" fill="#F9FAFB"/>
<path d="M396.651 222.352C396.651 223.282 395.907 224.119 394.884 224.119C393.953 224.119 393.116 223.375 393.116 222.352C393.116 221.421 393.86 220.584 394.884 220.584C395.907 220.584 396.651 221.328 396.651 222.352Z" fill="#F9FAFB"/>
<path d="M445.767 235.561L456.93 235.84L460.651 206.072L452.744 189.049L444.744 189.328L447.535 207.561L443.721 222.351L440.093 214.63L440.186 202.723L435.907 201.793L434.977 219.375L445.767 235.561Z" fill="#F4A388"/>
<path d="M404.465 137.421H356.372C355.442 137.421 354.791 136.677 354.791 135.84C354.791 134.91 355.535 134.259 356.372 134.259H404.465C405.395 134.259 406.046 135.003 406.046 135.84C406.046 136.77 405.395 137.421 404.465 137.421Z" fill="#5B2591"/>
<path d="M556.744 340.398H36.9302C34.0465 340.398 31.7209 342.724 31.7209 345.608C31.7209 348.491 34.0465 350.817 36.9302 350.817H556.651C559.535 350.817 561.86 348.491 561.86 345.608C561.953 342.724 559.628 340.398 556.744 340.398Z" fill="#011625"/>
<path d="M244.651 340.398H105.581C97.4884 340.398 90.7907 333.793 90.7907 325.607V126.258C90.7907 118.165 97.3954 111.468 105.581 111.468H244.651C252.744 111.468 259.442 118.072 259.442 126.258V325.607C259.442 333.793 252.744 340.398 244.651 340.398Z" fill="#FF8F8F"/>
<path d="M148.279 340.119V249.142C148.279 244.956 144.837 241.421 140.558 241.421C136.279 241.421 132.837 244.863 132.837 249.142V340.119H148.279Z" fill="#F48669"/>
<path d="M225.954 340.398C218.605 322.631 201.581 310.166 181.674 310.166C178.14 310.166 174.698 310.538 171.442 311.282V310.166C169.581 311.003 167.721 311.933 165.954 312.863C153.116 317.421 142.698 327.561 137.488 340.398H225.954Z" fill="#1C231D"/>
<path d="M176.465 340.398C174.419 334.91 171.349 329.607 167.07 323.933C164 319.84 162.233 316.863 156.744 318.072C143.349 320.956 133.581 329.607 127.256 340.398H176.465Z" fill="#825851"/>
<path d="M230.512 340.398C224.837 331.654 216.93 324.956 206.605 322.445C201.674 321.328 200.186 324.119 197.395 328.212C194.512 332.398 192.372 336.398 190.605 340.305H230.512V340.398Z" fill="#825851"/>
<path d="M259.907 171.747C259.907 171.654 259.907 171.654 259.907 171.654C259.907 171.561 259.907 171.561 259.907 171.468C259.907 166.072 256.279 161.421 251.349 159.933C255.535 156.863 257.395 151.375 255.628 146.258C253.86 141.142 248.93 137.979 243.814 138.165C246.791 133.886 246.791 128.119 243.349 123.84C240 119.561 234.326 118.165 229.488 120.026C230.884 115.095 229.023 109.514 224.465 106.63C219.907 103.654 214.046 104.212 210.14 107.468C209.86 102.351 206.233 97.7001 201.023 96.3978C195.721 95.0955 190.419 97.4211 187.814 101.886C185.86 97.142 181.023 93.8862 175.628 94.3513C170.233 94.8164 165.953 98.8164 164.837 103.84C161.488 99.9327 155.814 98.4443 150.791 100.677C145.86 102.909 143.07 108.026 143.721 113.142C139.256 110.537 133.488 111.002 129.488 114.723C125.488 118.444 124.558 124.212 126.791 128.863C121.767 127.84 116.372 130.165 113.767 135.002C111.163 139.84 112.186 145.514 115.814 149.235C110.698 149.886 106.419 153.886 105.488 159.282C104.651 164.677 107.442 169.7 112 172.026C107.349 174.351 104.651 179.468 105.488 184.77C106.419 190.165 110.698 194.072 115.814 194.723C112.186 198.444 111.256 204.212 113.86 208.956C116.465 213.7 121.767 216.026 126.884 215.002C124.651 219.654 125.581 225.421 129.581 229.049C133.581 232.77 139.349 233.235 143.814 230.537C143.256 235.654 145.953 240.77 150.977 243.002C156 245.142 161.581 243.747 164.93 239.84C166.047 244.863 170.326 248.863 175.721 249.328C176 249.328 176.372 249.328 176.651 249.328C181.674 249.328 186.046 246.258 187.814 241.7C190.512 246.165 195.814 248.491 201.116 247.189C206.419 245.886 209.953 241.235 210.233 236.026C214.233 239.375 220 239.84 224.558 236.863C229.116 233.886 230.977 228.398 229.581 223.375C234.419 225.235 240.093 223.747 243.349 219.468C246.698 215.188 246.698 209.328 243.721 205.142C248.93 205.328 253.767 202.165 255.535 197.049C257.302 191.933 255.349 186.351 251.163 183.375C256.372 181.793 259.907 177.235 259.907 171.747Z" fill="#011625"/>
<path d="M173.302 305.235C174.14 302.816 174.419 300.212 174.14 297.607H188.465C186.884 307.933 190.977 312.026 195.163 312.956L166.233 314.816C171.256 312.305 172.93 308.584 173.302 305.235Z" fill="#FAB780"/>
<path d="M185.488 190.724L173.023 190.352C173.023 190.538 173.023 190.724 172.93 190.91C175.907 198.445 176 206.631 175.814 214.259C175.628 220.491 174.326 226.538 170.791 232.026C170.233 232.491 170.512 239.747 180 240.026C189.953 240.398 193.674 235.096 193.953 235.189C183.628 221.7 179.349 205.514 185.488 190.724Z" fill="#F48669"/>
<path d="M153.767 269.979C156.465 279.747 164.93 282.351 169.395 288.305C169.674 288.212 169.953 288.305 170.233 288.584C170.977 289.421 171.721 290.352 172.279 291.375C173.395 293.328 174.047 295.561 174.233 297.886C178.698 298.258 184.372 297.886 188.558 297.7C189.023 295.003 190.605 292.584 192.744 290.445C195.907 287.096 200.186 284.398 203.07 281.886C210.884 275.375 216.465 265.049 217.86 254.445C218.419 250.445 217.581 247.654 216 245.607C212.744 241.421 206.14 239.933 200.186 237.514C196.651 236.026 193.302 234.258 190.977 231.375C185.023 233.421 176.93 233.7 171.256 231.468C168.837 236.491 157.488 238.538 153.395 241.979C147.163 247.189 151.535 261.979 153.767 269.979Z" fill="#FF4040"/>
<path d="M184.093 177.793C186.791 176.212 189.953 176.956 191.442 179.84" stroke="#3C1212" stroke-width="2.1597" stroke-miterlimit="10" stroke-linecap="round" stroke-linejoin="round"/>
<path d="M170.512 176.677C167.814 175.095 164.651 175.84 163.163 178.723" stroke="#3C1212" stroke-width="2.1597" stroke-miterlimit="10" stroke-linecap="round" stroke-linejoin="round"/>
<path opacity="0.32" d="M193.581 192.119C193.581 193.979 192.093 195.561 190.14 195.561C188.279 195.561 186.698 194.072 186.698 192.119C186.698 190.258 188.186 188.677 190.14 188.677C192.093 188.677 193.581 190.165 193.581 192.119Z" fill="#C68261"/>
<path d="M158.791 180.77C158.884 181.886 158.884 182.909 158.884 184.026C159.07 188.119 159.07 192.212 159.163 196.212C159.163 196.491 159.163 196.77 159.256 197.049C159.535 199.561 160.837 201.793 162.884 203.654C163.349 204.119 163.907 204.491 164.465 204.956C168 207.468 173.023 209.049 178.512 208.956L181.767 208.863C186.698 208.77 191.535 207.282 195.163 203.84C195.535 203.468 195.907 203.096 196.279 202.723C196.651 202.351 196.93 201.886 197.209 201.514C197.767 200.77 198.233 199.933 198.605 199.096C198.884 198.537 199.07 197.979 199.256 197.421C199.349 197.049 199.535 196.584 199.628 196.212C200.186 193.793 200.372 191.375 200.279 188.77C200.279 188.677 200.279 188.584 200.279 188.491V187.747C200.186 185.793 200.093 183.933 200.093 181.979C200.093 181.142 200.093 180.398 200.093 179.654C200.186 174.63 199.907 168.863 196.093 165.049C195.721 164.677 195.349 164.305 194.884 163.933C191.07 160.956 185.674 159.933 180.93 160.026L177.674 160.119C177.302 160.119 176.93 160.119 176.465 160.212C176.093 160.212 175.628 160.305 175.256 160.305C174.884 160.305 174.419 160.398 174.047 160.491C173.209 160.584 172.465 160.77 171.628 160.956C167.256 162.072 163.07 164.305 160.558 168.026C159.442 169.7 158.977 171.654 158.698 173.607C158.419 176.026 158.698 178.537 158.791 180.77Z" fill="#F48669"/>
<path d="M186.698 198.259C186.326 201.421 183.628 203.933 180.372 203.933C177.116 203.933 174.419 201.421 174.047 198.259H186.698Z" fill="white"/>
<path d="M152.93 324.026C151.535 330.165 148.837 335.282 146.14 340.398H219.256C215.163 332.119 208.279 323.933 206.326 314.724C203.349 300.491 214.791 280.212 214.605 271.096L167.256 239.468C139.442 241.979 146.512 270.072 152.372 291.375C155.256 301.793 155.442 312.491 152.93 324.026Z" fill="#FF4040"/>
<path d="M151.535 227.654C148.651 224.212 144.186 221.887 139.721 222.352C135.256 222.817 131.163 226.724 131.256 231.282C131.349 234.259 133.116 236.863 134.419 239.561C135.721 242.259 136.372 245.7 134.419 248.026C132.744 249.98 129.86 250.352 127.628 251.654C124.093 253.7 122.698 258.631 124.465 262.259C126.233 265.887 130.977 267.747 134.791 266.259C132.93 270.166 132.093 274.724 133.395 278.817C134.698 282.91 138.512 286.352 142.791 286.352C147.442 286.352 151.163 282.631 154.233 279.096C154.884 278.259 155.628 277.421 155.907 276.398C156.186 275.282 155.907 274.166 155.628 273.142C153.86 265.328 152 255.282 154.14 247.468C156 240.119 156.93 233.98 151.535 227.654Z" fill="#FF4040"/>
<path d="M175.256 340.398H187.163L194.233 334.909C196.837 332.863 197.302 329.049 195.256 326.444L194.047 324.956C192 322.351 188.186 321.886 185.581 323.933L175.907 331.468C173.302 333.514 172.837 337.328 174.884 339.933L175.256 340.398Z" fill="#7E4529"/>
<path d="M174.14 340.398L175.721 339.188C176.279 338.816 176.372 337.979 175.907 337.514C175.442 337.049 174.698 336.863 174.233 337.328L170.233 340.491H174.14V340.398Z" fill="#7E4529"/>
<path d="M168.186 340.398L178.884 332.119C179.442 331.747 179.535 330.91 179.07 330.445C178.698 329.886 177.86 329.793 177.395 330.258L164.279 340.491H168.186V340.398Z" fill="#7E4529"/>
<path d="M181.581 331.188C183.721 326.351 176.186 329.049 174.047 329.979C171.07 331.188 167.907 333.793 165.023 331.933C169.674 329.328 174.791 327.281 179.535 324.956C182.791 323.375 188.837 320.677 191.721 323.747" fill="#7E4529"/>
<path d="M230.14 340.398C228.093 326.538 215.256 315.747 199.721 315.747H163.535C148 315.747 135.163 326.538 133.116 340.398H230.14Z" fill="#825851"/>
<path d="M225.954 340.119V249.142C225.954 244.956 222.512 241.421 218.233 241.421C214.047 241.421 210.512 244.863 210.512 249.142V340.119H225.954Z" fill="#F48669"/>
<path d="M194.233 238.351C197.674 240.119 201.953 238.537 204.837 235.933C207.721 233.328 209.581 229.793 212.093 226.909C214.605 223.933 218.233 221.421 222.046 221.979C226.605 222.537 229.581 227.002 231.442 231.188C232.651 233.886 233.581 237.328 231.907 239.747C230.977 241.142 229.302 241.979 228 243.095C226.698 244.212 225.581 245.979 226.326 247.56C226.977 249.049 228.93 249.514 230.326 250.537C232.093 251.933 232.651 254.444 231.907 256.584C231.163 258.63 229.116 260.212 226.977 260.677C224.93 261.142 222.14 260.956 221.302 262.909C220.186 265.235 223.07 267.374 224.279 269.7C225.674 272.398 224.744 275.933 222.512 277.886C220.279 279.933 217.023 280.584 214.047 280.305C211.628 280.119 209.116 279.188 207.721 277.142C206.419 275.095 206.605 272.398 206.605 269.979C206.791 260.491 203.349 250.909 197.209 243.56" fill="#FF4040"/>
<path d="M533.861 340.398H400.186C397.581 340.398 395.442 338.258 395.442 335.654C395.442 333.049 397.581 330.91 400.186 330.91H533.954C536.558 330.91 538.698 333.049 538.698 335.654C538.605 338.258 536.465 340.398 533.861 340.398Z" fill="#B3ABD4"/>
<path d="M524.372 340.584H439.814C433.209 340.584 429.023 335.189 430.512 328.398L442.698 274.724C444.186 268.026 450.884 262.631 457.488 262.631H542.047C548.651 262.631 552.837 268.026 551.349 274.817L538.605 335.747C537.116 342.445 530.977 340.584 524.372 340.584Z" fill="#D5D2E9"/>
<path d="M496.372 305.514C499.352 305.514 501.767 303.099 501.767 300.119C501.767 297.139 499.352 294.724 496.372 294.724C493.392 294.724 490.977 297.139 490.977 300.119C490.977 303.099 493.392 305.514 496.372 305.514Z" stroke="#786991" stroke-width="2.2735" stroke-miterlimit="10"/>
<path d="M127.907 130.817C127.256 130.817 126.512 130.631 125.953 130.166L100 110.259H15.907C7.16279 110.259 0 103.189 0 94.3516V73.6074C0 64.8632 7.06977 57.7004 15.907 57.7004H115.349C124.093 57.7004 131.256 64.7702 131.256 73.6074V127.561C131.256 128.77 130.605 129.886 129.488 130.445C128.93 130.724 128.465 130.817 127.907 130.817ZM15.907 64.119C10.6977 64.119 6.4186 68.3981 6.4186 73.6074V94.3516C6.4186 99.5609 10.6977 103.84 15.907 103.84H101.209C101.953 103.84 102.605 104.026 103.163 104.491L124.837 121.142V73.6074C124.837 68.3981 120.558 64.119 115.349 64.119H15.907V64.119Z" fill="#FF4040"/>
<path d="M99.907 85.8862C99.907 88.0258 101.581 89.7002 103.721 89.7002C105.86 89.7002 107.535 88.0258 107.535 85.8862C107.535 83.7467 105.86 82.0723 103.721 82.0723C101.674 82.0723 99.907 83.7467 99.907 85.8862Z" fill="#FF4040"/>
<path d="M74.5116 85.8862C74.5116 88.0258 76.186 89.7002 78.3256 89.7002C80.4651 89.7002 82.1395 88.0258 82.1395 85.8862C82.1395 83.7467 80.4651 82.0723 78.3256 82.0723C76.186 82.0723 74.5116 83.7467 74.5116 85.8862Z" fill="#FF4040"/>
<path d="M49.0233 85.8862C49.0233 88.0258 50.6977 89.7002 52.8372 89.7002C54.9767 89.7002 56.6512 88.0258 56.6512 85.8862C56.6512 83.7467 54.9767 82.0723 52.8372 82.0723C50.6977 82.0723 49.0233 83.7467 49.0233 85.8862Z" fill="#FF4040"/>
<path d="M23.5349 85.8862C23.5349 88.0258 25.2093 89.7002 27.3488 89.7002C29.4884 89.7002 31.1628 88.0258 31.1628 85.8862C31.1628 83.7467 29.4884 82.0723 27.3488 82.0723C25.2093 82.0723 23.5349 83.7467 23.5349 85.8862Z" fill="#FF4040"/>
<path d="M280.372 123.096C279.907 123.096 279.442 123.003 278.977 122.724C277.86 122.166 277.209 121.05 277.209 119.84V65.8867C277.209 57.1425 284.279 49.9797 293.116 49.9797H392.558C401.302 49.9797 408.465 57.0495 408.465 65.8867V86.6309C408.465 95.3751 401.395 102.538 392.558 102.538H308.372L282.419 122.445C281.767 122.91 281.116 123.096 280.372 123.096ZM293.116 56.4914C287.907 56.4914 283.628 60.7704 283.628 65.9797V113.515L305.302 96.8635C305.86 96.3983 306.512 96.2123 307.256 96.2123H392.558C397.767 96.2123 402.047 91.9332 402.047 86.7239V65.9797C402.047 60.7704 397.767 56.4914 392.558 56.4914H293.116Z" fill="#D0D2D3"/>
<path d="M308.465 76.7705C308.465 78.91 306.791 80.5844 304.651 80.5844C302.512 80.5844 300.837 78.91 300.837 76.7705C300.837 74.631 302.512 72.9565 304.651 72.9565C306.698 72.9565 308.465 74.631 308.465 76.7705Z" fill="#D0D2D3"/>
<path d="M333.86 76.7705C333.86 78.91 332.186 80.5844 330.047 80.5844C327.907 80.5844 326.233 78.91 326.233 76.7705C326.233 74.631 327.907 72.9565 330.047 72.9565C332.186 72.9565 333.86 74.631 333.86 76.7705Z" fill="#D0D2D3"/>
<path d="M359.349 76.7705C359.349 78.91 357.674 80.5844 355.535 80.5844C353.395 80.5844 351.721 78.91 351.721 76.7705C351.721 74.631 353.395 72.9565 355.535 72.9565C357.674 72.9565 359.349 74.631 359.349 76.7705Z" fill="#D0D2D3"/>
<path d="M384.744 76.7705C384.744 78.91 383.07 80.5844 380.93 80.5844C378.791 80.5844 377.116 78.91 377.116 76.7705C377.116 74.631 378.791 72.9565 380.93 72.9565C383.07 72.9565 384.744 74.631 384.744 76.7705Z" fill="#D0D2D3"/>
<path d="M471.907 232.398C471.442 232.398 470.977 232.305 470.512 232.026C469.395 231.468 468.744 230.352 468.744 229.142V175.189C468.744 166.445 475.814 159.282 484.651 159.282H584.093C592.837 159.282 600 166.352 600 175.189V195.933C600 204.677 592.93 211.84 584.093 211.84H499.907L473.954 231.747C473.302 232.119 472.651 232.398 471.907 232.398ZM484.651 165.701C479.442 165.701 475.163 169.98 475.163 175.189V222.724L496.837 206.073C497.395 205.608 498.047 205.422 498.791 205.422H584.093C589.302 205.422 593.581 201.142 593.581 195.933V175.189C593.581 169.98 589.302 165.701 584.093 165.701H484.651Z" fill="#F7F7F7"/>
<path d="M496.186 189.886C498.293 189.886 500 188.179 500 186.073C500 183.966 498.293 182.259 496.186 182.259C494.08 182.259 492.372 183.966 492.372 186.073C492.372 188.179 494.08 189.886 496.186 189.886Z" fill="#F7F7F7"/>
<path d="M525.395 186.073C525.395 188.212 523.721 189.886 521.581 189.886C519.442 189.886 517.767 188.212 517.767 186.073C517.767 183.933 519.442 182.259 521.581 182.259C523.721 182.259 525.395 183.933 525.395 186.073Z" fill="#F7F7F7"/>
<path d="M550.884 186.073C550.884 188.212 549.209 189.886 547.07 189.886C544.93 189.886 543.256 188.212 543.256 186.073C543.256 183.933 544.93 182.259 547.07 182.259C549.116 182.259 550.884 183.933 550.884 186.073Z" fill="#F7F7F7"/>
<path d="M572.465 189.886C574.572 189.886 576.279 188.179 576.279 186.073C576.279 183.966 574.572 182.259 572.465 182.259C570.359 182.259 568.651 183.966 568.651 186.073C568.651 188.179 570.359 189.886 572.465 189.886Z" fill="#F7F7F7"/>
<path d="M221.395 272.863C221.116 266.165 217.209 258.723 221.209 253.328C224.651 248.77 232.093 248.584 235.07 243.747C237.209 240.212 236.093 235.747 235.628 231.654C234.791 224.026 237.86 214.723 245.302 212.863C250.14 211.654 255.442 214.258 257.86 218.63C260.279 223.002 259.721 228.584 256.93 232.677C253.023 238.444 244.93 241.607 243.721 248.491C242.977 253.049 245.488 258.537 242.326 261.886C239.535 264.863 233.86 264.026 231.814 267.561C230.14 270.351 231.907 273.886 232.279 277.142C232.651 280.77 230.698 284.77 227.256 285.886C218.14 288.584 221.581 276.863 221.395 272.863Z" fill="#159A86"/>
<path d="M205.116 217.142C204.093 221.793 207.163 226.259 209.581 230.352C212 234.445 213.953 239.933 210.977 243.654C209.023 246.165 205.488 246.91 202.698 248.584C198.605 251.003 195.907 255.747 196 260.584C196.093 265.328 198.977 269.979 203.163 272.212C208.093 274.817 215.535 275.375 216.651 280.863C217.488 285.049 213.488 288.584 212.372 292.677C210.977 297.514 214.233 303.096 219.07 304.677C223.907 306.259 229.488 304.119 232.372 299.933C235.256 295.747 235.256 289.979 232.93 285.514C230.884 281.607 227.163 278.352 226.698 273.886C225.767 264.491 240.279 258.817 239.163 249.421C238.605 244.77 234.326 241.514 230.233 239.189C228.372 238.165 226.326 236.956 225.953 234.91C225.395 232.212 228.093 230.072 229.767 227.84C232.465 224.212 232.837 219.096 230.698 215.096C225.953 206.072 207.628 205.886 205.116 217.142Z" fill="#4DC1C2"/>
<path d="M218.791 293.608C219.07 286.91 222.977 279.468 218.977 274.073C215.535 269.515 208.093 269.328 205.116 264.491C202.977 260.956 204.093 256.491 204.558 252.398C205.395 244.77 202.326 235.468 194.884 233.608C190.047 232.398 184.744 235.003 182.326 239.375C179.907 243.747 180.465 249.329 183.256 253.422C187.163 259.189 195.256 262.352 196.465 269.235C197.209 273.794 194.698 279.282 197.86 282.631C200.651 285.608 206.326 284.77 208.372 288.305C210.047 291.096 208.279 294.631 207.907 297.887C207.535 301.515 209.488 305.515 212.93 306.631C222.047 309.329 218.605 297.608 218.791 293.608Z" fill="#159A86"/>
<path d="M201.86 296.026V328.119C201.86 335.096 207.535 340.77 214.512 340.77H229.488C236.465 340.77 242.14 335.096 242.14 328.119V296.026H201.86Z" fill="#E8E7C3"/>
<path d="M53.2093 340.398H186.977C189.581 340.398 191.721 338.258 191.721 335.654C191.721 333.049 189.581 330.91 186.977 330.91H53.2093C50.6046 330.91 48.4651 333.049 48.4651 335.654C48.5581 338.258 50.6977 340.398 53.2093 340.398Z" fill="#B3ABD4"/>
<path d="M62.7907 340.584H147.349C153.953 340.584 158.14 335.189 156.651 328.398L144.465 274.724C142.977 268.026 136.279 262.631 129.674 262.631H45.1163C38.5116 262.631 34.3256 268.026 35.814 274.817L48.5581 335.84C50.0465 342.445 56.186 340.584 62.7907 340.584Z" fill="#D5D2E9"/>
<path d="M90.7907 305.514C93.7705 305.514 96.1861 303.099 96.1861 300.119C96.1861 297.139 93.7705 294.724 90.7907 294.724C87.8109 294.724 85.3954 297.139 85.3954 300.119C85.3954 303.099 87.8109 305.514 90.7907 305.514Z" stroke="#786991" stroke-width="2.2735" stroke-miterlimit="10"/>
</svg>
