<svg width="518" height="320" viewBox="0 0 518 320" fill="none" xmlns="http://www.w3.org/2000/svg">
<path d="M459.907 219.926H441.007C439.465 219.926 438.202 218.663 438.202 217.12C438.202 215.578 439.465 214.315 441.007 214.315H457.102V157.37C457.102 155.828 458.364 154.565 459.907 154.565C461.45 154.565 462.713 155.828 462.713 157.37V217.12C462.713 218.663 461.485 219.926 459.907 219.926Z" fill="#27597D"/>
<path d="M382.66 192.049C381.117 192.049 379.855 190.787 379.855 189.244V127.565C379.855 126.022 381.117 124.76 382.66 124.76H435.117C436.659 124.76 437.922 126.022 437.922 127.565C437.922 129.108 436.659 130.37 435.117 130.37H385.465V189.244C385.465 190.822 384.238 192.049 382.66 192.049Z" fill="#27597D"/>
<path d="M459.907 157.37H435.152V127.565L459.907 157.37Z" fill="#011625"/>
<path d="M459.978 160.175C459.978 160.175 459.943 160.175 459.907 160.175H435.117C433.574 160.175 432.312 158.913 432.312 157.37V127.565C432.312 126.373 433.048 125.321 434.17 124.935C435.292 124.55 436.519 124.865 437.291 125.777L461.731 155.196C462.362 155.722 462.783 156.493 462.783 157.37C462.783 158.948 461.52 160.175 459.978 160.175ZM437.957 154.565H453.946L437.957 135.314V154.565Z" fill="#27597D"/>
<path d="M480.631 135.069V194.819H403.383V105.264H455.875L480.631 135.069Z" fill="#011625"/>
<path d="M480.631 197.624H403.383C401.84 197.624 400.578 196.362 400.578 194.819V105.264C400.578 103.721 401.84 102.459 403.383 102.459H455.84C457.383 102.459 458.645 103.721 458.645 105.264C458.645 106.807 457.383 108.069 455.84 108.069H406.188V192.014H477.826V135.069C477.826 133.526 479.088 132.264 480.631 132.264C482.174 132.264 483.436 133.526 483.436 135.069V194.819C483.436 196.362 482.209 197.624 480.631 197.624Z" fill="#FF4040"/>
<path d="M480.631 135.069H455.875V105.264L480.631 135.069Z" fill="#011625"/>
<path d="M480.7 137.874C480.7 137.874 480.665 137.874 480.63 137.874H455.84C454.297 137.874 453.034 136.612 453.034 135.069V105.264C453.034 104.072 453.771 103.02 454.893 102.634C456.015 102.248 457.242 102.564 458.014 103.476L482.489 132.895C483.12 133.421 483.541 134.192 483.541 135.069C483.506 136.612 482.278 137.874 480.7 137.874ZM458.68 132.264H474.669L458.68 113.048V132.264Z" fill="#FF4040"/>
<path d="M263.511 80.9639H248.433V15.9892C249.66 -1.61326 262.284 -1.61326 263.511 15.9892V80.9639Z" fill="#011625"/>
<path d="M263.511 83.7694H248.433C246.89 83.7694 245.628 82.5071 245.628 80.9642V15.9895C246.434 4.13763 251.694 0 255.972 0C260.25 0 265.51 4.13763 266.316 15.8141V80.9993C266.316 82.5421 265.054 83.7694 263.511 83.7694ZM251.238 78.1591H260.706V15.9895C260.215 8.90641 257.62 5.61034 255.972 5.61034C254.324 5.61034 251.729 8.90641 251.238 16.1999V78.1591Z" fill="#27597D"/>
<path d="M263.441 39.1676V32.1897C264.704 18.3743 277.292 18.3743 278.589 32.1897C279.781 18.3743 292.44 18.3743 293.632 32.1897C294.894 18.3743 307.482 18.3743 308.78 32.1897V80.9997H248.469V44.7078L263.441 39.1676Z" fill="#011625"/>
<path d="M308.779 83.8049H248.468C246.925 83.8049 245.663 82.5425 245.663 80.9997V44.7078C245.663 43.165 246.925 41.9026 248.468 41.9026C250.011 41.9026 251.273 43.165 251.273 44.7078V78.1945H305.974V32.1897C305.518 27.3157 303.239 24.6508 301.205 24.6508C299.242 24.6508 296.928 27.1054 296.437 32.4352C296.296 33.8728 295.104 34.9949 293.631 34.9949C292.159 34.9949 290.967 33.8728 290.826 32.4352C289.915 22.1963 282.235 22.1963 281.359 32.4352C281.219 33.8728 280.026 34.9949 278.589 34.9949C277.151 34.9949 275.924 33.9079 275.784 32.4352C275.328 27.3157 273.013 24.6508 271.015 24.6508C269.016 24.6508 266.702 27.3157 266.246 32.4352V39.1676C266.246 40.7104 264.984 41.9728 263.441 41.9728C261.898 41.9728 260.636 40.7104 260.636 39.1676V32.1897C261.477 23.0379 266.456 19.0405 271.015 19.0405C273.715 19.0405 276.52 20.408 278.554 23.3534C282.621 17.4626 289.564 17.4626 293.631 23.3534C295.665 20.408 298.505 19.0405 301.17 19.0405C305.729 19.0405 310.708 23.0379 311.549 31.9443V81.0348C311.585 82.5425 310.322 83.8049 308.779 83.8049Z" fill="#27597D"/>
<path d="M308.779 80.9641H248.433V103.02H308.779V80.9641Z" fill="#011625"/>
<path d="M308.779 105.825H248.433C246.89 105.825 245.628 104.562 245.628 103.019V80.9639C245.628 79.421 246.89 78.1587 248.433 78.1587H308.779C310.322 78.1587 311.585 79.421 311.585 80.9639V103.019C311.585 104.562 310.322 105.825 308.779 105.825ZM251.238 100.214H305.974V83.769H251.238V100.214Z" fill="#27597D"/>
<path d="M248.433 235.704C246.89 235.704 245.628 234.442 245.628 232.899V103.16C245.628 101.617 246.89 100.355 248.433 100.355H308.779C310.322 100.355 311.585 101.617 311.585 103.16V191.593C311.585 193.136 310.322 194.398 308.779 194.398C307.237 194.398 305.974 193.136 305.974 191.593V105.965H251.238V232.899C251.238 234.477 249.976 235.704 248.433 235.704Z" fill="#27597D"/>
<path d="M299.312 92.2546C299.312 93.6572 298.19 94.7793 296.787 94.7793C295.384 94.7793 294.262 93.6572 294.262 92.2546C294.262 90.852 295.384 89.73 296.787 89.73C298.19 89.73 299.312 90.852 299.312 92.2546Z" fill="#011625"/>
<path d="M296.787 97.5847C293.842 97.5847 291.457 95.2003 291.457 92.2549C291.457 89.3094 293.842 86.925 296.787 86.925C299.733 86.925 302.117 89.3094 302.117 92.2549C302.117 95.2003 299.733 97.5847 296.787 97.5847Z" fill="#27597D"/>
<path d="M162.209 59.6796L141.731 80.1573L121.253 59.6796L129.178 51.79L141.731 64.3782L154.319 51.79L162.209 59.6796Z" fill="#011625"/>
<path d="M141.731 82.9628C140.995 82.9628 140.293 82.6823 139.732 82.1563L119.255 61.6786C118.168 60.5916 118.168 58.8033 119.255 57.7163L127.144 49.8268C128.196 48.7748 130.054 48.7748 131.106 49.8268L141.696 60.4163L152.285 49.8268C152.811 49.3008 153.513 49.0203 154.284 49.0203C155.02 49.0203 155.757 49.3008 156.283 49.8268L164.172 57.7163C165.259 58.8033 165.259 60.5916 164.172 61.6786L143.695 82.1563C143.169 82.6823 142.467 82.9628 141.731 82.9628ZM125.216 59.6799L141.731 76.1953L158.246 59.6799L154.319 55.7527L143.73 66.3422C142.678 67.3941 140.819 67.3941 139.767 66.3422L129.178 55.7527L125.216 59.6799Z" fill="#27597D"/>
<path d="M162.209 91.2378L141.731 111.716L121.253 91.2378L129.178 83.3132L141.731 95.9014L154.319 83.3132L162.209 91.2378Z" fill="#011625"/>
<path d="M141.731 114.521C140.995 114.521 140.293 114.24 139.732 113.714L119.255 93.2363C118.729 92.7104 118.448 92.0091 118.448 91.2377C118.448 90.4662 118.729 89.7649 119.255 89.239L127.144 81.3494C128.231 80.2624 130.019 80.2624 131.106 81.3494L141.696 91.9389L152.285 81.3494C153.337 80.2975 155.196 80.2975 156.248 81.3494L164.137 89.239C164.663 89.7649 164.944 90.4662 164.944 91.2377C164.944 92.0091 164.663 92.7104 164.137 93.2363L143.66 113.714C143.169 114.24 142.467 114.521 141.731 114.521ZM125.216 91.2377L141.731 107.753L158.246 91.2377L154.319 87.3104L143.73 97.8999C142.678 98.9519 140.819 98.9519 139.767 97.8999L129.178 87.3104L125.216 91.2377Z" fill="#27597D"/>
<path d="M276.871 131.913H212.422V196.362H276.871V131.913Z" fill="#011625"/>
<path d="M276.87 199.167H212.421C210.879 199.167 209.616 197.904 209.616 196.362V131.913C209.616 130.37 210.879 129.108 212.421 129.108H276.87C278.413 129.108 279.675 130.37 279.675 131.913V196.362C279.675 197.904 278.448 199.167 276.87 199.167ZM215.227 193.556H274.065V134.718H215.227V193.556Z" fill="#F5B44E"/>
<path d="M233.075 144.711H225.115V152.671H233.075V144.711Z" fill="#F5B44E"/>
<path d="M233.075 155.476H225.115C223.572 155.476 222.31 154.214 222.31 152.671V144.711C222.31 143.168 223.572 141.906 225.115 141.906H233.075C234.618 141.906 235.88 143.168 235.88 144.711V152.671C235.88 154.249 234.653 155.476 233.075 155.476ZM227.92 149.866H230.27V147.516H227.92V149.866Z" fill="#F5B44E"/>
<path d="M248.959 144.711H240.999V152.671H248.959V144.711Z" fill="#F5B44E"/>
<path d="M248.959 155.476H240.999C239.457 155.476 238.194 154.214 238.194 152.671V144.711C238.194 143.168 239.457 141.906 240.999 141.906H248.959C250.502 141.906 251.764 143.168 251.764 144.711V152.671C251.764 154.249 250.537 155.476 248.959 155.476ZM243.805 149.866H246.154V147.516H243.805V149.866Z" fill="#F5B44E"/>
<path d="M266.351 166.977H225.15C223.608 166.977 222.345 165.715 222.345 164.172C222.345 162.629 223.608 161.367 225.15 161.367H266.316C267.859 161.367 269.121 162.629 269.121 164.172C269.156 165.715 267.894 166.977 266.351 166.977Z" fill="#F5B44E"/>
<path d="M266.351 177.076H225.15C223.608 177.076 222.345 175.814 222.345 174.271C222.345 172.728 223.608 171.466 225.15 171.466H266.316C267.859 171.466 269.121 172.728 269.121 174.271C269.156 175.849 267.894 177.076 266.351 177.076Z" fill="#F5B44E"/>
<path d="M244.05 187.21H225.186C223.643 187.21 222.38 185.947 222.38 184.404C222.38 182.862 223.643 181.599 225.186 181.599H244.05C245.593 181.599 246.856 182.862 246.856 184.404C246.856 185.947 245.593 187.21 244.05 187.21Z" fill="#F5B44E"/>
<path d="M185.177 57.6114C178.164 57.6114 172.483 51.9309 172.483 44.918C172.483 37.9051 178.164 32.2246 185.177 32.2246C192.19 32.2246 197.87 37.9051 197.87 44.918C197.87 51.9309 192.19 57.6114 185.177 57.6114ZM185.177 37.835C181.285 37.835 178.094 41.0258 178.094 44.918C178.094 48.8102 181.285 52.0011 185.177 52.0011C189.069 52.0011 192.26 48.8102 192.26 44.918C192.26 41.0258 189.069 37.835 185.177 37.835Z" fill="#27597D"/>
<path d="M185.176 193.346C178.163 193.346 172.483 187.666 172.483 180.653C172.483 173.64 178.163 167.96 185.176 167.96C192.189 167.96 197.869 173.64 197.869 180.653C197.869 187.631 192.189 193.346 185.176 193.346ZM185.176 173.57C181.284 173.57 178.093 176.761 178.093 180.653C178.093 184.545 181.284 187.736 185.176 187.736C189.068 187.736 192.259 184.545 192.259 180.653C192.259 176.761 189.068 173.57 185.176 173.57Z" fill="#27597D"/>
<path d="M185.176 173.57C183.633 173.57 182.371 172.308 182.371 170.765V54.8064C182.371 53.2635 183.633 52.0012 185.176 52.0012C186.719 52.0012 187.981 53.2635 187.981 54.8064V170.765C187.981 172.308 186.719 173.57 185.176 173.57Z" fill="#27597D"/>
<path d="M199.167 236.16H171.186C169.643 236.16 168.38 234.898 168.38 233.355V205.374C168.38 203.831 169.643 202.568 171.186 202.568H199.167C200.71 202.568 201.972 203.831 201.972 205.374V233.355C201.972 234.933 200.71 236.16 199.167 236.16ZM173.991 230.55H196.362V208.179H173.991V230.55Z" fill="#27597D"/>
<path d="M2.80517 218.698C1.26233 218.698 0 217.436 0 215.893V173.219C0 171.676 1.26233 170.414 2.80517 170.414C4.34801 170.414 5.61034 171.676 5.61034 173.219V215.893C5.61034 217.436 4.34801 218.698 2.80517 218.698Z" fill="#27597D"/>
<path d="M378.418 96.9538H347.947C346.404 96.9538 345.141 95.6915 345.141 94.1487C345.141 92.6058 346.404 91.3435 347.947 91.3435H378.418C379.961 91.3435 381.223 92.6058 381.223 94.1487C381.223 95.6915 379.996 96.9538 378.418 96.9538Z" fill="#27597D"/>
<path d="M364.391 109.682H347.981C346.438 109.682 345.176 108.42 345.176 106.877C345.176 105.334 346.438 104.072 347.981 104.072H364.391C365.934 104.072 367.196 105.334 367.196 106.877C367.196 108.42 365.934 109.682 364.391 109.682Z" fill="#27597D"/>
<path d="M500.197 220.276C498.654 220.276 497.391 219.014 497.391 217.471V91.8342C497.391 90.2914 498.654 89.0291 500.197 89.0291C501.739 89.0291 503.002 90.2914 503.002 91.8342V217.436C503.002 219.014 501.739 220.276 500.197 220.276Z" fill="#27597D"/>
<path d="M514.503 110.804C512.96 110.804 511.698 109.542 511.698 107.999V91.8342C511.698 90.2914 512.96 89.0291 514.503 89.0291C516.046 89.0291 517.308 90.2914 517.308 91.8342V107.999C517.308 109.577 516.046 110.804 514.503 110.804Z" fill="#27597D"/>
<path d="M514.503 144.326C512.96 144.326 511.698 143.064 511.698 141.521V125.356C511.698 123.813 512.96 122.551 514.503 122.551C516.046 122.551 517.308 123.813 517.308 125.356V141.521C517.308 143.064 516.046 144.326 514.503 144.326Z" fill="#27597D"/>
<path d="M514.503 177.813C512.96 177.813 511.698 176.551 511.698 175.008V158.843C511.698 157.3 512.96 156.038 514.503 156.038C516.046 156.038 517.308 157.3 517.308 158.843V175.008C517.308 176.551 516.046 177.813 514.503 177.813Z" fill="#27597D"/>
<path d="M329.186 168.661C327.644 168.661 326.381 167.398 326.381 165.855V111.12C326.381 109.577 327.644 108.314 329.186 108.314C330.729 108.314 331.992 109.577 331.992 111.12V165.855C331.992 167.398 330.729 168.661 329.186 168.661Z" fill="#27597D"/>
<path d="M342.547 168.661C341.004 168.661 339.742 167.398 339.742 165.855V145.939C339.742 144.396 341.004 143.134 342.547 143.134C344.09 143.134 345.352 144.396 345.352 145.939V165.855C345.352 167.398 344.09 168.661 342.547 168.661Z" fill="#27597D"/>
<path d="M470.883 320H259.093C233.916 320 213.438 299.557 213.438 274.416C213.438 249.24 233.916 228.762 259.093 228.762C269.016 228.762 278.518 231.953 286.338 237.844C286.303 236.932 286.268 236.02 286.268 235.108C286.268 201.552 313.548 174.271 347.105 174.271C369.441 174.271 389.638 186.228 400.368 205.689C404.611 204.322 409.029 203.656 413.587 203.656C437.536 203.656 456.997 223.116 456.997 247.066C456.997 249.555 456.787 252.045 456.366 254.464C460.89 252.36 465.799 251.273 470.883 251.273C489.853 251.273 505.246 266.702 505.246 285.637C505.246 304.572 489.853 320 470.883 320ZM259.093 234.372C237.002 234.372 219.049 252.325 219.049 274.416C219.049 296.472 237.002 314.39 259.093 314.39H470.883C486.732 314.39 499.636 301.486 499.636 285.637C499.636 269.787 486.732 256.884 470.883 256.884C464.606 256.884 458.645 258.882 453.631 262.599C452.649 263.336 451.282 263.336 450.3 262.599C449.318 261.863 448.897 260.565 449.318 259.408C450.686 255.446 451.387 251.273 451.387 247.03C451.387 226.202 434.451 209.231 413.587 209.231C408.889 209.231 404.33 210.072 400.017 211.72C398.685 212.246 397.142 211.65 396.511 210.353C387.079 191.523 368.144 179.847 347.105 179.847C316.634 179.847 291.878 204.637 291.878 235.073C291.878 237.423 292.018 239.807 292.334 242.086C292.509 243.419 291.738 244.681 290.475 245.102C290.055 245.242 289.634 245.417 289.213 245.558C288.196 245.943 287.039 245.733 286.233 244.997C278.834 238.159 269.191 234.372 259.093 234.372Z" fill="#27597D"/>
<path d="M325.891 202.674C324.944 202.674 324.032 202.183 323.506 201.341C322.7 200.009 323.12 198.29 324.453 197.484C325.049 197.133 325.645 196.783 326.276 196.432C327.854 195.59 329.467 194.819 331.15 194.188C332.588 193.627 334.236 194.328 334.797 195.801C335.358 197.239 334.657 198.887 333.184 199.448C331.746 200.009 330.309 200.675 328.976 201.411C328.45 201.692 327.924 202.007 327.398 202.323C326.907 202.568 326.381 202.674 325.891 202.674Z" fill="#27597D"/>
<path d="M307.096 236.16C305.553 236.16 304.291 234.898 304.291 233.355C304.291 222.52 308.394 212.211 315.897 204.356C316.949 203.234 318.738 203.199 319.86 204.251C320.982 205.303 321.017 207.092 319.965 208.214C313.478 215.016 309.901 223.923 309.901 233.355C309.901 234.933 308.674 236.16 307.096 236.16Z" fill="#27597D"/>
<path d="M230.129 278.589C228.586 278.589 227.324 277.326 227.324 275.783C227.324 258.251 241.595 243.945 259.163 243.945C260.705 243.945 261.968 245.207 261.968 246.75C261.968 248.293 260.705 249.555 259.163 249.555C244.716 249.555 232.934 261.302 232.934 275.783C232.934 277.326 231.707 278.589 230.129 278.589Z" fill="#27597D"/>
<path d="M439.289 130.476H421.617C420.074 130.476 418.812 129.213 418.812 127.67C418.812 126.128 420.074 124.865 421.617 124.865H439.289C440.832 124.865 442.095 126.128 442.095 127.67C442.095 129.213 440.832 130.476 439.289 130.476Z" fill="#F5B44E"/>
<path d="M439.289 145.273H421.617C420.074 145.273 418.812 144.011 418.812 142.468C418.812 140.925 420.074 139.663 421.617 139.663H439.289C440.832 139.663 442.095 140.925 442.095 142.468C442.095 144.046 440.832 145.273 439.289 145.273Z" fill="#F5B44E"/>
<path d="M459.908 160.105H421.582C420.039 160.105 418.777 158.843 418.777 157.3C418.777 155.757 420.039 154.495 421.582 154.495H459.908C461.451 154.495 462.713 155.757 462.713 157.3C462.713 158.843 461.486 160.105 459.908 160.105Z" fill="#F5B44E"/>
<path d="M110.839 178.339C109.296 178.339 108.034 177.076 108.034 175.534C108.034 173.991 109.296 172.728 110.839 172.728C123.813 172.728 130.826 166.452 130.826 160.526C130.826 157.721 129.248 155.056 126.408 153.057C123.883 151.269 119.114 149.165 110.839 149.165C109.296 149.165 108.034 147.903 108.034 146.36C108.034 144.817 109.296 143.555 110.839 143.555C118.588 143.555 125.075 145.238 129.634 148.464C134.017 151.549 136.401 155.827 136.401 160.526C136.436 169.397 127.635 178.339 110.839 178.339Z" fill="#FF4040"/>
<path d="M128.898 205.198C128.898 213.298 104.563 219.855 74.5475 219.855C44.5321 219.855 20.1973 213.298 20.1973 205.198C20.1973 197.098 44.5321 190.541 74.5475 190.541C104.563 190.541 128.898 197.098 128.898 205.198Z" fill="#011625"/>
<path d="M74.5474 222.625C46.1451 222.625 17.3921 216.629 17.3921 205.163C17.3921 193.697 46.1451 187.701 74.5474 187.701C102.95 187.701 131.703 193.697 131.703 205.163C131.703 216.629 102.95 222.625 74.5474 222.625ZM74.5474 193.346C40.7101 193.346 23.0024 201.06 23.0024 205.198C23.0024 209.335 40.7101 217.05 74.5474 217.05C108.385 217.05 126.092 209.335 126.092 205.198C126.092 201.06 108.385 193.346 74.5474 193.346Z" fill="#FF4040"/>
<path d="M116.625 142.257V177.392C116.625 193.276 97.76 206.145 74.5473 206.145C51.2994 206.145 32.4697 193.276 32.4697 177.392V142.257C32.4697 141.205 32.5399 140.223 32.7152 139.312C34.9593 125.917 52.8423 122.866 74.5823 122.866C96.3224 122.866 114.205 125.917 116.449 139.312C116.59 140.258 116.625 141.24 116.625 142.257Z" fill="#011625"/>
<path d="M74.5471 208.95C49.7914 208.95 29.6643 194.784 29.6643 177.392V142.257C29.6643 140.889 29.7695 139.802 29.9449 138.786C32.715 122.2 55.2615 120.061 74.5821 120.061C93.9027 120.061 116.414 122.2 119.219 138.856C119.395 139.802 119.5 140.96 119.5 142.257V177.392C119.43 194.784 99.3027 208.95 74.5471 208.95ZM74.5471 125.671C49.1252 125.671 37.098 130.019 35.45 139.767C35.3097 140.469 35.2747 141.24 35.2747 142.257V177.392C35.2747 191.698 52.9122 203.34 74.5821 203.34C96.2521 203.34 113.89 191.698 113.89 177.392V142.257C113.89 141.275 113.819 140.504 113.714 139.837C112.031 130.019 99.9689 125.671 74.5471 125.671Z" fill="#FF4040"/>
<path d="M74.5476 194.644C57.0504 194.644 43.9713 185.527 43.9713 177.392V166.241C43.9713 165.961 43.9713 165.68 44.0063 165.435L74.5476 194.644Z" fill="#011625"/>
<path d="M74.5474 197.449C56.7696 197.449 41.1659 188.087 41.1659 177.392V166.241C41.1659 165.75 41.1659 165.365 41.236 164.979C41.4815 163.436 42.9542 162.419 44.462 162.665C46.0048 162.91 47.0217 164.348 46.7762 165.891V166.241V177.392C46.7762 183.142 57.8566 191.838 74.5474 191.838C76.0902 191.838 77.3526 193.101 77.3526 194.644C77.3526 196.186 76.0902 197.449 74.5474 197.449Z" fill="#FF4040"/>
<path d="M116.414 139.312C115.783 142.993 113.995 145.939 111.225 148.183C104.037 154.214 90.2912 155.827 74.5472 155.827C58.8032 155.827 45.0578 154.214 37.8696 148.183C35.0995 145.939 33.3112 143.028 32.68 139.312C34.9242 125.917 52.8071 122.866 74.5472 122.866C96.2873 122.866 114.17 125.917 116.414 139.312Z" fill="#011625"/>
<path d="M74.5475 158.632C54.7711 158.632 42.8842 156.072 36.0465 150.322C32.7154 147.622 30.6466 144.08 29.9102 139.802C29.8752 139.487 29.8752 139.171 29.9102 138.856C32.7154 122.2 55.2269 120.061 74.5475 120.061C93.8681 120.061 116.38 122.2 119.185 138.856C119.22 139.171 119.22 139.487 119.185 139.802C118.448 144.08 116.38 147.622 113.013 150.357C106.211 156.072 94.324 158.632 74.5475 158.632ZM35.5206 139.312C36.0816 142.047 37.4141 144.221 39.6231 146.009C47.0919 152.32 63.1515 153.022 74.5475 153.022C85.9435 153.022 101.968 152.285 109.437 146.044C111.646 144.256 112.978 142.047 113.574 139.312C111.646 129.879 99.5486 125.671 74.5475 125.671C49.5464 125.671 37.4842 129.879 35.5206 139.312Z" fill="#FF4040"/>
<path d="M111.225 148.183C104.037 154.214 90.2914 155.827 74.5474 155.827C58.8033 155.827 45.058 154.214 37.8698 148.183C45.058 142.152 58.8033 140.539 74.5474 140.539C90.2914 140.539 104.037 142.152 111.225 148.183Z" fill="#011625"/>
<path d="M74.5472 158.632C54.7708 158.632 42.8839 156.072 36.0463 150.322C35.4151 149.796 35.0645 149.024 35.0645 148.183C35.0645 147.341 35.4151 146.57 36.0813 146.044C42.9189 140.293 54.8058 137.734 74.5823 137.734C94.3587 137.734 106.246 140.293 113.083 146.044C113.714 146.57 114.1 147.376 114.1 148.183C114.1 149.024 113.749 149.796 113.083 150.322C106.211 156.072 94.3237 158.632 74.5472 158.632ZM42.9189 148.183C51.1591 152.461 64.5889 153.022 74.5472 153.022C84.5056 153.022 97.9353 152.461 106.175 148.183C97.9353 143.905 84.5056 143.344 74.5472 143.344C64.5889 143.344 51.1591 143.905 42.9189 148.183Z" fill="#FF4040"/>
<path d="M74.0213 110.945C72.4784 110.945 71.2161 109.682 71.2161 108.139C71.2161 104.177 70.1291 102.354 68.7616 100.075C67.2187 97.5499 65.5006 94.6395 65.5006 89.1344C65.5006 83.6292 67.2538 80.7189 68.7616 78.1942C70.1291 75.915 71.2161 74.0917 71.2161 70.1294C71.2161 66.1671 70.1291 64.3788 68.7616 62.0996C67.2187 59.5749 65.4655 56.6996 65.4655 51.1594C65.4655 49.6166 66.7278 48.3542 68.2707 48.3542C69.8135 48.3542 71.0759 49.6166 71.0759 51.1594C71.0759 55.1217 72.1629 56.91 73.5304 59.1892C75.0732 61.7139 76.8265 64.5892 76.8265 70.1294C76.8265 75.6696 75.0732 78.5449 73.5654 81.0695C72.1979 83.3487 71.0759 85.1721 71.0759 89.1344C71.0759 93.0967 72.1629 94.9201 73.5654 97.1993C75.1083 99.7239 76.8265 102.634 76.8265 108.139C76.8265 109.682 75.5641 110.945 74.0213 110.945Z" fill="#F5B44E"/>
<path d="M74.0213 110.945C72.4784 110.945 71.2161 109.682 71.2161 108.139C71.2161 104.177 70.1291 102.354 68.7616 100.075C67.2187 97.5499 65.5006 94.6395 65.5006 89.1344C65.5006 83.6292 67.2538 80.7189 68.7616 78.1942C70.1291 75.915 71.2161 74.0917 71.2161 70.1294C71.2161 66.1671 70.1291 64.3788 68.7616 62.0996C67.2187 59.5749 65.4655 56.6996 65.4655 51.1594C65.4655 49.6166 66.7278 48.3542 68.2707 48.3542C69.8135 48.3542 71.0759 49.6166 71.0759 51.1594C71.0759 55.1217 72.1629 56.91 73.5304 59.1892C75.0732 61.7139 76.8265 64.5892 76.8265 70.1294C76.8265 75.6696 75.0732 78.5449 73.5654 81.0695C72.1979 83.3487 71.0759 85.1721 71.0759 89.1344C71.0759 93.0967 72.1629 94.9201 73.5654 97.1993C75.1083 99.7239 76.8265 102.634 76.8265 108.139C76.8265 109.682 75.5641 110.945 74.0213 110.945Z" fill="#F5B44E"/>
<path d="M55.7528 110.945C54.21 110.945 52.9476 109.682 52.9476 108.139C52.9476 104.177 51.8606 102.354 50.458 100.075C48.9152 97.5499 47.162 94.6396 47.162 89.1344C47.162 83.6293 48.9152 80.7189 50.458 78.1942C51.8256 75.915 52.9476 74.0917 52.9476 70.1294C52.9476 68.5865 54.21 67.3242 55.7528 67.3242C57.2956 67.3242 58.558 68.5865 58.558 70.1294C58.558 75.6696 56.8047 78.5449 55.2619 81.0696C53.8944 83.3488 52.7723 85.1721 52.7723 89.1344C52.7723 93.0967 53.8593 94.9201 55.2619 97.1993C56.8047 99.7239 58.558 102.634 58.558 108.139C58.558 109.682 57.2956 110.945 55.7528 110.945Z" fill="#F5B44E"/>
<path d="M55.7528 110.945C54.21 110.945 52.9476 109.682 52.9476 108.139C52.9476 104.177 51.8606 102.354 50.458 100.075C48.9152 97.5499 47.162 94.6396 47.162 89.1344C47.162 83.6293 48.9152 80.7189 50.458 78.1942C51.8256 75.915 52.9476 74.0917 52.9476 70.1294C52.9476 68.5865 54.21 67.3242 55.7528 67.3242C57.2956 67.3242 58.558 68.5865 58.558 70.1294C58.558 75.6696 56.8047 78.5449 55.2619 81.0696C53.8944 83.3488 52.7723 85.1721 52.7723 89.1344C52.7723 93.0967 53.8593 94.9201 55.2619 97.1993C56.8047 99.7239 58.558 102.634 58.558 108.139C58.558 109.682 57.2956 110.945 55.7528 110.945Z" fill="#F5B44E"/>
<path d="M210.913 105.755C209.371 105.755 208.108 104.493 208.108 102.95V69.0422C208.108 67.4994 209.371 66.2371 210.913 66.2371C212.456 66.2371 213.719 67.4994 213.719 69.0422V102.95C213.719 104.493 212.456 105.755 210.913 105.755Z" fill="#27597D"/>
<path d="M158.597 315.581H56.4891C54.9463 315.581 53.6839 314.319 53.6839 312.776V258.952C53.6839 257.409 54.9463 256.147 56.4891 256.147H106.807L126.303 238.86C127.109 238.124 128.301 237.948 129.283 238.404C130.3 238.86 130.931 239.842 130.966 240.929L131.212 256.147H158.632C160.175 256.147 161.438 257.409 161.438 258.952V312.776C161.402 314.319 160.14 315.581 158.597 315.581ZM59.2943 309.971H155.792V261.757H128.442C126.899 261.757 125.672 260.53 125.637 258.987L125.461 247.1L109.717 261.021C109.191 261.477 108.56 261.722 107.859 261.722H59.2943V309.971Z" fill="#27597D"/>
<path d="M142.467 277.747H73.8108C72.268 277.747 71.0057 276.485 71.0057 274.942C71.0057 273.399 72.268 272.137 73.8108 272.137H142.467C144.01 272.137 145.273 273.399 145.273 274.942C145.273 276.485 144.045 277.747 142.467 277.747Z" fill="#27597D"/>
<path d="M101.372 292.86H73.846C72.3031 292.86 71.0408 291.597 71.0408 290.054C71.0408 288.512 72.3031 287.249 73.846 287.249H101.372C102.915 287.249 104.177 288.512 104.177 290.054C104.142 291.597 102.915 292.86 101.372 292.86Z" fill="#27597D"/>
</svg>
