<svg width="234" height="18" viewBox="0 0 234 18" fill="none" xmlns="http://www.w3.org/2000/svg">
<path d="M0.598 13H1.822V7.407H3.964C6.412 7.407 8.061 6.336 8.061 4.177C8.061 2.018 6.446 0.964 3.998 0.964H0.598V13ZM1.822 2.018H3.896C5.749 2.018 6.837 2.698 6.837 4.177C6.837 5.605 5.8 6.37 3.896 6.37H1.822V2.018ZM17.2378 9.022C17.2378 6.625 15.4698 4.84 12.9878 4.84C10.5228 4.84 8.75481 6.625 8.75481 9.022C8.75481 11.419 10.5228 13.204 12.9878 13.204C15.4698 13.204 17.2378 11.419 17.2378 9.022ZM16.0138 9.022C16.0138 10.807 14.8408 12.218 12.9878 12.218C11.1518 12.218 9.97881 10.807 9.97881 9.022C9.97881 7.237 11.1518 5.809 12.9878 5.809C14.8408 5.809 16.0138 7.237 16.0138 9.022ZM18.8074 5.044L21.3234 13H22.5814L24.6724 6.557H24.7064L26.8314 13H28.0894L30.6054 5.044H29.3814L27.4774 11.504H27.4434L25.2674 5.044H24.1454L22.0034 11.504H21.9694L20.0484 5.044H18.8074ZM33.395 8.41C33.497 7.05 34.636 5.809 36.183 5.809C37.832 5.809 38.75 6.914 38.818 8.41H33.395ZM39.991 8.784C39.991 6.608 38.682 4.84 36.183 4.84C33.922 4.84 32.171 6.625 32.171 9.022C32.171 11.419 33.922 13.204 36.285 13.204C37.594 13.204 38.767 12.711 39.702 11.521L38.835 10.841C38.393 11.555 37.475 12.218 36.285 12.218C34.653 12.218 33.412 10.926 33.378 9.328H39.974C39.991 9.124 39.991 8.937 39.991 8.784ZM42.6475 6.795V13H43.8035V8.92C43.8035 6.795 44.9085 5.911 46.1325 5.911C46.4385 5.911 46.8125 5.962 46.9485 6.013L47.1015 4.925C46.8635 4.857 46.6255 4.84 46.3365 4.84C45.2145 4.84 44.2285 5.486 43.7865 6.404H43.7525C43.7525 6.064 43.7185 5.469 43.6845 5.044H42.5795C42.6305 5.588 42.6475 6.37 42.6475 6.795ZM49.2906 8.41C49.3926 7.05 50.5316 5.809 52.0786 5.809C53.7276 5.809 54.6456 6.914 54.7136 8.41H49.2906ZM55.8866 8.784C55.8866 6.608 54.5776 4.84 52.0786 4.84C49.8176 4.84 48.0666 6.625 48.0666 9.022C48.0666 11.419 49.8176 13.204 52.1806 13.204C53.4896 13.204 54.6626 12.711 55.5976 11.521L54.7306 10.841C54.2886 11.555 53.3706 12.218 52.1806 12.218C50.5486 12.218 49.3076 10.926 49.2736 9.328H55.8696C55.8866 9.124 55.8866 8.937 55.8866 8.784ZM65.0882 11.657H65.1222V13H66.2782V0.147999H65.1222V6.421H65.0882C64.4082 5.384 63.2182 4.84 62.0792 4.84C59.5972 4.84 57.9652 6.676 57.9652 9.022C57.9652 11.368 59.5972 13.204 62.0792 13.204C63.2182 13.204 64.4082 12.66 65.0882 11.657ZM59.1892 9.022C59.1892 7.254 60.2772 5.809 62.1982 5.809C63.9832 5.809 65.2582 7.203 65.2582 9.022C65.2582 10.841 63.9832 12.218 62.1982 12.218C60.2772 12.218 59.1892 10.79 59.1892 9.022ZM75.1814 11.657C75.8614 12.66 77.0514 13.204 78.1904 13.204C80.6724 13.204 82.3044 11.368 82.3044 9.022C82.3044 6.676 80.6724 4.84 78.1904 4.84C77.0514 4.84 75.8614 5.384 75.1814 6.421H75.1474V0.147999H73.9914V13H75.1474V11.657H75.1814ZM81.0804 9.022C81.0804 10.79 79.9924 12.218 78.0714 12.218C76.2864 12.218 75.0114 10.841 75.0114 9.022C75.0114 7.203 76.2864 5.809 78.0714 5.809C79.9924 5.809 81.0804 7.254 81.0804 9.022ZM84.9856 5.044H83.6936L87.0936 12.983L86.4476 14.649C86.1076 15.55 85.6996 16.06 84.9176 16.06C84.6116 16.06 84.3226 16.009 84.0676 15.924L83.9486 16.978C84.2886 17.046 84.6456 17.08 84.9856 17.08C86.3626 17.08 87.0086 16.281 87.4846 15.057L91.4456 5.044H90.1876L87.7226 11.759H87.6886L84.9856 5.044ZM98.8356 9.838H105.058L106.384 13H107.744L102.576 0.964H101.386L96.1836 13H97.5266L98.8356 9.838ZM101.947 2.324L104.599 8.716H99.2946L101.947 2.324ZM110.773 11.657H110.824C111.487 12.643 112.677 13.204 113.816 13.204C116.298 13.204 117.93 11.368 117.93 9.022C117.93 6.676 116.298 4.84 113.816 4.84C112.677 4.84 111.487 5.384 110.824 6.421H110.773V5.044H109.617V17.08H110.773V11.657ZM116.706 9.022C116.706 10.79 115.618 12.218 113.697 12.218C111.912 12.218 110.637 10.841 110.637 9.022C110.637 7.203 111.912 5.809 113.697 5.809C115.618 5.809 116.706 7.254 116.706 9.022ZM121.734 11.657H121.785C122.448 12.643 123.638 13.204 124.777 13.204C127.259 13.204 128.891 11.368 128.891 9.022C128.891 6.676 127.259 4.84 124.777 4.84C123.638 4.84 122.448 5.384 121.785 6.421H121.734V5.044H120.578V17.08H121.734V11.657ZM127.667 9.022C127.667 10.79 126.579 12.218 124.658 12.218C122.873 12.218 121.598 10.841 121.598 9.022C121.598 7.203 122.873 5.809 124.658 5.809C126.579 5.809 127.667 7.254 127.667 9.022ZM132.729 0.147999H131.573V13H132.729V0.147999ZM141.007 8.121C138.1 8.121 135.397 8.342 135.397 10.79C135.397 12.558 136.944 13.204 138.151 13.204C139.426 13.204 140.31 12.762 141.041 11.708H141.075C141.075 12.133 141.126 12.609 141.194 13H142.231C142.146 12.558 142.095 11.827 142.095 11.215V7.73C142.095 5.792 140.718 4.84 139.001 4.84C137.641 4.84 136.519 5.333 135.873 5.979L136.519 6.744C137.08 6.183 137.947 5.809 138.882 5.809C140.259 5.809 141.007 6.489 141.007 7.866V8.121ZM141.007 9.022V9.617C141.007 11.028 140.089 12.252 138.457 12.252C137.556 12.252 136.587 11.878 136.587 10.739C136.587 9.226 138.78 9.022 140.667 9.022H141.007ZM152.128 13C152.077 12.456 152.06 11.674 152.06 11.249V5.044H150.904V9.124C150.904 11.249 149.714 12.235 148.49 12.235C146.824 12.235 146.331 11.113 146.331 9.447V5.044H145.175V9.923C145.175 11.895 146.178 13.204 148.201 13.204C149.323 13.204 150.479 12.558 150.921 11.64H150.955C150.955 11.98 150.989 12.575 151.023 13H152.128ZM161.836 11.657H161.87V13H163.026V0.147999H161.87V6.421H161.836C161.156 5.384 159.966 4.84 158.827 4.84C156.345 4.84 154.713 6.676 154.713 9.022C154.713 11.368 156.345 13.204 158.827 13.204C159.966 13.204 161.156 12.66 161.836 11.657ZM155.937 9.022C155.937 7.254 157.025 5.809 158.946 5.809C160.731 5.809 162.006 7.203 162.006 9.022C162.006 10.841 160.731 12.218 158.946 12.218C157.025 12.218 155.937 10.79 155.937 9.022ZM174.19 9.022C174.19 6.625 172.422 4.84 169.94 4.84C167.475 4.84 165.707 6.625 165.707 9.022C165.707 11.419 167.475 13.204 169.94 13.204C172.422 13.204 174.19 11.419 174.19 9.022ZM172.966 9.022C172.966 10.807 171.793 12.218 169.94 12.218C168.104 12.218 166.931 10.807 166.931 9.022C166.931 7.237 168.104 5.809 169.94 5.809C171.793 5.809 172.966 7.237 172.966 9.022ZM183.716 2.12C183.138 1.338 181.931 0.658 180.316 0.658C178.548 0.658 176.474 1.644 176.474 3.973C176.474 6.149 178.106 6.846 179.704 7.339C181.234 7.815 182.645 8.24 182.645 9.923C182.645 11.47 181.217 12.252 179.976 12.252C178.718 12.252 177.749 11.589 177.222 10.739L176.168 11.521C177.035 12.711 178.497 13.306 179.959 13.306C181.863 13.306 183.886 12.252 183.886 9.838C183.886 7.424 182.016 6.88 180.316 6.319C178.973 5.877 177.698 5.486 177.698 3.956C177.698 2.409 179.075 1.695 180.265 1.695C181.404 1.695 182.237 2.171 182.747 2.902L183.716 2.12ZM190.101 5.044H187.857V2.8H186.701V5.044H185.052V6.013H186.701V10.977C186.701 12.728 187.891 13.102 188.741 13.102C189.268 13.102 189.693 13.017 190.101 12.864L190.05 11.861C189.744 12.014 189.37 12.116 189.047 12.116C188.35 12.116 187.857 11.844 187.857 10.654V6.013H190.101V5.044ZM198.965 13C198.913 12.456 198.896 11.674 198.896 11.249V5.044H197.74V9.124C197.74 11.249 196.55 12.235 195.326 12.235C193.66 12.235 193.167 11.113 193.167 9.447V5.044H192.011V9.923C192.011 11.895 193.014 13.204 195.037 13.204C196.159 13.204 197.316 12.558 197.757 11.64H197.792C197.792 11.98 197.826 12.575 197.859 13H198.965ZM208.672 11.657H208.706V13H209.862V0.147999H208.706V6.421H208.672C207.992 5.384 206.802 4.84 205.663 4.84C203.181 4.84 201.549 6.676 201.549 9.022C201.549 11.368 203.181 13.204 205.663 13.204C206.802 13.204 207.992 12.66 208.672 11.657ZM202.773 9.022C202.773 7.254 203.861 5.809 205.782 5.809C207.567 5.809 208.842 7.203 208.842 9.022C208.842 10.841 207.567 12.218 205.782 12.218C203.861 12.218 202.773 10.79 202.773 9.022ZM214.295 5.044H213.139V13H214.295V5.044ZM214.533 1.984C214.533 1.508 214.125 1.168 213.717 1.168C213.309 1.168 212.901 1.508 212.901 1.984C212.901 2.46 213.309 2.8 213.717 2.8C214.125 2.8 214.533 2.46 214.533 1.984ZM225.447 9.022C225.447 6.625 223.679 4.84 221.197 4.84C218.732 4.84 216.964 6.625 216.964 9.022C216.964 11.419 218.732 13.204 221.197 13.204C223.679 13.204 225.447 11.419 225.447 9.022ZM224.223 9.022C224.223 10.807 223.05 12.218 221.197 12.218C219.361 12.218 218.188 10.807 218.188 9.022C218.188 7.237 219.361 5.809 221.197 5.809C223.05 5.809 224.223 7.237 224.223 9.022ZM233.221 6.268C232.711 5.367 231.538 4.84 230.433 4.84C228.988 4.84 227.594 5.537 227.594 7.152C227.594 8.665 228.937 9.073 229.872 9.294C231.385 9.651 232.218 9.991 232.218 10.824C232.218 11.861 231.334 12.218 230.348 12.218C229.413 12.218 228.546 11.674 228.138 10.977L227.22 11.657C227.951 12.728 229.158 13.204 230.365 13.204C231.827 13.204 233.357 12.558 233.357 10.739C233.357 9.498 232.473 8.801 230.603 8.41C229.294 8.138 228.699 7.798 228.699 7.05C228.699 6.166 229.549 5.809 230.382 5.809C231.266 5.809 231.997 6.268 232.337 6.931L233.221 6.268Z" fill="#F7F7F7"/>
</svg>
