<svg width="180" height="48" viewBox="0 0 180 48" fill="none" xmlns="http://www.w3.org/2000/svg">
<path d="M38.274 42.6931C37.7579 42.177 36.8976 42.177 36.3815 42.6931C36.2095 42.8651 36.0374 43.2092 36.0374 43.7253C27.7794 48.5426 17.2847 47.6823 9.88687 41.4888C10.0589 40.9727 9.88685 40.4565 9.54276 40.1124C9.02663 39.5963 8.16646 39.5963 7.65033 40.1124C7.1342 40.6286 7.1342 41.4888 7.65033 42.0049C8.16646 42.521 8.68257 42.521 9.1987 42.177C16.7686 48.5426 27.6073 49.5748 36.2094 44.5856C36.7256 45.1017 37.5858 45.1017 38.1019 44.5856C38.6181 44.0694 38.7901 43.2092 38.274 42.6931Z" fill="url(#paint0_linear)"/>
<path d="M5.06967 34.2629C4.89763 34.0908 4.55353 33.9188 4.0374 33.9188C-0.263678 25.1446 1.45675 14.4779 8.33848 7.59619C14.8761 1.05855 25.0267 -1.00597 33.4568 2.77898C33.4568 3.12307 33.6288 3.46716 33.8008 3.81124C34.317 4.32737 35.1772 4.32737 35.6933 3.81124C36.2095 3.29511 36.2095 2.4349 35.6933 1.91877C35.1772 1.40264 34.317 1.40264 33.8008 1.91877C24.8546 -1.86618 14.532 0.0262935 7.65032 6.90802C0.424505 14.1338 -1.29594 25.1446 3.17718 34.2629C2.66106 34.779 2.66106 35.6392 3.17718 36.1553C3.69331 36.6715 4.55354 36.6715 5.06967 36.1553C5.5858 35.6392 5.5858 34.779 5.06967 34.2629Z" fill="url(#paint1_linear)"/>
<path d="M11.9514 28.5857C12.4676 29.1018 13.3277 29.1018 13.8439 28.5857C14.36 28.0695 14.36 27.2093 13.8439 26.6932C13.6718 26.5211 13.3277 26.3491 12.9837 26.3491C12.1234 22.3921 13.3278 18.2631 16.0805 15.3383C18.145 13.2738 20.7256 12.0695 23.6504 11.8975C23.6504 12.0695 23.8224 12.4136 23.9945 12.4136C24.5106 12.9297 25.3708 12.9297 25.8869 12.4136C26.403 11.8975 26.403 11.0373 25.8869 10.5211C25.3708 10.005 24.5106 10.005 23.9945 10.5211C23.9945 10.5211 23.8224 10.6932 23.8224 10.8652C20.7256 11.0373 17.8009 12.4136 15.3923 14.6502C12.2955 17.7469 10.9192 22.2201 11.9514 26.5211C11.9514 26.5211 11.7794 26.5211 11.7794 26.6932C11.4353 27.2093 11.4353 28.0695 11.9514 28.5857Z" fill="url(#paint2_linear)"/>
<path d="M36.5536 36.3274C37.0697 35.8112 37.0697 34.951 36.5536 34.4349C36.0374 33.9188 35.1772 33.9188 34.6611 34.4349C34.1449 34.951 34.1449 35.4671 34.489 35.9833C28.2955 40.9725 19.3493 40.4564 13.6718 34.779C7.65032 28.7575 7.65032 18.779 13.6718 12.5854C19.1772 7.08002 27.6073 6.56389 33.8008 10.865C33.6288 11.3811 33.8009 11.8972 34.145 12.0693C34.6611 12.5854 35.5213 12.5854 36.0374 12.0693C36.5536 11.5531 36.5536 10.6929 36.0374 10.1768C35.5213 9.66067 34.8331 9.66067 34.317 10.0048C27.7794 5.35959 18.8331 6.04776 13.1557 11.8972C6.61803 18.4349 6.61803 28.9295 13.1557 35.2951C19.1772 41.3166 28.8116 41.8327 35.3492 36.3274C35.5213 36.8435 36.0374 36.6714 36.5536 36.3274Z" fill="url(#paint3_linear)"/>
<path d="M19.1772 41.4885C18.6611 41.4885 18.317 41.6606 18.1449 42.0047C10.575 39.252 5.41374 31.8541 5.41374 23.7681C5.41374 22.5638 5.41376 21.3595 5.75785 20.3272C6.44602 20.3272 6.96212 19.8111 6.96212 19.1229C6.96212 18.4348 6.44601 17.7466 5.5858 17.7466C4.72558 17.7466 4.20947 18.2627 4.20947 19.1229C4.20947 19.6391 4.38149 19.9831 4.72558 20.1552C4.55354 21.3595 4.38147 22.5638 4.38147 23.7681C4.38147 32.1982 9.88688 39.9401 17.6288 42.6928C17.6288 43.381 18.145 43.8971 18.8331 43.8971C19.5213 43.8971 20.2095 43.381 20.2095 42.5208C20.3815 42.0047 19.8654 41.4885 19.1772 41.4885Z" fill="url(#paint4_linear)"/>
<path d="M41.5428 7.76787C43.6073 9.83239 45.1557 12.0689 46.0159 14.6496H47.0482C46.016 11.8969 44.2955 9.14422 42.059 7.0797C42.231 6.56357 42.0589 6.04744 41.5428 5.70335C41.0267 5.18722 40.1665 5.18722 39.6503 5.8754C39.1342 6.39153 39.1342 7.25174 39.8224 7.76787C40.5106 8.11196 41.0267 8.11196 41.5428 7.76787Z" fill="url(#paint5_linear)"/>
<path d="M47.0482 33.9187H46.0159C45.1557 35.4671 44.2955 37.0155 43.0912 38.5639C42.575 38.2198 42.0589 38.3918 41.5428 38.7359C41.0267 39.252 41.0267 40.1123 41.5428 40.6284C42.0589 41.1445 42.9192 41.1445 43.4353 40.6284C43.7794 40.2843 43.9514 39.7682 43.7794 39.252C44.9837 37.7037 46.188 35.8112 47.0482 33.9187Z" fill="url(#paint6_linear)"/>
<path d="M41.1988 33.9187C38.4461 38.3918 33.8009 41.6606 28.4675 42.6929C28.2955 42.1768 27.7794 42.0047 27.2632 42.0047C26.5751 42.0047 25.8869 42.5209 25.8869 43.3811C25.8869 44.0692 26.403 44.7574 27.2632 44.7574C27.7794 44.7574 28.2955 44.2413 28.4675 43.7252C34.317 42.6929 39.3063 39.08 42.059 34.0907L41.1988 33.9187Z" fill="url(#paint7_linear)"/>
<path d="M41.7149 14.6501H42.7471C39.4783 8.11245 32.5966 3.46729 24.6826 3.46729C18.317 3.46729 12.4675 6.39202 8.68256 11.3813C8.51052 11.3813 8.3385 11.3813 8.16645 11.3813C7.47828 11.3813 6.79013 11.8974 6.79013 12.7576C6.79013 13.6178 7.30624 14.134 8.16645 14.134C9.02667 14.134 9.54278 13.6178 9.54278 12.7576C9.54278 12.5856 9.54282 12.2415 9.37078 12.0694C12.9837 7.25223 18.6611 4.49954 24.6826 4.49954C32.0805 4.49954 38.4461 8.62858 41.7149 14.6501Z" fill="url(#paint8_linear)"/>
<path d="M30.1879 34.4349C30.0159 34.4349 29.8439 34.6069 29.6718 34.779C25.7148 36.4994 21.4138 35.9833 17.9729 33.5747C18.145 33.2306 18.145 32.8865 17.9729 32.5424C17.6288 31.8542 16.9407 31.5101 16.2525 31.8542C15.5643 32.1983 15.2202 32.8865 15.5643 33.5747C15.9084 34.2628 16.5965 34.6069 17.2847 34.2628C20.8976 37.0155 25.8869 37.5317 30.0159 35.6392C30.7041 35.2951 31.3923 34.951 32.0804 34.6069L30.1879 34.4349Z" fill="url(#paint9_linear)"/>
<path d="M35.0052 26.1768C35.0052 26.8649 34.8331 27.3811 34.6611 27.7251C34.489 28.0692 34.1449 28.4133 33.6288 28.7574C33.1127 28.9294 32.7686 29.1015 32.2525 29.2735C31.7364 29.2735 31.2202 29.4456 30.7041 29.4456H22.274C21.7579 29.4456 21.5858 29.2735 21.5858 28.7574V19.123C21.5858 18.6069 21.7579 18.4348 22.274 18.4348H30.5321C31.2202 18.4348 31.7364 18.4348 32.2525 18.6069C32.7686 18.6069 33.2847 18.7789 33.6288 19.123C33.9729 19.295 34.317 19.6391 34.489 20.1552C34.6611 20.4993 34.8331 21.0155 34.8331 21.7036C34.8331 22.2198 34.8331 22.7359 34.489 23.08C34.317 23.4241 33.9729 23.7682 33.4568 24.1122C33.9729 24.2843 34.317 24.6284 34.489 24.8004C34.8331 24.9725 35.0052 25.4886 35.0052 26.1768ZM32.9406 26.1768C32.9406 25.8327 32.9406 25.6606 32.9406 25.4886C32.9406 25.3165 32.7686 25.1445 32.5966 24.9725C32.4245 24.8004 32.0804 24.8004 31.9084 24.6284C31.5643 24.6284 31.2202 24.6284 30.7041 24.6284H23.6503V27.7251H30.8762C31.3923 27.7251 31.7363 27.7251 32.0804 27.7251C32.4245 27.7251 32.5965 27.5531 32.7686 27.5531C32.9406 27.3811 33.1127 27.209 33.1127 27.037C32.9407 26.6929 32.9406 26.5208 32.9406 26.1768ZM23.4783 23.08H30.5321C31.0482 23.08 31.3923 23.08 31.5643 23.08C31.9084 23.08 32.0804 22.9079 32.2525 22.9079C32.4245 22.9079 32.5966 22.7359 32.5966 22.3918C32.5966 22.0477 32.7686 21.8757 32.7686 21.7036C32.7686 21.5316 32.7686 21.1875 32.7686 21.0155C32.7686 20.8434 32.5966 20.6714 32.4245 20.4993C32.2525 20.3273 32.0805 20.3273 31.7364 20.1552C31.3923 20.1552 31.0482 20.1552 30.5321 20.1552H23.4783V23.08Z" fill="white"/>
<path d="M40.8546 24.8004V26.5208C40.8546 26.8649 41.0267 27.037 41.3708 27.3811C41.7148 27.5531 42.403 27.7251 43.2632 27.7251H50.317C50.4891 27.7251 50.6611 27.7251 50.8331 27.8972C50.8331 28.0692 51.0052 28.2413 51.0052 28.4133C51.0052 28.7574 51.0052 28.9294 50.8331 28.9294C50.8331 29.1015 50.6611 29.1015 50.317 29.1015H43.0912C40.1664 29.1015 38.6181 28.0692 38.6181 26.3488V21.1875C38.6181 19.295 40.1664 18.4348 43.0912 18.4348H50.145C50.317 18.4348 50.4891 18.4348 50.6611 18.6069C50.6611 18.7789 50.8331 18.9509 50.8331 19.123C50.8331 19.4671 50.8332 19.6391 50.6611 19.6391C50.6611 19.8112 50.489 19.8112 50.145 19.8112H43.0912C42.231 19.8112 41.5428 19.9832 41.1988 20.1552C40.8547 20.3273 40.6826 20.6714 40.6826 21.0155V22.9079H48.0805C48.2525 22.9079 48.4245 22.9079 48.5966 23.08C48.5966 23.252 48.7686 23.4241 48.7686 23.5961C48.7686 23.9402 48.7686 24.1122 48.5966 24.1122C48.5966 24.2843 48.4246 24.2843 48.0805 24.2843L40.8546 24.8004Z" fill="white"/>
<path d="M67.6934 29.2735C67.5213 29.2735 67.5213 29.2735 67.3493 29.2735H67.1772C67.1772 29.2735 67.0052 29.2735 67.0052 29.1015C67.0052 29.1015 66.8332 28.9294 66.6611 28.7574L57.3708 21.0155V28.5854C57.3708 28.9294 57.3708 29.1015 57.1987 29.1015C57.0267 29.1015 56.6826 29.2735 56.5106 29.2735C56.3385 29.2735 55.9945 29.2735 55.8224 29.1015C55.6504 29.1015 55.6504 28.7574 55.6504 28.5854V19.123C55.6504 18.7789 55.6504 18.6069 55.8224 18.6069C55.9945 18.6069 56.1665 18.4348 56.5106 18.4348C56.8547 18.4348 57.0267 18.4348 57.3708 18.6069C57.5428 18.6069 57.7149 18.7789 57.8869 19.123L67.0052 26.8649V19.123C67.0052 18.7789 67.0052 18.6069 67.1772 18.6069C67.3493 18.6069 67.6934 18.4348 67.8654 18.4348C68.2095 18.4348 68.3816 18.4348 68.5536 18.6069C68.7256 18.6069 68.7256 18.9509 68.7256 19.123V28.5854C68.7256 28.9294 68.7256 29.1015 68.5536 29.1015C68.3816 29.2735 68.0375 29.2735 67.6934 29.2735Z" fill="white"/>
<path d="M77.3278 29.2739C74.4031 29.2739 72.8547 28.2416 72.8547 26.5212V21.3599C72.8547 19.4674 74.4031 18.6072 77.3278 18.6072H84.5536C84.7256 18.6072 84.8977 18.6072 85.0697 18.7792C85.0697 18.9513 85.2418 19.1233 85.2418 19.2954C85.2418 19.6394 85.2418 19.8115 85.0697 19.8115C85.0697 19.9835 84.8977 19.9835 84.5536 19.9835H77.3278C76.4676 19.9835 75.7794 20.1556 75.4353 20.3276C75.0912 20.4997 74.9192 20.8437 74.9192 21.1878V26.3491C74.9192 26.6932 75.0912 26.8653 75.4353 27.2093C75.7794 27.3814 76.4676 27.5534 77.3278 27.5534H84.5536C84.7256 27.5534 84.8977 27.5534 85.0697 27.7255C85.2418 27.8975 85.0697 28.0695 85.0697 28.2416C85.0697 28.5857 85.0697 28.7577 85.0697 28.7577C85.0697 28.9298 84.8977 28.9298 84.5536 28.9298L77.3278 29.2739Z" fill="white"/>
<path d="M91.2633 23.08H100.898V19.123C100.898 18.7789 100.898 18.6069 101.07 18.6069C101.242 18.6069 101.586 18.4348 101.758 18.4348C101.93 18.4348 102.274 18.4348 102.446 18.6069C102.618 18.6069 102.618 18.9509 102.618 19.123V28.5854C102.618 28.9294 102.618 29.1015 102.446 29.1015C102.274 29.1015 101.93 29.2735 101.758 29.2735C101.586 29.2735 101.242 29.2735 101.07 29.1015C100.898 29.1015 100.898 28.7574 100.898 28.5854V24.6284H91.2633V28.5854C91.2633 28.9294 91.2633 29.1015 91.0913 29.1015C90.9192 29.1015 90.5751 29.2735 90.4031 29.2735C90.231 29.2735 89.8869 29.2735 89.7149 29.1015C89.5429 28.9294 89.5428 28.7574 89.5428 28.5854V19.123C89.5428 18.7789 89.5429 18.6069 89.7149 18.6069C89.8869 18.6069 90.231 18.4348 90.4031 18.4348C90.5751 18.4348 90.9192 18.4348 91.0913 18.6069C91.2633 18.6069 91.2633 18.9509 91.2633 19.123V23.08Z" fill="white"/>
<path d="M123.607 18.9509C123.779 18.7789 123.951 18.6069 124.124 18.6069C124.296 18.6069 124.64 18.4348 124.812 18.4348C125.5 18.4348 125.844 18.7789 125.844 19.4671V28.5854C125.844 28.9294 125.844 29.1015 125.672 29.1015C125.5 29.2735 125.156 29.2735 124.984 29.2735C124.812 29.2735 124.468 29.2735 124.296 29.1015C124.124 28.9294 124.124 28.7574 124.124 28.5854V21.5316L118.102 28.7574C117.93 28.9294 117.758 29.1015 117.586 29.2735C117.414 29.2735 117.242 29.4456 116.898 29.4456C116.554 29.4456 116.382 29.4456 116.21 29.2735C116.037 29.2735 115.865 29.1015 115.693 28.7574L109.672 21.5316V28.5854C109.672 28.9294 109.672 29.1015 109.5 29.1015C109.328 29.1015 108.984 29.2735 108.812 29.2735C108.468 29.2735 108.296 29.2735 108.124 29.1015C107.951 29.1015 107.951 28.7574 107.951 28.5854V19.4671C107.951 18.7789 108.296 18.4348 108.984 18.4348C109.5 18.4348 109.844 18.6069 110.188 18.9509L117.07 27.209L123.607 18.9509Z" fill="white"/>
<path d="M137.199 18.4348C137.543 18.4348 137.715 18.4348 137.887 18.6069C138.059 18.6069 138.231 18.7789 138.403 18.9509L144.941 28.2413C144.941 28.2413 144.941 28.4133 144.941 28.5854C144.941 28.5854 144.941 28.7574 144.941 28.9294L144.769 29.1015C144.769 29.1015 144.597 29.2735 144.425 29.2735C144.253 29.2735 144.081 29.2735 144.081 29.2735C143.908 29.2735 143.736 29.2735 143.736 29.2735C143.736 29.2735 143.564 29.1015 143.392 29.1015L141.672 26.5208H133.414L131.865 29.1015C131.865 29.1015 131.693 29.2735 131.521 29.2735C131.349 29.2735 131.349 29.2735 131.177 29.2735C131.005 29.2735 131.005 29.2735 130.833 29.2735C130.661 29.2735 130.661 29.2735 130.489 29.1015L130.317 28.9294C130.317 28.9294 130.317 28.7574 130.317 28.5854C130.317 28.5854 130.317 28.4133 130.317 28.2413L136.339 18.9509C136.339 18.7789 136.683 18.6069 136.855 18.6069C136.683 18.4348 136.855 18.4348 137.199 18.4348ZM134.102 24.8004H140.296L137.199 20.1552L134.102 24.8004Z" fill="white"/>
<path d="M148.726 19.123C148.726 18.6069 148.898 18.4348 149.414 18.4348H157.844C158.532 18.4348 159.048 18.4348 159.736 18.6069C160.253 18.7789 160.769 18.9509 161.113 19.123C161.457 19.295 161.801 19.6391 161.973 19.8112C162.145 20.1552 162.317 20.4993 162.317 20.8434V22.7359C162.317 23.08 162.317 23.4241 161.973 23.7682C161.801 24.1122 161.457 24.2843 161.113 24.4563C160.769 24.6284 160.253 24.8004 159.736 24.9725C159.22 25.1445 158.532 25.1445 157.844 25.1445H157.328C156.812 25.1445 156.468 25.1445 156.296 25.1445C156.124 25.1445 155.779 25.1445 155.435 25.1445C155.263 25.1445 154.919 25.1445 154.747 25.1445C154.575 25.1445 154.403 25.1445 154.231 25.1445C154.403 25.1445 154.575 25.3165 154.747 25.3165C154.919 25.3165 155.263 25.4886 155.435 25.4886C155.779 25.4886 155.952 25.6606 156.468 25.8327C156.984 26.0047 157.328 26.1768 157.844 26.3488L161.457 27.8972C161.801 28.0692 161.973 28.2413 161.973 28.5854C161.973 28.9294 161.973 29.1015 161.629 29.1015C161.457 29.1015 161.113 29.2735 160.941 29.2735C160.941 29.2735 160.769 29.2735 160.597 29.2735C160.597 29.2735 160.425 29.2735 160.253 29.2735C160.253 29.2735 160.081 29.2735 159.909 29.2735C159.909 29.2735 159.736 29.2735 159.564 29.1015L150.962 25.3165V28.5854C150.962 28.9294 150.962 29.1015 150.79 29.1015C150.618 29.1015 150.274 29.2735 150.102 29.2735C149.758 29.2735 149.586 29.2735 149.414 29.1015C149.242 29.1015 149.242 28.7574 149.242 28.5854L148.726 19.123ZM150.79 19.9832V23.5961H157.672C158.188 23.5961 158.704 23.5961 158.876 23.5961C159.22 23.5961 159.392 23.4241 159.736 23.4241C159.909 23.4241 160.081 23.252 160.253 23.08C160.253 22.9079 160.425 22.9079 160.425 22.7359V21.1875C160.425 21.0155 160.425 21.0155 160.253 20.8434C160.253 20.6714 160.081 20.6714 159.736 20.4993C159.564 20.4993 159.22 20.3273 158.876 20.3273C158.532 20.3273 158.188 20.3273 157.672 20.3273H150.79V19.9832Z" fill="white"/>
<path d="M168.339 22.7359L176.253 18.6069C176.425 18.6069 176.597 18.4348 176.769 18.4348C176.941 18.4348 177.285 18.4348 177.457 18.4348C177.629 18.4348 177.973 18.4348 177.973 18.6069C178.145 18.7789 178.145 18.9509 178.145 19.123C178.145 19.4671 177.973 19.6391 177.629 19.8112L169.715 23.7682L177.973 27.8972C178.317 28.0692 178.489 28.2413 178.489 28.5854C178.489 28.7574 178.489 28.9294 178.317 29.1015C178.145 29.2735 177.973 29.2735 177.801 29.2735C177.457 29.2735 177.285 29.2735 177.113 29.2735C176.941 29.2735 176.769 29.2735 176.597 29.1015L168.511 24.8004V28.5854C168.511 28.9294 168.511 29.1015 168.339 29.1015C168.167 29.1015 167.823 29.2735 167.65 29.2735C167.478 29.2735 167.134 29.2735 166.962 29.1015C166.79 29.1015 166.79 28.7574 166.79 28.5854V19.123C166.79 18.7789 166.79 18.6069 166.962 18.6069C167.134 18.6069 167.478 18.4348 167.65 18.4348C167.823 18.4348 168.167 18.4348 168.339 18.6069C168.511 18.6069 168.511 18.9509 168.511 19.123L168.339 22.7359Z" fill="white"/>
<path d="M111.22 39.7694L110.704 38.221H108.984L108.468 39.7694H107.779L109.672 34.9521H110.36L112.253 39.7694H111.22ZM110.532 37.7048L110.016 35.8124L109.5 37.7048H110.532Z" fill="white"/>
<path d="M119.822 39.7684L117.414 35.9834V39.7684H116.726V34.9512H117.414L119.822 38.5641V34.9512H120.511V39.7684H119.822Z" fill="white"/>
<path d="M128.941 39.7684L128.425 38.22H126.704L126.188 39.7684H125.5L127.392 34.9512H128.081L129.973 39.7684H128.941ZM128.081 37.7039L127.564 35.8114L127.048 37.7039H128.081Z" fill="white"/>
<path d="M134.446 39.7684V34.9512H135.134V39.0802H136.855V39.7684H134.446Z" fill="white"/>
<path d="M142.188 39.7684V38.0479L140.64 34.9512H141.5L142.532 37.1877L143.564 34.9512H144.425L142.876 38.0479V39.7684H142.188Z" fill="white"/>
<path d="M149.758 39.7684V35.6393H148.726V34.9512H151.306V35.6393H150.274V39.7684H149.758Z" fill="white"/>
<path d="M156.124 39.7684V34.9512H156.812V39.7684H156.124Z" fill="white"/>
<path d="M165.758 36.1554C165.586 35.9834 165.242 35.4672 164.382 35.4672C163.349 35.4672 162.661 36.3274 162.661 37.3597C162.661 38.392 163.521 39.2522 164.382 39.2522C164.898 39.2522 165.414 39.0801 165.758 38.564H166.618C166.102 39.5963 165.07 39.9403 164.382 39.9403C163.005 39.9403 161.801 38.736 161.801 37.3597C161.801 35.9834 162.833 34.7791 164.382 34.7791C164.726 34.7791 165.414 34.7791 165.93 35.2952C166.446 35.6393 166.446 35.9834 166.618 36.1554H165.758Z" fill="white"/>
<path d="M171.78 38.392C171.78 38.564 171.78 39.2522 172.64 39.2522C173.156 39.2522 173.5 38.9081 173.5 38.392C173.5 37.8758 172.984 37.7038 172.64 37.5317C171.952 37.3597 171.779 37.1877 171.607 37.0156C171.435 36.8436 171.263 36.4995 171.263 36.1554C171.263 35.6393 171.78 34.7791 172.64 34.7791C173.5 34.7791 174.016 35.2952 174.016 36.1554H173.328C173.328 35.6393 172.984 35.4672 172.64 35.4672C172.124 35.4672 171.952 35.8113 171.952 36.1554C171.952 36.6715 172.468 36.6715 172.64 36.8436C173.156 37.0156 174.188 37.3597 174.188 38.392C174.188 39.2522 173.672 39.9403 172.64 39.9403C171.952 39.9403 171.091 39.4242 171.091 38.392H171.78Z" fill="white"/>
<path d="M177.113 35.2953H176.597V36.4996H176.253V35.2953H175.736V34.9512H176.941L177.113 35.2953ZM178.317 35.9834L178.661 34.9512H179.177V36.4996H178.661V35.4673L178.317 36.4996H177.973L177.629 35.4673V36.4996H177.285V34.9512H177.801L178.317 35.9834Z" fill="white"/>
<defs>
<linearGradient id="paint0_linear" x1="26.7022" y1="53.0012" x2="9.71242" y2="2.03191" gradientUnits="userSpaceOnUse">
<stop stop-color="#059093"/>
<stop offset="1" stop-color="#96BD3D"/>
</linearGradient>
<linearGradient id="paint1_linear" x1="30.4591" y1="51.7488" x2="13.4691" y2="0.779674" gradientUnits="userSpaceOnUse">
<stop stop-color="#059093"/>
<stop offset="1" stop-color="#96BD3D"/>
</linearGradient>
<linearGradient id="paint2_linear" x1="29.7539" y1="51.984" x2="12.7641" y2="1.01491" gradientUnits="userSpaceOnUse">
<stop stop-color="#059093"/>
<stop offset="1" stop-color="#96BD3D"/>
</linearGradient>
<linearGradient id="paint3_linear" x1="32.8815" y1="50.9414" x2="15.8917" y2="-0.0279437" gradientUnits="userSpaceOnUse">
<stop stop-color="#059093"/>
<stop offset="1" stop-color="#96BD3D"/>
</linearGradient>
<linearGradient id="paint4_linear" x1="19.2601" y1="55.4817" x2="2.27034" y2="4.51235" gradientUnits="userSpaceOnUse">
<stop stop-color="#059093"/>
<stop offset="1" stop-color="#96BD3D"/>
</linearGradient>
<linearGradient id="paint5_linear" x1="54.3375" y1="43.7891" x2="37.348" y2="-7.18031" gradientUnits="userSpaceOnUse">
<stop stop-color="#059093"/>
<stop offset="1" stop-color="#96BD3D"/>
</linearGradient>
<linearGradient id="paint6_linear" x1="47.1148" y1="46.1969" x2="30.1251" y2="-4.77246" gradientUnits="userSpaceOnUse">
<stop stop-color="#059093"/>
<stop offset="1" stop-color="#96BD3D"/>
</linearGradient>
<linearGradient id="paint7_linear" x1="37.5365" y1="49.3897" x2="20.5467" y2="-1.5795" gradientUnits="userSpaceOnUse">
<stop stop-color="#059093"/>
<stop offset="1" stop-color="#96BD3D"/>
</linearGradient>
<linearGradient id="paint8_linear" x1="36.7759" y1="49.6435" x2="19.7861" y2="-1.32583" gradientUnits="userSpaceOnUse">
<stop stop-color="#059093"/>
<stop offset="1" stop-color="#96BD3D"/>
</linearGradient>
<linearGradient id="paint9_linear" x1="29.7396" y1="51.9888" x2="12.7498" y2="1.01944" gradientUnits="userSpaceOnUse">
<stop stop-color="#059093"/>
<stop offset="1" stop-color="#96BD3D"/>
</linearGradient>
</defs>
</svg>
