<svg width="136" height="50" viewBox="0 0 136 50" fill="none" xmlns="http://www.w3.org/2000/svg">
<path d="M85.5233 23.5746C87.9095 21.9817 89.1821 19.5924 89.1821 16.7252V16.5659C89.1821 14.1766 88.3867 12.2651 86.7959 10.6723C84.8869 8.76082 81.7053 7.64581 78.0465 7.64581H62.6157V40.9369H78.5237C86.4777 40.9369 91.0911 37.5919 91.0911 31.5389V31.3797C91.0911 27.8753 89.3412 25.3267 85.5233 23.5746ZM78.3646 33.9282H70.4106V27.8753H78.0465C81.2281 27.8753 82.8189 28.831 82.8189 30.9018V31.0611C82.978 32.8132 81.3872 33.9282 78.3646 33.9282ZM70.4106 20.8667V14.973H76.9329C78.8419 14.973 81.069 15.4509 81.069 17.8402V17.9995C81.069 19.9109 79.4782 20.8667 76.4557 20.8667H70.4106Z" fill="white"/>
<path d="M117.657 7.80508H104.613V41.0962H117.657C122.589 41.0962 127.202 39.344 130.384 36.3175C133.565 33.2911 135.315 28.9903 135.315 24.371V24.2117C135.315 14.6544 127.998 7.80508 117.657 7.80508ZM126.884 24.371C126.884 29.946 123.225 33.6097 117.657 33.6097H112.726V15.1323H117.657C123.225 15.1323 126.884 18.9552 126.884 24.371Z" fill="white"/>
<path d="M97.2952 7.64581C99.5223 7.64581 101.431 9.39798 101.431 11.7873V41.0962H93.3182V7.64581H97.2952Z" fill="white"/>
<path d="M28.5725 29.4682C24.2774 36.4768 38.1174 36.4768 31.7541 49.5384C31.5951 49.5384 31.436 49.5384 31.1178 49.6977C16.3234 51.9277 2.48339 41.574 0.256267 26.7603C-0.698214 19.5924 1.05167 12.743 4.86959 7.32722C4.23327 22.9374 32.5495 22.9374 28.5725 29.4682ZM34.7767 48.9013C36.2084 46.1934 39.39 42.2112 46.2304 34.0875C56.4116 22.141 26.1863 26.1231 21.0958 17.0438C16.6415 9.55725 32.5495 4.14147 42.0944 0C48.2985 4.14147 52.9118 10.8315 54.0254 18.7959C56.0934 32.3354 47.6622 45.0784 34.7767 48.9013ZM25.7091 14.4952C24.7546 14.973 26.5045 17.3623 31.1178 17.5216C35.8902 17.6809 29.8452 12.4244 25.7091 14.4952ZM36.0493 17.0438C32.5496 15.9287 34.7767 18.6366 36.5266 18.9552C38.1174 19.1145 38.4355 17.8402 36.0493 17.0438ZM39.7082 19.7516C38.5946 19.7516 38.2764 20.3888 40.0263 20.7074C42.5716 21.3445 40.8217 19.9109 39.7082 19.7516Z" fill="white"/>
</svg>
