<svg width="88" height="72" viewBox="0 0 88 72" fill="none" xmlns="http://www.w3.org/2000/svg">
<g clip-path="url(#clip0)">
<path d="M11.2728 10.2545V15.2727H21.6094V25.5273H11.2728V37.7455H0.720825V0H23.1169L23.7629 10.2545H11.2728Z" fill="white"/>
<path d="M54.1268 5.89082C57.5723 9.59992 59.2951 13.9636 59.2951 18.9817C59.2951 24.2181 57.5723 28.5817 54.1268 32.0726C50.6812 35.7817 46.3743 37.5272 41.4213 37.5272C36.4683 37.5272 32.1614 35.7817 28.7159 32.0726C25.2703 28.3636 23.5475 23.9999 23.5475 18.9817C23.5475 13.9636 25.2703 9.59992 28.7159 5.89082C32.1614 2.18173 36.4683 0.436279 41.4213 0.436279C46.3743 0.436279 50.6812 2.18173 54.1268 5.89082ZM38.4065 26.3999C38.4065 27.2726 38.6218 27.9272 39.2678 28.5817C39.9139 29.2363 40.5599 29.4545 41.4213 29.4545C42.2827 29.4545 42.9287 29.2363 43.5748 28.5817C44.2208 27.9272 44.4362 27.2726 44.4362 26.3999V11.1272C44.4362 10.2545 44.2208 9.59992 43.5748 8.94537C42.9287 8.29082 42.2827 8.07264 41.4213 8.07264C40.5599 8.07264 39.9139 8.29082 39.2678 8.94537C38.6218 9.59992 38.4065 10.2545 38.4065 11.1272V26.3999Z" fill="white"/>
<path d="M75.8768 37.9636L70.4931 28.3636L65.3248 37.9636H53.6961L64.8941 18.3273L54.3421 0H66.4015L70.7085 8.07273L75.2307 0H86.6441L76.5228 18.1091L87.7208 37.9636H75.8768Z" fill="white"/>
<path d="M27.4238 70.2544H18.1639L9.33469 54.1089V70.2544H0.720825V40.1453H9.98073L18.5946 56.7271L18.3792 40.3634H27.4238V41.8907C26.9931 42.1089 26.7778 42.5453 26.5624 42.7634C23.3322 46.2544 21.6094 50.3998 21.6094 55.1998C21.6094 59.9998 23.3322 64.3634 26.5624 67.6362C26.9931 68.0725 27.2084 68.2907 27.6391 68.5089L27.4238 70.2544Z" fill="#478DCB"/>
<path d="M87.7208 40.1453L79.3223 70.2544H70.2778L67.2629 51.9271L63.8174 70.4725H55.2035L53.4807 64.1453C54.9882 61.5271 55.6342 58.4725 55.6342 55.418C55.6342 50.618 53.9114 46.4725 50.6812 42.9816C49.6045 41.8907 48.5278 41.018 47.451 40.3634H56.2803L59.7258 58.0362L63.3867 40.3634H71.5699L75.0154 58.9089L78.6763 40.3634L87.7208 40.1453Z" fill="#478DCB"/>
<path d="M50.0352 43.2001C53.2654 46.4728 54.7728 50.4001 54.7728 54.9819C54.7728 59.5637 53.2654 63.7092 50.0352 66.9819C46.805 70.2546 42.9288 72.0001 38.6218 72.0001C34.0996 72.0001 30.2233 70.2546 26.9931 66.9819C23.7629 63.7092 22.2555 59.7819 22.2555 54.9819C22.2555 50.4001 23.7629 46.4728 26.9931 43.2001C30.2233 39.9273 34.0996 38.1819 38.6218 38.1819C43.1441 38.4001 47.0203 39.9273 50.0352 43.2001ZM35.8223 61.9637C35.8223 62.6182 36.0377 63.491 36.6837 63.9273C37.3298 64.5819 37.9758 64.8001 38.6218 64.8001C39.4832 64.8001 40.1293 64.5819 40.5599 63.9273C41.206 63.2728 41.4213 62.6182 41.4213 61.9637V48.2182C41.4213 47.3455 41.206 46.691 40.5599 46.2546C39.9139 45.6001 39.2679 45.3819 38.6218 45.3819C37.7604 45.3819 37.1144 45.6001 36.6837 46.2546C36.0377 46.9092 35.8223 47.5637 35.8223 48.2182V61.9637Z" fill="#478DCB"/>
</g>
<defs>
<clipPath id="clip0">
<rect width="87" height="72" fill="white" transform="translate(0.720825)"/>
</clipPath>
</defs>
</svg>
