<svg width="144" height="32" viewBox="0 0 144 32" fill="none" xmlns="http://www.w3.org/2000/svg">
<path d="M6.5018 0H0V32H6.5018V0Z" fill="#011625"/>
<path d="M3.25092 15.9809L14.7768 0H22.6085L10.7132 15.9809L22.5716 31.9619H14.7768L3.25092 15.9809Z" fill="#FF7640"/>
<path d="M18.1016 15.9809C18.1016 7.28484 24.6034 0.610229 33.1739 0.610229C41.7445 0.610229 48.2463 7.28484 48.2463 15.9809C48.2463 24.677 41.7445 31.3516 33.1739 31.3516C24.6034 31.3516 18.1016 24.677 18.1016 15.9809ZM41.9292 15.9809C41.9292 10.7175 38.1611 6.56017 33.1739 6.56017C28.1868 6.56017 24.4187 10.7175 24.4187 15.9809C24.4187 21.2443 28.1868 25.4016 33.1739 25.4016C38.1611 25.4016 41.9292 21.2825 41.9292 15.9809Z" fill="#011625"/>
<path d="M48.8743 1.06787H56.9646C62.0995 1.06787 66.0893 1.94511 69.0816 4.08098C72.628 6.63641 74.6229 10.8319 74.6229 15.9427C74.6229 20.634 72.9236 24.6388 69.8204 27.2324C66.8651 29.7115 62.7276 30.8939 56.6321 30.8939H48.8004V1.06787H48.8743ZM56.9646 25.1728C61.0652 25.1728 63.725 24.4481 65.4982 22.808C67.1976 21.2824 68.3058 18.8796 68.3058 15.9427C68.3058 12.8152 67.1237 10.1835 64.9441 8.61972C62.9123 7.13223 60.1416 6.78897 56.9277 6.78897H55.2283V25.1728H56.9646Z" fill="#011625"/>
<path d="M79.7947 8.92489L73.921 11.0989V5.18711L86.1488 0.610229V30.8939H79.7947V8.92489Z" fill="#011625"/>
<path d="M113.744 28.8724C111.159 30.3599 107.501 31.3516 103.918 31.3516C94.6455 31.3516 88.1437 24.8677 88.1437 16.0953C88.1437 7.28484 94.7194 0.610229 103.955 0.610229C107.501 0.610229 110.567 1.60189 112.821 2.86053V9.45886C110.383 7.74253 107.243 6.48389 104.066 6.48389C98.2289 6.48389 94.4977 10.7175 94.4977 16.0572C94.4977 21.2443 98.0811 25.6305 104.029 25.6305C105.359 25.6305 106.615 25.4016 107.575 24.9821V20.4815H102.551V15.0274H113.744V28.8724Z" fill="#011625"/>
<path d="M113.818 15.9809C113.818 7.28484 120.32 0.610229 128.891 0.610229C137.461 0.610229 143.963 7.28484 143.963 15.9809C143.963 24.677 137.461 31.3516 128.891 31.3516C120.32 31.3516 113.818 24.677 113.818 15.9809ZM137.646 15.9809C137.646 10.7175 133.878 6.56017 128.891 6.56017C123.904 6.56017 120.135 10.7175 120.135 15.9809C120.135 21.2443 123.904 25.4016 128.891 25.4016C133.915 25.4398 137.646 21.2825 137.646 15.9809Z" fill="#011625"/>
</svg>
