<svg width="168" height="38" viewBox="0 0 168 38" fill="none" xmlns="http://www.w3.org/2000/svg">
<path d="M7.56217 0H0V37.2188H7.56217V0Z" fill="white"/>
<path d="M3.78107 18.5872L17.1867 0H26.2957L12.4604 18.5872L26.2527 37.1745H17.1867L3.78107 18.5872Z" fill="#FF7640"/>
<path d="M21.0538 18.5872C21.0538 8.47295 28.6159 0.709778 38.5842 0.709778C48.5526 0.709778 56.1147 8.47295 56.1147 18.5872C56.1147 28.7015 48.5526 36.4647 38.5842 36.4647C28.6159 36.4647 21.0538 28.7015 21.0538 18.5872ZM48.7674 18.5872C48.7674 12.4654 44.3848 7.63009 38.5842 7.63009C32.7837 7.63009 28.4011 12.4654 28.4011 18.5872C28.4011 24.7091 32.7837 29.5444 38.5842 29.5444C44.3848 29.5444 48.7674 24.7534 48.7674 18.5872Z" fill="white"/>
<path d="M56.8451 1.24207H66.2549C72.2273 1.24207 76.8677 2.26237 80.348 4.74658C84.4729 7.71877 86.7931 12.5985 86.7931 18.5428C86.7931 23.9992 84.8166 28.6571 81.2074 31.6737C77.77 34.5571 72.9577 35.9323 65.8682 35.9323H56.7592V1.24207H56.8451ZM66.2549 29.2782C71.0242 29.2782 74.1178 28.4353 76.1803 26.5278C78.1567 24.7534 79.4457 21.9586 79.4457 18.5428C79.4457 14.9052 78.0708 11.8443 75.5357 10.0255C73.1726 8.29546 69.9501 7.89621 66.2119 7.89621H64.2355V29.2782H66.2549Z" fill="white"/>
<path d="M92.8084 10.3805L85.9767 12.909V6.03309L100.199 0.709778V35.9324H92.8084V10.3805Z" fill="white"/>
<path d="M132.295 33.5812C129.287 35.3113 125.034 36.4647 120.866 36.4647C110.081 36.4647 102.519 28.9233 102.519 18.7203C102.519 8.47295 110.167 0.709778 120.909 0.709778C125.034 0.709778 128.6 1.86316 131.221 3.32707V11.0015C128.385 9.00528 124.733 7.54136 121.038 7.54136C114.249 7.54136 109.909 12.4654 109.909 18.676C109.909 24.7091 114.077 29.8106 120.995 29.8106C122.541 29.8106 124.002 29.5444 125.12 29.0564V23.8218H119.276V17.4782H132.295V33.5812Z" fill="white"/>
<path d="M132.381 18.5872C132.381 8.47295 139.943 0.709778 149.911 0.709778C159.88 0.709778 167.442 8.47295 167.442 18.5872C167.442 28.7015 159.88 36.4647 149.911 36.4647C139.943 36.4647 132.381 28.7015 132.381 18.5872ZM160.095 18.5872C160.095 12.4654 155.712 7.63009 149.911 7.63009C144.111 7.63009 139.728 12.4654 139.728 18.5872C139.728 24.7091 144.111 29.5444 149.911 29.5444C155.755 29.5888 160.095 24.7534 160.095 18.5872Z" fill="white"/>
</svg>
