<svg width="135" height="54" viewBox="0 0 135 54" fill="none" xmlns="http://www.w3.org/2000/svg">
<path d="M28.7365 36.1291C12.9086 36.1291 0.177368 39.914 0.177368 44.7312C0.177368 49.3764 12.9086 53.3334 28.7365 53.3334C44.5645 53.3334 57.2957 49.5484 57.2957 44.7312C57.2957 39.914 44.5645 36.1291 28.7365 36.1291ZM69.6828 31.4839C61.7688 31.4839 55.4032 33.3764 55.4032 35.785C55.4032 38.1936 61.7688 40.0861 69.6828 40.0861C77.5968 40.0861 83.9624 38.1936 83.9624 35.785C84.1344 33.3764 77.5968 31.4839 69.6828 31.4839ZM88.9516 29.9355C85.8549 29.9355 83.4462 30.6237 83.4462 31.6559C83.4462 32.5162 85.8549 33.3764 88.9516 33.3764C92.0484 33.3764 94.457 32.6882 94.457 31.6559C94.457 30.6237 92.0484 29.9355 88.9516 29.9355ZM88.9516 5.84947C90.6721 5.84947 92.0484 4.47312 92.0484 2.92473C92.0484 1.37635 90.6721 0 88.9516 0C87.2312 0 85.8549 1.37635 85.8549 2.92473C85.8549 4.47312 87.2312 5.84947 88.9516 5.84947Z" fill="#A01D2E"/>
<path d="M86.199 27.0108H91.3603V24.4301V8.43011H86.199V27.0108ZM75.7043 3.44086C73.9839 3.44086 73.4678 4.12904 72.9517 5.67742L69.6828 18.2366L66.414 5.67742C65.8979 4.12904 65.3817 3.61291 63.6613 3.44086H59.5323L56.4355 27.0108H61.0806L63.1452 10.8387L67.4463 27.0108H72.0914L76.3925 10.8387L78.457 27.0108H83.1021L80.0054 3.44086H75.7043ZM95.1452 27.0108H100.134V24.9463V1.2043H95.1452V27.0108ZM129.21 15.6559C126.801 14.9678 125.941 14.6237 125.941 13.4194C125.941 12.3871 126.629 11.871 128.694 11.871C129.382 11.871 130.07 11.871 130.586 12.043C132.651 12.3871 133.167 11.871 133.167 9.9785V8.7742C132.135 8.43011 130.242 8.08603 128.35 8.08603C124.049 8.08603 121.124 9.80646 121.124 13.7635C121.124 16.8602 123.016 18.4086 125.425 19.2688C127.833 20.129 129.554 20.3011 129.554 21.6774C129.554 22.8817 128.522 23.5699 126.457 23.5699C125.597 23.5699 124.737 23.3979 123.704 23.2258C121.64 22.8817 121.124 23.3979 121.124 25.2903V26.1506C122.5 26.8387 124.565 27.1828 127.145 27.1828C131.446 27.1828 134.371 25.1183 134.371 21.3334C134.543 17.7204 131.79 16.3441 129.21 15.6559ZM111.489 8.08603C105.64 8.08603 102.715 12.3871 102.715 17.7204C102.715 23.3979 105.64 27.3549 112.349 27.3549C114.586 27.3549 116.651 26.8387 118.199 26.3226V25.2903C118.199 23.3979 117.683 22.8817 115.618 23.2258C114.758 23.3979 113.726 23.5699 112.694 23.5699C109.081 23.5699 107.876 21.6774 107.876 18.5807H119.403C119.403 18.0645 119.575 17.3764 119.575 16.8602C119.403 12.2151 117.511 8.08603 111.489 8.08603ZM114.414 15.4839H108.048C108.22 13.0753 109.597 11.6989 111.489 11.6989C113.554 11.6989 114.414 13.4194 114.414 15.1398V15.4839ZM18.0699 27.0108H23.2311V24.6022V8.43011H18.0699V27.0108ZM7.40321 3.44086H2.24191V27.0108H10.672C13.0806 27.0108 13.9409 26.3226 15.3172 24.2581L16.1774 22.8817H7.40321V3.44086ZM20.6505 0C18.9301 0 17.5537 1.37635 17.5537 2.92473C17.5537 4.47312 18.9301 5.84947 20.6505 5.84947C22.3709 5.84947 23.7473 4.47312 23.7473 2.92473C23.7473 1.37635 22.3709 0 20.6505 0ZM47.3172 8.08603C41.4677 8.08603 38.543 12.3871 38.543 17.7204C38.543 23.3979 41.4677 27.3549 48.1774 27.3549C50.414 27.3549 52.4785 26.8387 54.0269 26.3226V25.2903C54.0269 23.3979 53.5108 22.8817 51.4463 23.2258C50.5861 23.3979 49.5538 23.5699 48.5215 23.5699C44.9086 23.5699 43.7043 21.6774 43.7043 18.5807H55.2312C55.2312 18.0645 55.4032 17.3764 55.4032 16.8602C55.2312 12.2151 53.3387 8.08603 47.3172 8.08603ZM50.2419 15.4839H43.8763C44.0484 13.0753 45.4247 11.6989 47.3172 11.6989C49.3817 11.6989 50.2419 13.4194 50.2419 15.1398V15.4839ZM40.2635 8.43011H33.8978V7.22581C33.8978 5.33334 34.586 4.64517 36.4785 4.64517C37.5107 4.64517 38.1989 4.81721 38.8871 4.98925V1.2043C38.0269 1.03226 36.8226 0.688173 35.1022 0.688173C31.1452 0.688173 28.5645 2.58065 28.5645 6.53764V8.43011H25.6398V12.5592H28.5645V27.0108H33.7258V12.5592H34.586C36.9946 12.5592 37.8548 11.871 39.2312 9.80646L40.2635 8.43011Z" fill="white"/>
</svg>
