<svg width="73" height="100" viewBox="0 0 73 100" fill="none" xmlns="http://www.w3.org/2000/svg">
<path fill-rule="evenodd" clip-rule="evenodd" d="M70.4843 23.8184C67.7316 20.8937 61.8821 18.4851 54.3122 17.1087C54.3122 16.2485 54.8284 15.9044 55.8606 15.2163C56.3767 14.8722 56.8929 14.5281 57.409 13.8399C59.8176 11.6034 56.8929 7.99045 56.7208 7.81841L55.1724 5.92593L55.5165 8.33453C55.6886 10.055 55.1724 10.5711 53.28 11.9474C53.1079 12.1195 52.9359 12.2915 52.5918 12.4636C52.5918 11.4313 52.7638 10.055 52.4197 8.50657C52.0757 6.95819 51.2154 6.27001 51.2154 6.27001L51.0434 8.50657C51.0434 8.50657 50.8714 10.227 48.4628 12.4636C48.6348 12.2915 48.9789 11.9474 49.1509 11.7754C50.3552 10.055 50.0111 8.16249 49.495 5.92593V5.4098C49.1509 3.17324 49.6671 1.62485 50.1832 1.45281C50.6993 0.936678 51.3875 0.0764636 51.3875 0.0764636C51.3875 0.0764636 50.8714 -0.0955795 49.8391 0.0764636C48.2907 0.248507 45.8821 1.10872 46.0541 3.17324C46.0541 4.03345 46.3982 4.89367 46.5703 5.75389C46.9144 6.44206 47.0864 7.30227 46.9144 7.64636C46.7423 7.99044 46.2262 8.16249 45.366 8.33453C41.9251 9.02271 39.1724 10.5711 37.9681 12.9797C37.452 13.6679 37.2799 14.5281 37.1079 15.3883C28.5057 15.3883 20.2477 16.4206 13.8821 18.4851C6.82831 20.7216 2.87132 23.6464 2.52723 27.0872C2.35519 28.9797 3.21541 31.5604 7.68853 34.141L9.06487 34.8292L9.75305 35.1733C11.8176 36.0335 14.2262 36.8937 17.1509 37.5819C16.1186 38.098 15.2584 38.7862 14.3982 39.4743C9.92509 43.0873 7.51648 48.4206 7.51648 54.2701C7.51648 59.4314 9.40896 64.0765 13.0219 67.6894C16.6348 71.3023 21.452 73.3668 26.6133 73.3668C35.5595 73.3668 43.4735 67.0012 45.366 58.055C46.9144 53.4098 46.7423 48.4206 46.7423 46.5281C46.5703 42.227 48.6348 39.9905 50.0111 38.9582C56.0327 38.27 61.366 36.8937 65.495 35.1733L66.1832 34.8292L67.5595 34.141C70.6563 32.4206 72.5488 30.184 72.7208 27.9474C72.2047 26.5711 71.6886 25.1948 70.4843 23.8184ZM64.1187 27.6034C64.6348 28.1195 64.6348 28.4636 64.6348 28.6356C64.6348 29.3238 63.7746 30.184 62.2262 30.8722C59.1294 32.4206 53.9681 33.6249 47.7746 34.3131C47.9466 34.141 48.2907 33.969 48.6348 33.7969H48.8068C50.5273 33.1087 52.5918 32.2485 52.5918 29.3238C52.5918 28.8077 52.5918 27.4313 52.9359 26.9152C53.28 26.227 54.1402 25.1948 54.8284 24.8507L53.6241 24.6786H53.452C53.7961 24.3345 54.1402 23.9905 54.3122 23.6464C59.4735 24.6786 62.9144 26.055 64.1187 27.6034ZM9.40896 28.2915C9.581 25.8829 18.3552 22.6141 32.6348 22.098C31.2584 23.1302 29.7101 24.8507 29.366 27.6034L29.1939 28.6356C29.1939 29.3238 29.0219 30.012 28.6778 30.7001C28.1617 32.0765 26.6133 33.2808 24.8928 34.141C19.2154 33.4528 14.3982 32.2485 11.4735 30.7001C10.2692 29.8399 9.40896 28.9797 9.40896 28.2915Z" fill="#171F23"/>
<path fill-rule="evenodd" clip-rule="evenodd" d="M53.452 16.9366C53.624 15.2161 55.1724 14.872 56.7208 13.3236C58.7853 11.4312 56.2047 8.16235 56.2047 8.16235C56.5488 10.3989 55.5165 11.0871 53.624 12.4634C53.1079 12.8075 52.5918 13.3237 52.5918 14.0118C52.5918 14.872 52.4197 15.7323 52.2477 16.5925C52.7638 16.7645 53.28 16.7645 53.452 16.9366Z" fill="#F7982C"/>
<path fill-rule="evenodd" clip-rule="evenodd" d="M47.9466 13.8401C47.4305 14.1842 47.0864 14.5283 46.5702 14.8724C46.2262 15.2164 45.8821 15.5605 45.71 15.7326C47.4305 15.9046 49.3229 16.0767 50.8713 16.2487C51.9036 14.3562 52.4197 12.1197 51.7315 8.33472C51.7315 8.50676 51.7315 11.0874 47.9466 13.8401Z" fill="#F7982C"/>
<path fill-rule="evenodd" clip-rule="evenodd" d="M38.1402 15.5604C40.2047 15.5604 42.0971 15.5604 44.1617 15.7325L44.3337 15.5604C45.538 14.1841 47.6025 12.9798 48.6348 11.4314C49.667 9.88301 49.323 7.81849 48.9789 5.58193C48.2907 1.62493 50.0111 0.936768 50.0111 0.936768C50.0111 0.936768 46.5703 1.45289 46.7423 3.34537C46.7423 5.92601 49.495 8.50666 45.366 9.19484C40.8928 9.88301 38.1402 12.4637 37.452 15.5604C37.624 15.5604 37.7961 15.5604 38.1402 15.5604Z" fill="#F7982C"/>
<path fill-rule="evenodd" clip-rule="evenodd" d="M19.3875 86.6142L21.7961 76.6357H17.8391L15.2584 86.6142H19.3875Z" fill="white"/>
<path fill-rule="evenodd" clip-rule="evenodd" d="M28.1616 79.0443L28.5057 83.1734H26.4412L28.5057 86.6142H32.1186L31.6025 76.6357H25.581L20.5917 86.6142H24.3767L28.1616 79.0443Z" fill="white"/>
<path fill-rule="evenodd" clip-rule="evenodd" d="M18.8713 95.7325L18.0111 99.1733H21.796L24.2046 89.1948H20.4197L19.5595 93.1518H16.6348L17.667 89.1948H13.8821L11.4735 99.1733H15.2584L15.9466 95.7325H18.8713Z" fill="white"/>
<path fill-rule="evenodd" clip-rule="evenodd" d="M27.8176 96.9368L28.1616 95.5604H32.8068L33.495 93.3239H28.6778L29.0219 91.9475H33.8391L34.5272 89.1948H25.9251L23.5165 99.1733H31.9466L32.6348 96.9368H27.8176Z" fill="white"/>
<path fill-rule="evenodd" clip-rule="evenodd" d="M52.2477 86.6142L54.8283 76.6357H50.6993L48.1186 86.6142H52.2477Z" fill="white"/>
<path fill-rule="evenodd" clip-rule="evenodd" d="M58.9574 84.3777C59.4735 85.0659 59.9896 86.6142 57.581 87.8185C54.6563 89.1949 57.581 92.4637 53.624 92.4637H51.9036L50.3552 99.3454H46.3982L47.9466 92.4637H45.1939L46.0541 89.3669H53.1079C57.2369 89.3669 54.3122 86.4422 56.3767 86.0981C57.9251 85.754 58.7853 85.4099 58.9574 84.3777Z" fill="white"/>
<path fill-rule="evenodd" clip-rule="evenodd" d="M8.37668 81.797L7.68851 76.6357H2.69925L0.290649 86.6142H4.0756L5.2799 81.4529H5.45194L6.14012 86.6142H8.20463L11.3014 81.4529L10.0971 86.6142H13.538L15.9466 76.6357H11.3014L8.37668 81.797Z" fill="white"/>
<path fill-rule="evenodd" clip-rule="evenodd" d="M41.409 81.797L40.5488 76.6357H35.7315L33.1509 86.6142H36.9358L38.3122 81.4529L39.0004 86.6142H41.2369L44.1617 81.4529H44.3337L42.9574 86.6142H46.5703L48.9789 76.6357H44.1617L41.409 81.797Z" fill="white"/>
<path fill-rule="evenodd" clip-rule="evenodd" d="M40.7208 91.6034L40.8928 95.7325H38.8283L40.8928 99.1733H44.6778L44.1617 89.1948C44.1617 89.1948 37.9681 89.1948 38.1402 89.1948L33.1509 99.1733H36.9358L40.7208 91.6034Z" fill="white"/>
<path fill-rule="evenodd" clip-rule="evenodd" d="M7.68848 55.6463C8.20461 58.227 9.58096 61.1517 12.5057 63.2162C13.3659 63.9044 14.3982 64.2485 15.4304 64.7646C14.7423 63.7323 14.0541 62.7001 13.3659 61.6678C11.9896 59.6033 10.6132 57.5388 9.58096 55.3022C8.72074 53.0657 8.37666 50.6571 8.89279 48.0764C8.20461 50.1409 7.68848 52.2054 7.68848 54.442C7.68848 54.7861 7.68848 55.3022 7.68848 55.6463Z" fill="#C43C3C"/>
<path fill-rule="evenodd" clip-rule="evenodd" d="M10.7853 54.6142C11.6455 56.6787 13.0219 58.7432 14.3982 60.6357C15.4305 62.1841 16.4627 63.5604 17.1509 65.1088C18.0111 65.2809 18.8713 65.4529 19.7315 65.4529C18.8713 64.0766 18.0111 62.7002 17.3229 60.9798C14.7423 54.2701 15.0864 46.1841 18.3552 41.5389C20.0756 39.1303 22.1402 37.4099 24.7208 36.0335C26.9574 34.8292 28.3337 34.4852 29.8821 33.6249C31.4305 32.5927 32.2907 31.0443 31.2584 27.6034C30.9144 26.5712 30.9144 25.711 30.9144 25.1948C30.5703 25.883 30.2262 26.7432 30.2262 27.6034C30.0541 28.4636 30.0541 29.6679 29.538 30.7002C28.1617 34.3131 21.452 36.3776 20.5918 36.5497C18.0111 37.2378 16.1186 38.4421 14.3982 39.8185C9.92509 44.1196 9.06487 50.1411 10.7853 54.6142Z" fill="#C43C3C"/>
<path fill-rule="evenodd" clip-rule="evenodd" d="M38.6563 21.9258C38.6563 22.0978 38.8283 22.4419 38.8283 22.614C39.0003 23.8183 38.6563 24.8505 37.1079 25.1946C35.5595 25.3666 34.8713 23.9903 34.8713 22.958C34.8713 22.4419 34.8713 22.2699 34.8713 21.9258C34.6993 21.9258 34.3552 21.9258 34.1831 21.9258C33.667 22.0978 32.9788 22.614 32.2907 23.3021C31.9466 23.9903 31.6025 24.8505 32.2907 27.0871C33.3229 30.872 32.8068 33.2806 29.71 34.657C25.753 36.3774 23.1724 37.4097 19.7315 41.7107C18.1831 43.7753 17.1509 47.0441 17.1509 50.657C16.9788 53.9258 17.667 57.5387 18.8713 60.4635C19.5595 62.3559 20.5917 64.0764 21.624 65.6247C22.6563 65.6247 23.8606 65.4527 24.8928 65.1086C23.3444 63.9043 22.6563 62.1839 22.6563 60.2914C22.3122 53.9258 25.581 51.3452 30.9143 47.0441L33.1509 44.9796C42.6133 37.0656 39.8606 28.9796 40.8928 21.9258C40.2047 22.0978 39.3444 22.0978 38.6563 21.9258Z" fill="#C43C3C"/>
<path fill-rule="evenodd" clip-rule="evenodd" d="M42.4412 22.0981C42.0971 23.4745 42.0971 25.0229 41.9251 26.3992C41.581 32.4207 41.753 39.3025 34.0111 46.0121L31.7745 47.9046C26.6132 52.0337 23.6885 54.6143 24.0326 60.1197C24.0326 62.0122 24.8928 63.5605 26.2692 64.7649C27.6455 64.4208 29.0218 63.7326 30.3982 63.0444C37.1079 59.2595 41.2369 53.5821 42.7853 46.3562C43.8176 41.8831 43.8176 38.0982 43.6455 35.1734C43.6455 33.625 43.8176 30.7003 43.8176 30.7003C43.9896 28.8078 44.3337 26.2272 46.5702 22.7863C46.5702 22.6143 46.5702 22.6143 46.7423 22.4422C45.3659 22.4422 43.9896 22.2702 42.4412 22.0981Z" fill="#C43C3C"/>
<path fill-rule="evenodd" clip-rule="evenodd" d="M44.6778 41.5389C44.5057 42.7432 44.5057 43.7755 44.3337 45.1518C44.3337 45.668 44.1616 46.0121 44.1616 46.5282C44.1616 46.7002 44.1616 46.8723 44.1616 46.8723C42.4412 54.4422 38.1401 60.2916 31.0864 64.4207C29.8821 65.1088 28.6778 65.625 27.4734 65.9691C29.538 67.3454 31.9466 67.6895 33.495 67.5174C39.6885 66.6572 42.7853 62.5282 44.3337 58.0551C45.8821 53.5819 45.71 48.7647 45.538 46.8723C45.3659 40.1626 50.3552 37.754 50.3552 37.754C46.3982 37.4099 45.0218 39.3024 44.6778 41.5389Z" fill="#C43C3C"/>
<path fill-rule="evenodd" clip-rule="evenodd" d="M40.5487 65.969C37.9681 68.2056 35.2154 68.5497 34.0111 68.7217C31.6025 69.0658 28.6778 68.5496 25.9251 66.4851C24.7208 66.8292 23.6885 67.0013 22.6563 67.0013C25.2369 69.754 28.5057 71.3023 32.9788 71.4744C35.9036 70.2701 38.4842 68.3776 40.5487 65.969Z" fill="#C43C3C"/>
<path fill-rule="evenodd" clip-rule="evenodd" d="M17.1509 70.442C17.1509 69.0656 16.8068 67.6893 16.1186 66.313C14.5702 65.9689 13.1939 65.2807 11.6455 64.4205C10.7853 63.9044 10.0971 63.0441 9.40891 62.356C11.1293 65.7968 13.882 68.7216 17.1509 70.442Z" fill="#C43C3C"/>
<path fill-rule="evenodd" clip-rule="evenodd" d="M29.8821 72.5068C27.4735 71.8186 25.2369 70.9584 23.3445 69.582C22.4842 68.8939 21.452 68.0337 20.7638 67.1734C19.7315 67.1734 18.6993 67.1734 17.8391 66.8293C18.3552 68.3777 18.6993 69.7541 18.5272 71.3025C20.9359 72.3347 23.5165 73.0229 26.2692 73.0229C27.4735 72.8509 28.6778 72.6788 29.8821 72.5068C30.0541 72.5068 30.0541 72.5068 29.8821 72.5068Z" fill="#C43C3C"/>
<path fill-rule="evenodd" clip-rule="evenodd" d="M51.3875 27.0874C50.8713 28.4637 49.495 28.2917 49.1509 27.6035C48.4627 26.3992 48.8068 25.3669 49.495 24.6788C50.1832 23.9906 51.2154 23.6465 52.4197 23.1304C51.2154 22.9583 49.8391 22.7863 48.4627 22.6143C48.2907 22.7863 48.2907 22.9583 48.1186 23.1304C45.8821 26.3992 45.71 28.9799 45.366 30.8723V31.5605C45.1939 32.5928 45.1939 33.7971 45.366 35.3455C45.366 35.5175 45.366 35.8616 45.366 36.0336C45.366 36.5498 45.366 37.0659 45.366 37.582C45.366 37.41 45.366 37.2379 45.366 37.41C46.0541 35.3454 47.0864 34.1412 48.8068 33.453C50.5273 32.7648 52.2477 32.0766 52.4197 29.496C52.4197 28.4637 52.5918 27.2594 52.7638 26.7433C53.2799 25.711 53.9681 25.539 53.9681 25.539C52.7638 25.3669 51.7316 25.711 51.3875 27.0874Z" fill="#C43C3C"/>
<path fill-rule="evenodd" clip-rule="evenodd" d="M38.1401 16.5926C19.3874 16.4206 3.73149 21.2378 3.21536 27.4313C3.04331 29.8399 5.27987 32.2485 9.23687 34.141C11.6455 35.3453 14.7422 36.3776 18.1831 37.0657C18.8713 36.7217 19.7315 36.5496 20.4197 36.3776C21.1078 36.2055 22.1401 35.6894 23.5164 35.1733C18.3552 34.4851 14.0541 33.2808 11.4734 31.9044C9.58095 30.8722 8.54869 29.6679 8.54869 28.4636C8.89278 24.3345 21.9681 21.0657 37.796 21.2378C53.624 21.4098 66.1831 24.8507 65.8391 28.9797C65.8391 30.184 64.6348 31.2163 62.9143 32.0765C59.6455 33.7969 53.796 35.1733 46.7423 35.8614C46.5702 36.2055 46.2261 36.5496 46.0541 36.8937C49.3229 35.6894 52.9358 37.5819 52.9358 37.5819C52.9358 37.5819 53.2799 37.5819 53.452 37.7539C58.0971 36.8937 62.2262 35.6894 65.1509 34.3131C68.7638 32.5926 71.0004 30.5281 71.1724 28.2915C71.5165 21.7539 56.7208 16.7646 38.1401 16.5926Z" fill="white"/>
</svg>
