<svg width="199" height="42" viewBox="0 0 199 42" fill="none" xmlns="http://www.w3.org/2000/svg">
<path d="M82.6819 8.40033V33.5307H78.2474V13.7652H78.1759L70.3083 33.4601H67.3758L59.222 13.7652H59.1505V33.4601H55.0736V8.40033H61.4393L68.7347 27.0364H68.8062L76.5309 8.40033H82.6819ZM86.3297 10.3063C86.3297 9.60037 86.6158 9.03565 87.1164 8.54151C87.6171 8.04737 88.2608 7.8356 88.9761 7.8356C89.7628 7.8356 90.335 8.04737 90.8357 8.54151C91.3364 9.03565 91.5509 9.60037 91.5509 10.3063C91.5509 11.0122 91.2648 11.5769 90.7642 12.0711C90.2635 12.5652 89.6198 12.777 88.9045 12.777C88.1893 12.777 87.5456 12.5652 87.0449 12.0711C86.6158 11.5063 86.3297 10.9416 86.3297 10.3063ZM91.0503 15.4594V33.4601H86.7588V15.4594H91.0503ZM104.068 30.4247C104.711 30.4247 105.427 30.2835 106.213 30.0012C107 29.7188 107.715 29.2953 108.359 28.8717V32.8248C107.644 33.1778 106.929 33.5307 105.999 33.6719C105.141 33.8837 104.139 33.9543 103.138 33.9543C100.42 33.9543 98.2742 33.1072 96.5576 31.413C94.9126 29.7188 94.0543 27.6011 94.0543 24.9892C94.0543 22.095 94.9126 19.6949 96.6292 17.8595C98.3457 15.9536 100.778 15.0359 103.925 15.0359C104.711 15.0359 105.57 15.1065 106.356 15.3182C107.143 15.53 107.858 15.7418 108.288 16.0242V20.1184C107.644 19.6243 106.929 19.2713 106.285 18.989C105.57 18.7066 104.854 18.5654 104.139 18.5654C102.423 18.5654 101.064 19.1302 100.062 20.189C98.9894 21.2479 98.4888 22.7303 98.4888 24.5657C98.4888 26.401 98.9895 27.8129 99.9908 28.8011C101.064 29.86 102.351 30.4247 104.068 30.4247ZM120.59 15.1771C120.947 15.1771 121.233 15.1771 121.52 15.2477C121.806 15.3182 122.02 15.3182 122.235 15.3888V19.6949C122.02 19.5537 121.663 19.3419 121.233 19.2008C120.804 19.0596 120.304 18.989 119.66 18.989C118.587 18.989 117.729 19.4125 117.014 20.3302C116.298 21.2479 115.869 22.5891 115.869 24.3539V33.4601H111.578V15.4594H115.869V18.2831H115.941C116.298 17.2948 116.942 16.5183 117.729 15.9536C118.516 15.4594 119.445 15.1771 120.59 15.1771ZM122.378 24.7069C122.378 21.742 123.236 19.3419 124.953 17.6477C126.669 15.883 129.03 15.0359 132.034 15.0359C134.895 15.0359 137.112 15.883 138.685 17.5772C140.259 19.2713 141.117 21.5303 141.117 24.3539C141.117 27.2481 140.259 29.5776 138.542 31.3424C136.826 33.0366 134.537 33.9543 131.604 33.9543C128.744 33.9543 126.526 33.1072 124.881 31.4836C123.236 29.7894 122.378 27.6011 122.378 24.7069ZM126.884 24.5657C126.884 26.4716 127.313 27.8834 128.171 28.8717C129.03 29.86 130.246 30.3541 131.891 30.3541C133.464 30.3541 134.608 29.86 135.467 28.8717C136.254 27.8834 136.683 26.401 136.683 24.4245C136.683 22.5185 136.254 21.0361 135.395 20.0478C134.537 19.0596 133.393 18.5654 131.819 18.5654C130.246 18.5654 129.03 19.0596 128.171 20.1184C127.313 21.1773 126.884 22.6597 126.884 24.5657ZM147.554 20.189C147.554 20.8243 147.769 21.2479 148.127 21.6008C148.484 21.9538 149.414 22.3773 150.701 22.8715C152.418 23.5774 153.634 24.2833 154.278 25.1304C154.993 25.9775 155.351 26.9658 155.351 28.2364C155.351 29.9306 154.707 31.2718 153.348 32.3307C152.06 33.3895 150.272 33.8837 147.984 33.8837C147.197 33.8837 146.41 33.8131 145.48 33.6013C144.55 33.3895 143.764 33.1778 143.12 32.8954V28.7305C143.907 29.2953 144.765 29.7188 145.623 30.0012C146.553 30.2835 147.34 30.4953 148.055 30.4953C149.056 30.4953 149.772 30.3541 150.201 30.0718C150.63 29.7894 150.916 29.3659 150.916 28.7305C150.916 28.1658 150.701 27.6717 150.201 27.2481C149.7 26.8246 148.842 26.401 147.483 25.8363C145.909 25.201 144.765 24.4245 144.121 23.648C143.477 22.8009 143.12 21.8126 143.12 20.542C143.12 18.9184 143.764 17.5772 145.051 16.5183C146.338 15.4594 148.055 14.9653 150.129 14.9653C150.773 14.9653 151.488 15.0359 152.275 15.1771C153.062 15.3182 153.705 15.53 154.278 15.7418V19.7655C153.705 19.4125 153.062 19.0596 152.275 18.7772C151.488 18.4948 150.773 18.3537 150.058 18.3537C149.271 18.3537 148.627 18.4948 148.127 18.8478C147.769 19.2008 147.554 19.6243 147.554 20.189ZM157.21 24.7069C157.21 21.742 158.068 19.3419 159.785 17.6477C161.502 15.883 163.862 15.0359 166.866 15.0359C169.727 15.0359 171.944 15.883 173.518 17.5772C175.091 19.2713 175.949 21.5303 175.949 24.3539C175.949 27.2481 175.091 29.5776 173.375 31.3424C171.658 33.0366 169.369 33.9543 166.437 33.9543C163.576 33.9543 161.359 33.1072 159.713 31.4836C157.997 29.7894 157.21 27.6011 157.21 24.7069ZM161.645 24.5657C161.645 26.4716 162.074 27.8834 162.932 28.8717C163.79 29.86 165.006 30.3541 166.651 30.3541C168.225 30.3541 169.369 29.86 170.228 28.8717C171.014 27.8834 171.443 26.401 171.443 24.4245C171.443 22.5185 171.014 21.0361 170.156 20.0478C169.298 19.0596 168.153 18.5654 166.58 18.5654C165.006 18.5654 163.79 19.0596 162.932 20.1184C162.074 21.1773 161.645 22.6597 161.645 24.5657ZM190.183 18.9184H183.817V33.4601H179.454V18.9184H176.379V15.4594H179.454V12.9887C179.454 11.0828 180.098 9.52978 181.314 8.32974C182.53 7.12969 184.175 6.49437 186.106 6.49437C186.607 6.49437 187.107 6.49437 187.465 6.56496C187.894 6.63555 188.252 6.70614 188.538 6.77673V10.4475C188.395 10.3769 188.18 10.2357 187.822 10.1651C187.465 10.0239 187.036 10.0239 186.607 10.0239C185.677 10.0239 185.033 10.3063 184.532 10.871C184.032 11.4357 183.817 12.2122 183.817 13.3417V15.53H190.183V11.5063L194.474 10.2357V15.6006H198.837V19.0596H194.474V27.4599C194.474 28.5894 194.689 29.3659 195.118 29.7894C195.547 30.2129 196.191 30.4953 197.049 30.4953C197.264 30.4953 197.621 30.4247 197.979 30.3541C198.337 30.2129 198.623 30.0718 198.909 29.9306V33.4601C198.623 33.6013 198.193 33.7425 197.55 33.8837C196.906 34.0249 196.262 34.0955 195.69 34.0955C193.902 34.0955 192.543 33.6013 191.613 32.6836C190.683 31.7659 190.254 30.2835 190.254 28.3776V18.9184H190.183Z" fill="white"/>
<path d="M20.1698 0H0V19.9067H20.1698V0Z" fill="#F05123"/>
<path d="M42.4138 0H22.244V19.9067H42.4138V0Z" fill="#7CBC42"/>
<path d="M20.1698 21.9538H0V41.8605H20.1698V21.9538Z" fill="#309DD8"/>
<path d="M42.4138 21.9538H22.244V41.8605H42.4138V21.9538Z" fill="#FDBA12"/>
</svg>
