<svg width="195" height="37" viewBox="0 0 195 37" fill="none" xmlns="http://www.w3.org/2000/svg">
<path d="M17.7744 0H19.8389C23.9679 0.344086 27.9249 1.89248 31.0217 4.81721C34.2905 7.74195 36.5271 12.043 36.8712 16.3441C37.2153 20.3011 36.355 24.4301 34.2905 27.871C31.8819 31.828 27.9249 34.7527 23.6238 35.957C22.4195 36.3011 21.2152 36.4732 20.0109 36.6452H17.6023C13.3012 36.3011 9.17219 34.5807 6.07541 31.6559C2.63455 28.5592 0.742097 23.914 0.39801 19.4409V17.7204C0.570053 13.2473 2.63458 8.94625 5.73136 5.67743C8.82813 2.23657 13.3013 0.344086 17.7744 0ZM17.6023 1.89247C11.9249 2.23656 6.76363 5.50538 4.18298 10.4946C2.46255 13.7634 1.77433 17.8925 2.63455 21.5054C3.49477 25.2903 5.73134 28.7312 8.82811 31.1398C11.0647 32.8602 13.9894 34.0645 16.7421 34.4086C20.355 34.9248 23.9679 34.0646 27.0647 32.1721C30.1615 30.2796 32.5701 27.3549 33.9464 23.914C35.3228 20.3011 35.3228 16.1721 33.9464 12.5592C32.7421 9.29033 30.5055 6.36559 27.5808 4.47312C24.6561 2.75269 21.2152 1.72043 17.6023 1.89247Z" fill="#2AADE3"/>
<path d="M12.9571 10.4947C12.9571 9.97853 13.3012 9.4624 13.8174 9.4624C16.0539 9.4624 18.4625 9.4624 20.6991 9.4624C21.7313 9.4624 22.7636 9.8065 23.4518 10.6667C24.312 11.5269 24.6561 13.0753 24.1399 14.2796C23.6238 15.656 22.2475 16.8603 20.6991 16.8603C18.6346 16.8603 16.5701 16.8603 14.3335 16.8603C14.3335 19.2689 14.3335 21.6775 14.3335 24.0861C15.5378 22.8818 16.5701 21.8495 17.7744 20.6452C18.1185 20.3011 18.8066 20.3011 19.1507 20.6452C20.355 21.6775 21.3873 22.8818 22.4195 24.0861C22.4195 22.3656 22.4195 20.6452 22.4195 18.7527C22.4195 18.0646 23.2798 17.7205 23.7959 18.2366C24.14 18.4086 24.1399 18.9248 24.1399 19.4409C24.1399 21.6775 24.1399 23.914 24.1399 26.1506C24.1399 26.8388 23.1077 27.1828 22.7636 26.6667C21.2152 25.2904 19.8389 23.742 18.4625 22.3656C17.0862 23.742 15.7099 25.1183 14.3335 26.4947C13.9894 26.8388 13.3012 27.0108 12.9571 26.6667C12.6131 26.4947 12.6131 25.9785 12.6131 25.8065C12.9572 20.6452 12.7851 15.656 12.9571 10.4947ZM14.5056 11.1828C14.5056 12.5592 14.5056 13.9355 14.5056 15.1398C16.5701 15.1398 18.6346 15.1398 20.8711 15.1398C21.7313 15.1398 22.5916 14.4517 22.7636 13.5914C22.9357 12.3871 22.0754 11.1828 20.8711 11.1828C18.8066 11.1828 16.5701 11.1828 14.5056 11.1828Z" fill="white"/>
<path d="M64.3981 12.5593C64.3981 12.0431 64.5701 11.527 65.0862 11.527C65.6024 11.355 66.2905 11.8711 66.2905 12.3872C66.2905 13.9356 66.2905 15.3119 66.2905 16.8603C69.2152 16.8603 72.312 16.8603 75.2368 16.8603C75.2368 15.3119 75.2368 13.9356 75.2368 12.3872C75.2368 11.699 75.925 11.355 76.4411 11.527C76.9572 11.699 77.1293 12.2152 77.1293 12.5593C77.1293 16.1722 77.1293 19.7851 77.1293 23.398C77.1293 23.7421 77.1292 24.2582 76.7851 24.6023C76.269 25.1184 75.2368 24.7743 75.2368 24.0861C75.2368 22.3657 75.2368 20.4732 75.2368 18.7528C72.312 18.7528 69.2152 18.7528 66.2905 18.7528C66.2905 20.4732 66.2905 22.3657 66.2905 24.0861C66.2905 24.7743 65.2583 25.1184 64.7421 24.6023C64.398 24.4302 64.3981 23.9141 64.3981 23.57C64.3981 19.9571 64.3981 16.3442 64.3981 12.5593Z" fill="white"/>
<path d="M84.8712 11.5269C85.3873 11.3549 86.2475 11.699 86.0755 12.3871C86.0755 14.2796 86.0755 16.3441 86.0755 18.2366C86.0755 20.1291 87.2798 21.8495 89.0002 22.5377C90.8927 23.3979 93.1293 22.8818 94.5056 21.3334C95.3658 20.4732 95.7099 19.2689 95.7099 18.0646C95.7099 16.1721 95.7099 14.1076 95.7099 12.2151C95.7099 11.5269 96.3981 11.1828 97.0863 11.3549C97.4304 11.5269 97.7744 11.871 97.7744 12.3871C97.7744 14.2796 97.7744 16.1721 97.7744 18.0646C97.7744 20.1291 96.7422 22.3657 94.8497 23.57C92.6131 25.2904 89.3443 25.2904 86.9357 23.57C85.2153 22.3657 84.011 20.3011 84.011 18.2366C84.011 16.3441 84.011 14.2796 84.011 12.3871C84.183 12.2151 84.5271 11.699 84.8712 11.5269Z" fill="white"/>
<path d="M104.828 12.3871C104.828 11.5269 106.033 11.1828 106.549 11.871C109.817 15.1398 112.914 18.2366 116.183 21.5054C116.355 18.4086 116.183 15.3118 116.183 12.3871C116.183 11.6989 117.043 11.3548 117.559 11.6989C117.903 11.871 118.248 12.3871 118.076 12.7312C118.076 16.5161 118.076 20.3011 118.076 24.086C118.076 24.6022 117.559 25.1183 117.043 25.1183C116.699 25.1183 116.355 24.7742 116.183 24.6022C113.086 21.5054 109.817 18.2366 106.721 15.1398C106.721 18.2366 106.721 21.1613 106.721 24.2581C106.721 24.7742 106.205 25.2903 105.688 25.2903C105.172 25.2903 104.828 24.7742 104.828 24.2581C104.828 20.129 104.828 16.1721 104.828 12.3871Z" fill="white"/>
<path d="M125.99 12.5593C125.99 12.0431 126.162 11.527 126.678 11.527C127.194 11.355 127.882 11.8711 127.882 12.3872C127.882 15.484 127.882 18.4087 127.882 21.5055C129.258 20.1291 130.463 18.7528 131.839 17.5485C132.183 17.0324 133.043 17.2044 133.387 17.5485C134.764 18.9249 135.968 20.1291 137.172 21.5055C137.172 18.4087 137.172 15.484 137.172 12.3872C137.172 11.699 137.861 11.355 138.377 11.527C138.893 11.699 139.065 12.0431 139.065 12.5593C139.065 16.1722 139.065 19.9571 139.065 23.57C139.065 23.9141 139.065 24.2582 138.721 24.4302C138.377 24.7743 137.516 24.7743 137.172 24.2582C135.452 22.7098 133.904 20.9894 132.355 19.2689C130.635 20.9894 129.086 22.7098 127.366 24.2582C126.85 24.9464 125.473 24.4302 125.645 23.57C125.99 20.1292 125.99 16.3442 125.99 12.5593Z" fill="white"/>
<path d="M183.452 11.8709C183.796 11.5269 184.312 11.5269 184.656 11.5269C187.581 11.5269 190.506 11.5269 193.43 11.5269C193.947 11.5269 194.291 11.8709 194.291 12.215V12.7312C194.119 13.0752 193.775 13.4193 193.258 13.4193C190.506 13.4193 187.753 13.4193 184.828 13.4193C184.828 14.6236 184.828 15.8279 184.828 17.0322C186.893 17.0322 188.957 17.0322 191.022 17.0322C191.366 17.0322 191.71 17.0322 191.882 17.2043C192.398 17.5484 192.398 18.4086 191.882 18.7527C191.538 18.9247 191.194 18.9247 190.85 18.9247C188.785 18.9247 186.893 18.9247 184.828 18.9247C184.828 20.301 184.828 21.5054 184.828 22.8817C187.581 22.8817 190.506 22.8817 193.258 22.8817C193.775 22.8817 193.947 23.2258 194.119 23.5699V24.086C193.947 24.4301 193.602 24.7742 193.086 24.7742C190.162 24.7742 187.237 24.7742 184.312 24.7742C183.968 24.7742 183.452 24.7742 183.108 24.4301C182.764 24.258 182.764 23.7419 182.764 23.3978C182.764 19.7849 182.764 16.3441 182.764 12.7312C183.28 12.5591 183.28 12.215 183.452 11.8709Z" fill="white"/>
<path d="M46.8497 12.5591C46.8497 12.043 47.3658 11.5269 47.8819 11.5269C49.9464 11.5269 51.8389 11.5269 53.9034 11.5269C55.2798 11.5269 56.4841 12.215 57.3443 13.2473C58.2045 14.4516 58.3765 16.172 57.8604 17.5484C57.1722 19.0968 55.7959 20.129 54.0755 20.129C52.3551 20.129 50.6346 20.129 48.9142 20.129C48.9142 21.5054 48.9142 22.8817 48.9142 24.086C48.9142 24.7742 47.8819 25.1183 47.3658 24.7742C47.0217 24.6021 47.0217 24.086 47.0217 23.5699C46.8497 19.957 46.8497 16.3441 46.8497 12.5591ZM48.9142 13.4193C48.9142 14.9677 48.9142 16.5161 48.9142 18.0645C50.6346 18.0645 52.3551 18.0645 54.0755 18.0645C55.2798 18.0645 56.312 16.8602 56.14 15.6559C56.14 14.4516 55.2798 13.4193 54.0755 13.2473C52.3551 13.4193 50.6346 13.4193 48.9142 13.4193Z" fill="white"/>
<path d="M165.215 12.5591C165.215 12.043 165.559 11.5269 166.076 11.5269C168.14 11.5269 170.033 11.5269 172.097 11.5269C173.301 11.5269 174.678 12.043 175.538 12.9032C176.742 14.2795 176.914 16.3441 175.882 17.7204C175.194 18.5806 174.162 19.2688 173.129 19.4408C174.334 20.6451 175.538 21.8494 176.57 23.2258C176.914 23.5699 177.086 24.258 176.57 24.6021C176.054 24.9462 175.366 24.7742 175.022 24.4301C173.645 22.8817 172.269 21.5053 170.721 19.957C170.549 19.7849 170.377 19.4408 170.033 19.6129C169 19.6129 167.968 19.6129 166.936 19.6129C166.936 20.9892 166.936 22.5376 166.936 24.086C166.936 24.7742 165.904 25.1183 165.387 24.6021C165.043 24.4301 165.043 23.914 165.043 23.5699C165.215 19.957 165.215 16.3441 165.215 12.5591ZM167.28 13.4193C167.28 14.7957 167.28 16.3441 167.28 17.7204C169 17.7204 170.549 17.7204 172.269 17.7204C172.957 17.7204 173.645 17.5484 174.162 17.0322C174.85 16.3441 174.85 14.9677 174.334 14.2795C173.99 13.7634 173.301 13.4193 172.613 13.4193C170.721 13.4193 169 13.4193 167.28 13.4193Z" fill="white"/>
<path d="M156.613 12.043C156.957 11.6989 157.301 11.5269 157.645 11.5269C158.162 11.5269 158.678 12.043 158.506 12.5591C158.506 16.3441 158.506 20.129 158.506 23.914C158.506 24.4301 158.162 24.7742 157.818 24.9462C157.301 25.1183 156.613 24.7742 156.613 24.086C156.613 23.0537 156.613 22.0215 156.613 20.8172C154.721 20.8172 152.656 20.8172 150.764 20.8172C150.42 20.8172 150.248 20.9892 150.076 21.1613C148.871 22.1935 147.839 23.3978 146.635 24.4301C146.119 24.9462 145.258 24.7742 144.914 24.086C144.742 23.7419 144.914 23.2258 145.258 22.8817C148.871 19.4408 152.656 15.6559 156.613 12.043ZM152.312 18.9247C153.688 18.9247 155.065 18.9247 156.613 18.9247C156.613 17.5484 156.613 16.172 156.613 14.7957C155.065 16.172 153.688 17.5484 152.312 18.9247Z" fill="white"/>
</svg>
