<svg width="200" height="48" viewBox="0 0 200 48" fill="none" xmlns="http://www.w3.org/2000/svg">
<path d="M175.656 16C176.688 16 177.721 15.4839 177.893 14.6237L178.925 2.23656C178.925 1.03226 177.549 0 175.656 0C173.764 0 172.387 1.03226 172.387 2.23656L173.419 14.6237C173.764 15.4839 174.624 16 175.656 16Z" fill="#FFB71B"/>
<path d="M168.946 19.9569C169.462 18.9247 169.462 17.8924 168.946 17.3763L158.624 10.1505C157.592 9.4623 156.043 10.3225 155.011 11.8709C154.151 13.4193 154.323 15.1397 155.355 15.8279L166.71 21.1612C167.57 21.3333 168.43 20.8172 168.946 19.9569Z" fill="#FFB71B"/>
<path d="M182.538 19.9571C183.054 20.9894 184.086 21.5055 184.774 21.1614L196.129 15.8281C197.161 15.1399 197.334 13.4195 196.473 11.8711C195.613 10.3227 193.893 9.63452 192.86 10.1507L182.71 17.3765C182.022 17.8926 181.85 18.9249 182.538 19.9571Z" fill="#FFB71B"/>
<path d="M175.656 31.4839C176.688 31.4839 177.721 32 177.893 32.8602L178.925 45.2473C178.925 46.4516 177.548 47.4839 175.656 47.4839C173.764 47.4839 172.387 46.4516 172.387 45.2473L173.419 32.8602C173.764 32.1721 174.624 31.4839 175.656 31.4839Z" fill="#FFB71B"/>
<path d="M182.538 27.6991C183.054 26.6669 184.086 26.1507 184.774 26.4948L196.129 31.8282C197.161 32.5163 197.333 34.2368 196.473 35.7852C195.613 37.3335 193.893 38.0217 192.86 37.5056L182.71 30.2798C182.022 29.7637 181.85 28.5593 182.538 27.6991Z" fill="#FFB71B"/>
<path d="M168.946 27.6994C169.462 28.7316 169.462 29.7639 168.946 30.28L158.796 37.5058C157.764 38.194 156.215 37.3338 155.183 35.7854C154.323 34.237 154.495 32.5166 155.527 31.8284L166.882 26.4951C167.57 26.151 168.43 26.6671 168.946 27.6994Z" fill="#FFB71B"/>
<path d="M116.817 25.2906C116.817 20.6454 114.753 16.5164 108.043 16.5164C104.602 16.5164 101.85 17.5486 100.301 18.4088L101.333 22.1938C102.71 21.3336 104.946 20.6454 107.011 20.6454C110.452 20.6454 110.968 22.5379 110.968 23.9142C103.398 23.9142 98.7527 26.4949 98.7527 31.8282C98.7527 35.097 101.161 38.0218 105.29 38.0218C107.871 38.0218 110.108 36.9895 111.312 35.2691H111.484C111.484 35.2691 112.344 38.882 116.989 37.5056C116.817 35.9572 116.645 34.4088 116.645 32.5164V25.2906H116.817ZM111.312 30.1078C111.312 30.4519 111.312 30.968 111.14 31.3121C110.624 32.6884 109.247 33.8927 107.355 33.8927C105.807 33.8927 104.602 33.0325 104.602 31.14C104.602 28.2153 107.699 27.5271 111.312 27.5271V30.1078Z" fill="white"/>
<path d="M0 9.979C0 9.979 4.81721 30.1081 5.67742 33.3769C6.53764 37.1618 8.25807 38.5382 12.9032 37.678L16 25.2908C16.8602 22.1941 17.3764 19.9575 17.7204 16.8607H17.8925C18.2366 19.9575 18.7527 22.1941 19.4409 25.2908C19.4409 25.2908 20.6452 30.9683 21.3334 33.893C22.0215 36.8177 23.742 38.7102 28.3871 37.678L35.6129 10.151H29.7635L27.3549 22.022C26.6667 25.4629 26.1506 28.2156 25.6344 31.3124C25.2903 28.2156 24.6022 25.6349 23.914 22.1941L21.3334 9.979H15.1398L12.3871 21.85C11.5269 25.4629 10.8387 28.3876 10.3226 31.4844C9.80646 28.5597 9.29033 24.9468 8.60216 21.5059C8.60216 21.5059 6.88173 13.0758 6.3656 10.151H0V9.979Z" fill="white"/>
<path d="M52.3011 25.2906C52.3011 20.6454 50.2366 16.5164 43.5269 16.5164C40.086 16.5164 37.3333 17.5486 35.785 18.4088L36.8172 22.1938C38.1936 21.3336 40.4301 20.6454 42.4946 20.6454C45.9355 20.6454 46.4516 22.5379 46.4516 23.9142C38.8817 23.9142 34.2366 26.4949 34.2366 31.8282C34.2366 35.097 36.6452 38.0218 40.7742 38.0218C43.3549 38.0218 45.5914 36.9895 46.7957 35.2691H46.9678C46.9678 35.2691 47.828 38.882 52.4731 37.5056C52.3011 35.9572 52.1291 34.4088 52.1291 32.5164V25.2906H52.3011ZM46.7957 30.1078C46.7957 30.4519 46.7957 30.968 46.6237 31.3121C46.1076 32.6884 44.7312 33.8927 42.8387 33.8927C41.2903 33.8927 40.086 33.0325 40.086 31.14C40.086 28.2153 43.1828 27.5271 46.7957 27.5271V30.1078Z" fill="white"/>
<path d="M61.7635 31.656V9.97852H56.0861V37.5054H61.7635V31.656Z" fill="white"/>
<path d="M135.054 9.97852C135.054 12.5592 135.054 30.2796 135.054 30.2796C135.054 33.0323 135.57 35.0968 136.774 36.3011C137.807 37.3334 139.355 38.0216 141.419 38.0216C143.14 38.0216 144.688 37.6775 145.549 37.5054V33.2043C145.032 33.3764 144.344 33.3764 143.484 33.3764C141.592 33.3764 140.903 32.1721 140.903 29.5914V21.8495H145.721V16.5162H140.903V9.97852H135.054Z" fill="white"/>
<path d="M120.602 16.8605V37.5057H126.452V26.839C126.452 26.3229 126.452 25.8068 126.624 25.2906C126.968 23.0541 128.688 21.6777 131.269 21.6777C131.957 21.6777 132.473 21.6777 132.989 21.8498V16.3444C132.473 16.1724 132.301 16.1724 131.785 16.1724C129.549 16.1724 127.14 17.5487 126.108 20.4734H125.592V16.5164H120.602V16.8605Z" fill="white"/>
<path d="M65.7205 16.8605V37.5057H71.3979V25.2906C71.3979 24.7745 71.3979 24.0863 71.742 23.5702C72.2582 22.3659 73.2904 20.9896 75.1829 20.9896C77.4195 20.9896 78.4517 22.882 78.4517 25.6347V37.5057H84.1291V25.1186C84.1291 24.6025 84.1291 23.9143 84.3012 23.3982C84.8173 22.0218 86.0216 20.8175 87.742 20.8175C89.9786 20.8175 91.1829 22.71 91.1829 25.9788C91.1829 25.9788 91.1829 34.753 91.1829 37.3337H96.8603V25.1186C96.8603 18.753 93.5915 16.1724 89.9786 16.1724C88.4302 16.1724 87.0539 16.5164 85.8496 17.3767C84.8173 17.8928 83.9571 18.753 83.2689 19.9573C82.4087 17.7208 80.3442 16.1724 77.5915 16.1724C74.1506 16.1724 72.4302 17.8928 71.57 19.4412V16.6885H65.7205V16.8605Z" fill="white"/>
<path d="M198.366 36.3013C198.882 36.3013 199.398 36.6454 199.398 37.3335C199.398 37.8497 199.054 38.3658 198.366 38.3658C197.85 38.3658 197.333 38.0217 197.333 37.3335C197.333 36.8174 197.85 36.3013 198.366 36.3013ZM198.366 36.4733C198.022 36.4733 197.678 36.8174 197.678 37.1615C197.678 37.5056 198.022 37.8497 198.366 37.8497C198.71 37.8497 199.054 37.5056 199.054 37.1615C199.226 36.8174 198.882 36.4733 198.366 36.4733ZM198.194 37.8497H198.022V36.8174C198.194 36.8174 198.194 36.8174 198.366 36.8174C198.538 36.8174 198.71 36.8174 198.71 36.8174L198.882 36.9894C198.882 37.1615 198.882 37.1615 198.71 37.1615C198.882 37.1615 198.882 37.3335 198.882 37.3335C198.882 37.5056 198.882 37.5056 198.882 37.5056H198.71V37.3335C198.71 37.1615 198.71 37.1615 198.538 37.1615H198.366V37.8497H198.194ZM198.194 37.1615C198.366 37.1615 198.538 37.1615 198.538 36.9894C198.538 36.8174 198.538 36.8174 198.366 36.8174H198.194V37.1615Z" fill="#FFB71B"/>
</svg>
