<svg width="232" height="133" viewBox="0 0 232 133" fill="none" xmlns="http://www.w3.org/2000/svg">
<rect y="39.1499" width="232" height="55.1" fill="#011625"/>
<rect y="34.8" width="232" height="63.8" fill="#EDEDED"/>
<path d="M77.8731 56.5098V67.8565C77.8731 69.5822 76.7476 71.1063 75.098 71.6139L57.8707 76.9144C54.572 77.9297 52.3209 80.9776 52.3209 84.4289V113.019C52.3209 118.447 56.721 122.847 62.1486 122.847H67.0624H118.658V56.5098H77.8731Z" fill="#FEC478"/>
<path d="M91.6319 85.9933C82.1193 85.9933 73.7325 80.9999 68.9125 73.5174L57.8707 76.9149C54.572 77.9299 52.3209 80.9779 52.3209 84.4291V113.02C52.3209 118.447 56.721 122.847 62.1486 122.847H67.0624H118.658V58.9668C118.658 73.8313 106.496 85.9933 91.6319 85.9933Z" fill="#FF4040"/>
<path d="M118.658 58.9668C118.658 73.8313 106.497 85.993 91.6323 85.993C82.1197 85.993 73.7329 80.9996 68.9128 73.5171L64.0469 75.0142C69.583 84.5087 79.8491 90.9069 91.6323 90.9069C103.03 90.9069 113.006 84.9181 118.658 75.9343V58.9668Z" fill="#FF4040"/>
<path d="M94.0891 110.563H69.5196C68.1628 110.563 67.0625 109.463 67.0625 108.106V96.4173C67.0625 94.4626 66.2857 92.5876 64.9039 91.2051L53.7046 80.0059C52.8337 81.2814 52.321 82.8058 52.321 84.4293V113.02C52.321 118.447 56.7211 122.847 62.1487 122.847H67.0625H101.46V117.934C101.46 113.863 98.1598 110.563 94.0891 110.563Z" fill="#FF4040"/>
<path d="M112.516 39.3114H112.151L111.287 22.1128H72.2834V39.3114H70.7479C68.7125 39.3114 67.0626 40.9615 67.0626 42.9967V47.9105C67.0626 49.9459 68.7128 51.5958 70.7479 51.5958H73.0772L73.4764 54.0904C73.7767 55.9669 74.7466 57.6714 76.2067 58.8882L84.0956 65.4622C85.1552 66.3451 86.4911 66.8288 87.8708 66.8288H95.3936C96.773 66.8288 98.109 66.3451 99.1688 65.4622L107.058 58.8882C108.518 57.6716 109.487 55.9672 109.788 54.0904L110.187 51.5958H112.516C114.551 51.5958 116.201 49.9456 116.201 47.9105V42.9967C116.201 40.9613 114.551 39.3114 112.516 39.3114Z" fill="#FEDBAB"/>
<path d="M111.287 22.1125H86.718H72.2834V39.3111H70.7479C68.7125 39.3111 67.0626 40.9613 67.0626 42.9964V47.9103C67.0626 49.9456 68.7128 51.5956 70.7479 51.5956H73.0772L73.4764 54.0899C73.7767 55.9667 74.7466 57.6708 76.2067 58.8877L84.0956 65.4617C85.1552 66.3446 86.4911 66.8283 87.8702 66.8283H90.9766L87.4742 56.3215C86.9732 54.8186 86.7177 53.2446 86.7177 51.6601V36.8538C86.7177 35.4969 87.8179 34.3967 89.1747 34.3967C89.1747 34.3967 91.6318 34.3967 92.6146 33.2161C94.112 33.9817 95.7903 34.3967 97.5284 34.3967C99.2668 34.3967 100.945 33.9817 102.442 33.2161C103.94 33.9817 105.618 34.3967 107.356 34.3967C107.603 34.3967 107.844 34.38 108.084 34.3527L111.902 34.3575L111.287 22.1125Z" fill="#FEC478" fill-opacity="0.5"/>
<path d="M121.115 21.6212C121.115 18.8988 119.26 16.6302 116.752 15.9517C117.025 15.2728 117.184 14.5355 117.184 13.7587C117.184 10.5021 114.544 7.86214 111.287 7.86214C111.167 7.86214 111.055 7.89052 110.937 7.89748C110.134 5.59406 107.967 3.93107 105.39 3.93107C104.757 3.93107 104.157 4.04908 103.59 4.24029C102.331 2.85283 100.532 1.96553 98.5107 1.96553C97.9894 1.96553 97.4868 2.03456 96.9989 2.14422C95.5922 0.823564 93.713 0 91.6314 0C89.5498 0 87.6705 0.823564 86.2639 2.14422C85.776 2.03456 85.2727 1.96553 84.752 1.96553C82.8764 1.96553 81.18 2.72063 79.9389 3.93803C79.905 3.93747 79.8727 3.93107 79.8382 3.93107C77.2614 3.93107 75.0941 5.59434 74.2917 7.89748C74.1734 7.89052 74.0612 7.86214 73.9416 7.86214C70.6849 7.86214 68.045 10.5021 68.045 13.7587C68.045 14.5353 68.2042 15.2725 68.4764 15.9517C65.9687 16.6302 64.1139 18.8988 64.1139 21.6212C64.1139 23.1383 64.7028 24.5071 65.6441 25.5522C64.7028 26.5971 64.1139 27.9661 64.1139 29.4833C64.1139 31.6656 65.3138 33.5449 67.0786 34.5594C67.166 37.1962 69.3177 39.3112 71.9763 39.3112H74.1244C75.0852 39.3112 75.9051 38.6165 76.0632 37.6688L77.4348 29.4393C77.5823 29.4504 77.7229 29.4836 77.8732 29.4836C79.9269 29.4836 81.7313 28.4315 82.787 26.8389C83.843 28.4312 85.6471 29.4836 87.7008 29.4836C89.7546 29.4836 91.559 28.4315 92.6147 26.8389C93.6706 28.4312 95.4748 29.4836 97.5285 29.4836C99.5823 29.4836 101.387 28.4315 102.442 26.8389C103.498 28.4312 105.302 29.4836 107.356 29.4836C107.506 29.4836 107.647 29.4504 107.795 29.4393L109.166 37.6688C109.324 38.6165 110.144 39.3112 111.105 39.3112H113.744C116.458 39.3112 118.658 37.1111 118.658 34.3974C118.658 34.3465 118.644 34.2992 118.643 34.2485C120.135 33.1845 121.115 31.4572 121.115 29.4836C121.115 27.9664 120.526 26.5973 119.585 25.5525C120.526 24.5071 121.115 23.1383 121.115 21.6212Z" fill="#011625"/>
<g style="mix-blend-mode:multiply">
<path d="M90.1928 25.2021C87.8894 24.3997 86.2264 22.2324 86.2264 19.6556C86.2264 18.1385 86.8153 16.7694 87.7566 15.7245C86.8153 14.6797 86.2264 13.3106 86.2264 11.7935C86.2264 9.07118 88.0814 6.80255 90.5894 6.12399C90.3166 5.44516 90.158 4.70787 90.158 3.93107C90.158 2.41642 90.7455 1.04929 91.6841 0.00528793C91.6662 0.00528793 91.6501 0 91.6323 0C89.5507 0 87.6714 0.823564 86.2648 2.14422C85.7769 2.03456 85.2737 1.96553 84.7529 1.96553C82.8773 1.96553 81.1809 2.72063 79.9398 3.93803C79.9059 3.93747 79.8736 3.93107 79.8391 3.93107C77.2623 3.93107 75.095 5.59434 74.2926 7.89748C74.1743 7.89052 74.0622 7.86214 73.9425 7.86214C70.6858 7.86214 68.0459 10.5021 68.0459 13.7587C68.0459 14.5353 68.2051 15.2725 68.4773 15.9517C65.9693 16.6302 64.1143 18.8988 64.1143 21.6212C64.1143 23.1383 64.7032 24.5071 65.6445 25.5522C64.7032 26.5971 64.1143 27.9661 64.1143 29.4833C64.1143 31.6656 65.3141 33.5449 67.079 34.5594C67.1664 37.1962 69.3181 39.3112 71.9767 39.3112H74.1248C75.0856 39.3112 75.9055 38.6165 76.0636 37.6688L77.4352 29.4393C77.5827 29.4504 77.7233 29.4836 77.8736 29.4836C79.9273 29.4836 81.7317 28.4315 82.7874 26.8389C83.8434 28.4312 85.6475 29.4836 87.7012 29.4836C89.0575 29.4836 90.2805 28.9934 91.2758 28.2228C90.6025 27.5216 90.1583 26.6029 90.1583 25.5525C90.1577 25.4323 90.1822 25.3193 90.1928 25.2021Z" fill="#EDEDED"/>
</g>
<path d="M86.718 110.563H94.0889C98.1597 110.563 101.46 113.863 101.46 117.934V122.847H86.718V110.563Z" fill="#FEC478"/>
<path d="M180.082 105.648H106.374C102.303 105.648 99.0027 102.348 99.0027 98.2776V54.0528C99.0027 49.982 102.303 46.6819 106.374 46.6819H180.082C184.153 46.6819 187.453 49.982 187.453 54.0528V98.2778C187.453 102.349 184.152 105.648 180.082 105.648Z" fill="#F7F7F7"/>
<path d="M157.969 122.847L153.624 90.2574C153.298 87.8162 151.216 85.9932 148.753 85.9932H137.702C135.239 85.9932 133.157 87.8162 132.831 90.2574L128.486 122.847V127.761H157.969V122.847H157.969Z" fill="#EDEDED"/>
<path d="M143.228 76.1653C145.941 76.1653 148.141 73.9653 148.141 71.2515C148.141 68.5376 145.941 66.3376 143.228 66.3376C140.514 66.3376 138.314 68.5376 138.314 71.2515C138.314 73.9653 140.514 76.1653 143.228 76.1653Z" fill="white"/>
<path d="M184.995 132.675H47.407C46.0502 132.675 44.95 131.575 44.95 130.218V125.304C44.95 123.947 46.0502 122.847 47.407 122.847H184.996C186.353 122.847 187.453 123.947 187.453 125.304V130.218C187.453 131.575 186.352 132.675 184.995 132.675Z" fill="#27597D"/>
</svg>
