<svg width="232" height="134" viewBox="0 0 232 134" fill="none" xmlns="http://www.w3.org/2000/svg">
<rect y="34.075" width="232" height="63.8" fill="#EDEDED"/>
<path d="M79.8 71.2998C79.8 66.2188 75.681 62.0999 70.6 62.0999C65.519 62.0999 61.4 66.2188 61.4 71.2998V75.8998C61.4 80.9809 65.519 85.0998 70.6 85.0998C75.681 85.0998 79.8 80.9809 79.8 75.8998V71.2998Z" fill="#418AC9"/>
<path d="M79.7999 110.4V128.8L82.0999 133.4H59.0999L61.3999 128.8V110.4H52.2V92.0001C52.2004 90.1702 52.9275 88.4155 54.2214 87.1216C55.5153 85.8277 57.2701 85.1006 59.0999 85.1001H82.0999C82.4737 85.1 82.8468 85.1308 83.2154 85.1921C84.8303 85.4567 86.2986 86.2865 87.3582 87.5336C88.4177 88.7806 88.9996 90.3637 88.9999 92.0001V110.4H79.7999Z" fill="#418AC9"/>
<path d="M68.2999 110.4H72.8999V133.4H68.2999V110.4Z" fill="#2D7DBF"/>
<path d="M59.0999 92.0002H63.6998V110.4H59.0999V92.0002Z" fill="#2D7DBF"/>
<path d="M77.5 92H82.1V110.4H77.5V92Z" fill="#2D7DBF"/>
<path d="M110.85 71.2999H108.55C103.365 71.2999 98.3924 69.2402 94.7261 65.5739C91.0597 61.9075 89 56.9349 89 51.7499C89 46.565 91.0597 41.5923 94.7261 37.926C98.3924 34.2597 103.365 32.2 108.55 32.2H120.05V41.3999H108.55C105.805 41.3999 103.172 42.4904 101.231 44.4314C99.2904 46.3724 98.2 49.0049 98.2 51.7499C98.2 54.4949 99.2904 57.1275 101.231 59.0685C103.172 61.0095 105.805 62.0999 108.55 62.0999H110.85V71.2999Z" fill="#CBCBCB"/>
<path d="M126.95 71.2999H129.25C134.435 71.2999 139.407 69.2402 143.074 65.5739C146.74 61.9075 148.8 56.9349 148.8 51.7499C148.8 46.565 146.74 41.5923 143.074 37.926C139.407 34.2597 134.435 32.2 129.25 32.2H117.75V41.3999H129.25C131.995 41.3999 134.627 42.4904 136.568 44.4314C138.509 46.3724 139.6 49.0049 139.6 51.7499C139.6 54.4949 138.509 57.1275 136.568 59.0685C134.627 61.0095 131.995 62.0999 129.25 62.0999H126.95V71.2999Z" fill="#CBCBCB"/>
<path d="M114.3 0H123.5V27.6H114.3V0Z" fill="#F5B44E"/>
<path d="M109.7 27.6001H128.1V36.8001C128.1 39.2401 127.131 41.5801 125.405 43.3055C123.68 45.0308 121.34 46.0001 118.9 46.0001C116.46 46.0001 114.12 45.0308 112.395 43.3055C110.669 41.5801 109.7 39.2401 109.7 36.8001V27.6001Z" fill="#F7F7F7"/>
<path d="M114.3 16.1001H123.5V20.7001H114.3V16.1001Z" fill="#FF4040"/>
<path d="M116.6 34.5H121.2V39.1H116.6V34.5Z" fill="#EDEDED"/>
<path d="M114.3 6.90015H123.5V11.5001H114.3V6.90015Z" fill="#FF4040"/>
<path d="M128.1 64.3997C128.1 59.3187 123.981 55.1997 118.9 55.1997C113.819 55.1997 109.7 59.3187 109.7 64.3997V68.9997C109.7 74.0807 113.819 78.1997 118.9 78.1997C123.981 78.1997 128.1 74.0807 128.1 68.9997V64.3997Z" fill="#FF4040"/>
<path d="M137.3 103.5V85.0999C137.3 83.27 136.573 81.5149 135.279 80.2209C133.985 78.9269 132.23 78.2 130.4 78.2H107.4C105.57 78.2 103.815 78.9269 102.521 80.2209C101.227 81.5149 100.5 83.27 100.5 85.0999V103.5H109.7V121.9L107.4 126.5H130.4L128.1 121.9V103.5H137.3Z" fill="#FF4040"/>
<g style="mix-blend-mode:multiply">
<path d="M116.6 103.5H121.2V126.5H116.6V103.5Z" fill="#EDEDED"/>
</g>
<g style="mix-blend-mode:multiply">
<path d="M107.4 85.1001H112V103.5H107.4V85.1001Z" fill="#EDEDED"/>
</g>
<g style="mix-blend-mode:multiply">
<path d="M125.8 85.1001H130.4V103.5H125.8V85.1001Z" fill="#EDEDED"/>
</g>
<path d="M176.4 71.2998C176.4 66.2188 172.281 62.0999 167.2 62.0999C162.119 62.0999 158 66.2188 158 71.2998V75.8998C158 80.9809 162.119 85.0998 167.2 85.0998C172.281 85.0998 176.4 80.9809 176.4 75.8998V71.2998Z" fill="#418AC9"/>
<path d="M176.4 110.4V128.8L178.7 133.4H155.7L158 128.8V110.4H148.8V92.0001C148.8 90.1702 149.527 88.4155 150.821 87.1216C152.115 85.8277 153.87 85.1006 155.7 85.1001H178.7C179.074 85.1 179.447 85.1308 179.815 85.1921C181.43 85.4567 182.899 86.2865 183.958 87.5336C185.018 88.7806 185.6 90.3637 185.6 92.0001V110.4H176.4Z" fill="#418AC9"/>
<path d="M164.9 110.4H169.5V133.4H164.9V110.4Z" fill="#2D7DBF"/>
<path d="M155.7 92H160.3V110.4H155.7V92Z" fill="#2D7DBF"/>
<path d="M174.1 92H178.7V110.4H174.1V92Z" fill="#2D7DBF"/>
</svg>
