<svg width="232" height="134" viewBox="0 0 232 134" fill="none" xmlns="http://www.w3.org/2000/svg">
<rect y="34.075" width="232" height="63.8" fill="#EDEDED"/>
<path d="M91.7295 92.9923L112.163 86.5288C114.457 92.784 108.931 94.7648 109.974 102.479C110.391 105.398 112.58 104.564 113.831 107.796L114.144 115.719L120.712 120.932C121.65 123.434 118.522 126.353 118.522 126.353C118.522 126.353 111.642 134.172 106.742 133.338C99.8612 132.295 91.7295 92.9923 91.7295 92.9923Z" fill="#27597D"/>
<g style="mix-blend-mode:multiply">
<path d="M109.974 102.479C109.035 95.0775 113.831 92.9924 112.371 87.467L99.6526 90.4905L91.7295 92.9925C91.7295 92.9925 91.9381 94.1391 92.4593 96.1199L110.391 103.626C110.182 103.313 110.078 103.001 109.974 102.479Z" fill="#EDEDED"/>
</g>
<path d="M64.207 58.172L75.2578 54.2104C75.3621 58.9018 77.2385 66.9292 80.4703 75.7906C83.7021 84.5478 87.5596 91.8454 90.687 95.4943L79.6362 99.4558C72.13 102.166 62.6431 95.0771 58.3687 83.7137C54.0942 72.2462 56.7008 60.8826 64.207 58.172Z" fill="#27597D"/>
<path d="M138.747 54.6277C129.886 30.7538 126.967 9.27796 131.45 3.43994C130.824 4.06543 130.094 4.89951 129.26 6.1505C121.858 17.097 109.452 40.658 66.9175 55.8789V55.9832C64.3112 56.9216 65.7708 67.3466 70.1492 79.1272C74.5279 91.0119 80.1574 99.8733 82.7636 98.9352C125.298 83.7143 150.319 94.2439 163.246 97.8928C167.312 99.0395 169.606 97.5799 169.606 97.5799C162.829 100.186 148.651 81.1075 138.747 54.6277Z" fill="#FF4040"/>
<g style="mix-blend-mode:soft-light">
<path d="M129.469 13.5521C130.511 7.19259 130.824 5.9416 131.241 3.96083L131.345 3.64795C130.824 4.27344 130.094 5.00323 129.364 6.14992C121.858 17.0964 109.452 40.6574 66.9171 55.8783V55.9826C65.8747 56.3995 65.4576 58.2763 65.6662 61.0908L69.1065 60.0485C108.305 46.1831 121.754 25.1241 129.469 13.5521Z" fill="#F7F7F7"/>
</g>
<path d="M134.786 0.312031C126.55 3.33547 127.696 27.6262 137.392 54.5232C146.983 81.4202 161.474 100.811 169.71 97.6835C177.946 94.6601 176.799 70.3693 167.104 43.4724C157.408 16.5754 142.917 -2.7114 134.786 0.312031Z" fill="#FF4040"/>
<g style="mix-blend-mode:multiply">
<path d="M147.713 64.9481C138.122 38.0511 136.975 13.7604 145.107 10.737C146.879 10.1115 148.86 10.4241 151.049 11.6754C145.002 3.2308 139.06 -1.25194 134.786 0.311925C126.55 3.33536 127.696 27.6261 137.392 54.5231C145.002 75.7906 155.636 92.2623 163.768 96.7453C158.138 89.0305 152.404 77.8754 147.713 64.9481Z" fill="#EDEDED"/>
</g>
<path d="M134.994 43.5766C134.577 43.6809 134.264 43.8895 133.952 43.9936C134.89 47.4339 136.037 50.8742 137.288 54.5229C139.164 59.7354 141.249 64.7396 143.439 69.3267C143.751 69.2224 144.064 69.1181 144.273 69.0138C151.258 66.4075 154.906 58.6928 152.404 51.6038C149.798 44.619 142.083 40.9704 134.994 43.5766Z" fill="#EDEDED"/>
<path d="M147.713 64.9482C144.898 57.2334 142.917 49.7273 141.562 42.8468C139.477 42.534 137.183 42.7426 134.994 43.5766C134.577 43.6809 134.264 43.8895 133.952 43.9935C134.89 47.4339 136.037 50.8742 137.288 54.5229C139.164 59.7354 141.249 64.7396 143.439 69.3267C143.751 69.2224 144.064 69.1181 144.273 69.0138C145.837 68.4926 147.192 67.6585 148.339 66.6161C148.13 66.0952 147.921 65.5737 147.713 64.9482Z" fill="#D9DADB"/>
</svg>
