<svg width="232" height="134" viewBox="0 0 232 134" fill="none" xmlns="http://www.w3.org/2000/svg">
<rect y="34.075" width="232" height="63.8" fill="#EDEDED"/>
<path d="M179.933 75.5583L157.265 108.387C152.888 114.25 145.853 117.767 138.506 117.767H71.545L67.4802 76.6529L71.545 72.9794C77.4855 67.7422 81.3937 64.1469 89.0538 62.3488C98.1987 60.2387 107.292 62.8178 113.311 68.2893C114.874 69.6184 115.812 70.869 117.766 70.869H118.704C136.838 70.869 120.45 70.869 138.506 70.869C142.805 70.869 146.322 74.3864 146.322 78.6854C146.322 82.9844 142.805 86.5018 138.506 86.5018H122.612C120.423 86.5018 118.704 88.2211 118.704 90.41C118.704 92.5989 120.423 94.3182 122.612 94.3182H141.085C142.57 94.3182 145.384 93.3802 146.869 91.817L167.974 65.5538C170.631 62.6618 175.086 62.1928 178.291 64.5377C181.808 67.1171 182.512 72.1191 179.933 75.5583Z" fill="#FEDBAB"/>
<path d="M118.704 90.4097V70.8687C136.838 70.8687 120.45 70.8687 138.506 70.8687C142.805 70.8687 146.322 74.386 146.322 78.6851C146.322 82.9841 142.805 86.5015 138.506 86.5015H122.612C120.423 86.5015 118.704 88.2208 118.704 90.4097Z" fill="#FEC478"/>
<path d="M179.932 75.558L157.265 108.387C152.888 114.249 145.853 117.767 138.505 117.767H118.704V90.4095C118.704 92.5983 120.423 94.3177 122.612 94.3177H141.085C142.57 94.3177 145.384 93.3797 146.869 91.8164L167.974 65.5533C170.631 62.6612 175.086 62.1922 178.291 64.5371C181.808 67.1168 182.512 72.1188 179.932 75.558Z" fill="#FEC478"/>
<path d="M71.9571 131.24L48.5079 84.3413C47.5423 82.4101 48.3247 80.0628 50.2559 79.0972L58.8967 74.7769C64.6866 71.8876 71.7356 74.2388 74.6288 80.0209L91.0859 112.935C93.9845 118.732 91.6391 125.769 85.8419 128.667L77.2011 132.988C75.2504 133.956 72.9175 133.155 71.9571 131.24Z" fill="#011625"/>
<path d="M118.704 23.4493C105.806 23.4493 94.994 34.2618 94.994 47.1591V51.3279C94.994 53.5167 96.7134 55.2361 98.9022 55.2361H138.505C140.694 55.2361 142.414 53.5167 142.414 51.3279V47.1591C142.414 34.2618 131.601 23.4493 118.704 23.4493Z" fill="#FF4040"/>
<g style="mix-blend-mode:multiply">
<path d="M142.414 47.1591V51.3279C142.414 53.5167 140.694 55.2361 138.505 55.2361H118.704V23.4493C131.601 23.4493 142.414 34.2618 142.414 47.1591Z" fill="#EDEDED"/>
</g>
<path d="M118.704 0C110.106 0 102.811 7.03503 102.811 15.6328C102.811 24.2306 110.106 31.2656 118.704 31.2656C127.302 31.2656 134.597 24.2306 134.597 15.6328C134.597 7.03503 127.302 0 118.704 0Z" fill="#FF4040"/>
<g style="mix-blend-mode:soft-light">
<path d="M134.597 15.6328C134.597 24.2306 127.302 31.2656 118.704 31.2656V0C127.302 0 134.597 7.03503 134.597 15.6328Z" fill="#EDEDED"/>
</g>
</svg>
