<svg width="28" height="29" viewBox="0 0 28 29" fill="none" xmlns="http://www.w3.org/2000/svg">
<path d="M17.941 10.8931L17.773 13.6161H14.875V23.3321H11.298V13.6161H9.33801V10.8161H11.298V8.9331C11.298 8.0791 11.298 6.8331 11.893 6.0351C12.2316 5.57126 12.6836 5.20215 13.2057 4.96314C13.7279 4.72412 14.3027 4.62322 14.875 4.6701C16.0521 4.61743 17.2306 4.73293 18.375 5.0131L17.864 7.9111C17.368 7.75217 16.8517 7.66496 16.331 7.6521C15.568 7.6521 14.882 7.9111 14.882 8.6741V10.8931H17.941Z" fill="white"/>
<path d="M14 1.40146C16.492 1.40146 18.9281 2.14044 21.0002 3.52495C23.0722 4.90945 24.6872 6.8773 25.6409 9.17965C26.5946 11.482 26.8441 14.0154 26.3579 16.4596C25.8717 18.9038 24.6717 21.1489 22.9095 22.911C21.1474 24.6732 18.9023 25.8732 16.4581 26.3594C14.014 26.8455 11.4805 26.596 9.17819 25.6423C6.87585 24.6887 4.90799 23.0737 3.52349 21.0017C2.13898 18.9296 1.40001 16.4935 1.40001 14.0015C1.40001 10.6597 2.7275 7.45488 5.09046 5.09192C7.45342 2.72896 10.6583 1.40146 14 1.40146V1.40146ZM14 0.00146484C11.2311 0.00146484 8.52431 0.822551 6.22202 2.36089C3.91973 3.89923 2.12532 6.08573 1.06569 8.6439C0.00606598 11.2021 -0.271181 14.017 0.269012 16.7327C0.809205 19.4485 2.14258 21.943 4.10051 23.901C6.05845 25.8589 8.55301 27.1923 11.2687 27.7325C13.9845 28.2727 16.7994 27.9954 19.3576 26.9358C21.9157 25.8762 24.1022 24.0817 25.6406 21.7794C27.1789 19.4772 28 16.7704 28 14.0015C28 10.2884 26.525 6.72748 23.8995 4.10197C21.274 1.47646 17.713 0.00146484 14 0.00146484V0.00146484Z" fill="white"/>
</svg>
