<svg width="28" height="29" viewBox="0 0 28 29" fill="none" xmlns="http://www.w3.org/2000/svg">
<path d="M18.4031 8.46389C18.1976 8.46251 17.9963 8.52227 17.8249 8.63557C17.6535 8.74887 17.5196 8.9106 17.4403 9.10019C17.361 9.28977 17.3399 9.49865 17.3797 9.70027C17.4194 9.90188 17.5182 10.0871 17.6635 10.2324C17.8089 10.3777 17.9941 10.4765 18.1957 10.5163C18.3973 10.556 18.6062 10.5349 18.7958 10.4557C18.9854 10.3764 19.1471 10.2425 19.2604 10.0711C19.3737 9.89964 19.4335 9.69838 19.4321 9.49289C19.425 9.22222 19.3143 8.96458 19.1229 8.77312C18.9314 8.58166 18.6738 8.47097 18.4031 8.46389V8.46389Z" fill="white"/>
<path d="M22.323 10.4593C22.2835 9.75717 22.1444 9.06425 21.91 8.40126C21.7033 7.83226 21.3734 7.31595 20.944 6.88927C20.5197 6.45684 20.0027 6.12652 19.432 5.92327C18.7563 5.68346 18.0484 5.5466 17.332 5.51727C16.443 5.44727 16.163 5.44727 13.832 5.44727C11.501 5.44727 11.291 5.44727 10.332 5.51727C9.6276 5.55157 8.93196 5.68834 8.267 5.92327C7.76606 6.2197 7.29692 6.56686 6.867 6.95926C6.45464 7.3876 6.14158 7.90141 5.95 8.46427C5.71753 9.12055 5.57851 9.80626 5.537 10.5013C5.474 11.3973 5.474 11.6703 5.474 14.0013C5.474 16.3323 5.474 16.5423 5.537 17.5013C5.57256 18.2175 5.71167 18.9249 5.95 19.6013C6.15669 20.1703 6.48655 20.6866 6.916 21.1133C7.33222 21.5422 7.83933 21.8723 8.4 22.0793C9.07448 22.3245 9.78287 22.4638 10.5 22.4923C11.396 22.5623 11.669 22.5623 14 22.5623C16.331 22.5623 16.548 22.5623 17.5 22.4923C18.2171 22.4638 18.9255 22.3245 19.6 22.0793C20.17 21.878 20.687 21.5502 21.112 21.1203C21.5322 20.6888 21.8524 20.1702 22.05 19.6013C22.2883 18.9249 22.4274 18.2175 22.463 17.5013C22.526 16.6053 22.526 16.3323 22.526 14.0013C22.526 11.6703 22.323 11.4253 22.323 10.4593ZM20.811 17.4033C20.7972 17.9416 20.7028 18.4749 20.531 18.9853C20.3984 19.3483 20.1882 19.6779 19.9149 19.9512C19.6417 20.2244 19.312 20.4347 18.949 20.5673C18.4505 20.782 17.9089 20.8779 17.367 20.8473C16.478 20.9103 16.198 20.9103 13.93 20.9103C11.662 20.9103 11.389 20.9103 10.493 20.8473C9.95464 20.8335 9.42138 20.7391 8.911 20.5673C8.54302 20.445 8.21111 20.2333 7.945 19.9513C7.66363 19.6846 7.45209 19.3529 7.329 18.9853C7.11666 18.4862 7.0232 17.9446 7.056 17.4033C7 16.5143 7 16.2343 7 14.0013C7 11.7683 7 11.4603 7.07 10.5643C7.08235 10.0263 7.17435 9.49322 7.343 8.98226C7.46787 8.61552 7.67915 8.28419 7.959 8.01626C8.26443 7.76695 8.61669 7.5813 8.995 7.47027C9.49349 7.25553 10.0351 7.15967 10.577 7.19027C11.466 7.12727 11.746 7.12727 14.014 7.12727C16.282 7.12727 16.562 7.12727 17.451 7.19027C17.9894 7.20404 18.5226 7.29842 19.033 7.47027C19.4019 7.59067 19.7342 7.8026 19.999 8.08627C20.2827 8.35104 20.4946 8.68339 20.615 9.05227C20.8297 9.55075 20.9256 10.0924 20.895 10.6343C20.958 11.5233 20.958 11.8033 20.958 14.0713C20.811 16.2343 20.811 16.5143 20.811 17.4033Z" fill="white"/>
<path d="M13.93 9.63287C13.0745 9.63289 12.2382 9.88616 11.5264 10.3607C10.8146 10.8353 10.2593 11.51 9.93032 12.2997C9.60136 13.0894 9.51353 13.9589 9.6779 14.7984C9.84228 15.638 10.2515 16.4101 10.854 17.0174C11.4565 17.6248 12.2253 18.0402 13.0635 18.2113C13.9017 18.3824 14.7718 18.3016 15.5641 17.979C16.3564 17.6564 17.0355 17.1065 17.5158 16.3985C17.9961 15.6906 18.2561 14.8563 18.263 14.0009C18.2705 13.4281 18.1637 12.8597 17.9491 12.3286C17.7344 11.7976 17.4161 11.3147 17.0127 10.9081C16.6093 10.5014 16.1289 10.1792 15.5997 9.96028C15.0704 9.74133 14.5028 9.63003 13.93 9.63287ZM13.93 16.8009C13.3762 16.8009 12.8349 16.6366 12.3744 16.329C11.914 16.0213 11.5551 15.584 11.3432 15.0724C11.1312 14.5607 11.0758 13.9978 11.1838 13.4546C11.2919 12.9115 11.5585 12.4126 11.9501 12.021C12.3417 11.6294 12.8406 11.3627 13.3838 11.2547C13.9269 11.1466 14.4899 11.2021 15.0015 11.414C15.5132 11.6259 15.9505 11.9848 16.2581 12.4453C16.5658 12.9057 16.73 13.4471 16.73 14.0009C16.73 14.7435 16.435 15.4557 15.9099 15.9808C15.3848 16.5059 14.6726 16.8009 13.93 16.8009Z" fill="white"/>
<path d="M14 1.40146C16.492 1.40146 18.9281 2.14044 21.0002 3.52495C23.0722 4.90945 24.6872 6.8773 25.6409 9.17965C26.5946 11.482 26.8441 14.0154 26.3579 16.4596C25.8717 18.9038 24.6717 21.1489 22.9095 22.911C21.1474 24.6732 18.9023 25.8732 16.4581 26.3594C14.014 26.8455 11.4805 26.596 9.17819 25.6423C6.87585 24.6887 4.90799 23.0737 3.52349 21.0017C2.13898 18.9296 1.40001 16.4935 1.40001 14.0015C1.40001 10.6597 2.7275 7.45488 5.09046 5.09192C7.45342 2.72896 10.6583 1.40146 14 1.40146V1.40146ZM14 0.00146484C11.2311 0.00146484 8.52431 0.822551 6.22202 2.36089C3.91973 3.89923 2.12532 6.08573 1.06569 8.6439C0.00606598 11.2021 -0.271181 14.017 0.269012 16.7327C0.809205 19.4485 2.14258 21.943 4.10051 23.901C6.05845 25.8589 8.55301 27.1923 11.2687 27.7325C13.9845 28.2727 16.7994 27.9954 19.3576 26.9358C21.9157 25.8762 24.1022 24.0817 25.6406 21.7794C27.1789 19.4772 28 16.7704 28 14.0015C28 10.2884 26.525 6.72748 23.8995 4.10197C21.274 1.47646 17.713 0.00146484 14 0.00146484V0.00146484Z" fill="white"/>
</svg>
