<svg width="28" height="28" viewBox="0 0 28 28" fill="none" xmlns="http://www.w3.org/2000/svg">
<path d="M10.381 20.7899H7.00005V10.5699H10.388L10.381 20.7899ZM8.65904 9.21188C8.42463 9.20774 8.19333 9.15748 7.97835 9.06395C7.76337 8.97042 7.56891 8.83547 7.40609 8.66679C7.24326 8.49811 7.11525 8.29902 7.02937 8.08087C6.94349 7.86272 6.90141 7.62979 6.90555 7.39538C6.90969 7.16097 6.95995 6.92967 7.05348 6.71469C7.14701 6.4997 7.28196 6.30525 7.45064 6.14242C7.61931 5.97959 7.81841 5.85158 8.03656 5.7657C8.2547 5.67982 8.48763 5.63774 8.72204 5.64188C8.95645 5.64602 9.18774 5.69628 9.40272 5.78981C9.61771 5.88334 9.81216 6.01829 9.97499 6.18697C10.1378 6.35565 10.2658 6.55474 10.3517 6.77289C10.4376 6.99104 10.4797 7.22397 10.4755 7.45838C10.4714 7.69279 10.4211 7.92409 10.3276 8.13907C10.2341 8.35406 10.0991 8.54851 9.93044 8.71134C9.76176 8.87417 9.56267 9.00218 9.34452 9.08806C9.12637 9.17394 8.89345 9.21602 8.65904 9.21188V9.21188ZM22.6589 20.7899H19.25V15.3089C19.25 13.9579 18.753 12.9709 17.528 12.9709C17.1479 12.9726 16.7776 13.092 16.468 13.3125C16.1584 13.5331 15.9247 13.8442 15.799 14.2029C15.682 14.475 15.6201 14.7677 15.617 15.0639V20.7899H12.229C12.229 20.7899 12.292 11.5569 12.229 10.5699H15.617V12.0469C15.9267 11.5126 16.3786 11.0746 16.9223 10.7817C17.4661 10.4888 18.0804 10.3525 18.697 10.3879C20.9089 10.3249 22.6379 11.7879 22.6379 14.9449L22.6589 20.7899Z" fill="white"/>
<path d="M14 1.4C16.492 1.4 18.9281 2.13898 21.0002 3.52348C23.0722 4.90799 24.6872 6.87584 25.6409 9.17819C26.5946 11.4805 26.8441 14.014 26.3579 16.4581C25.8717 18.9023 24.6717 21.1474 22.9095 22.9095C21.1474 24.6717 18.9023 25.8717 16.4581 26.3579C14.014 26.8441 11.4805 26.5945 9.17819 25.6409C6.87585 24.6872 4.90799 23.0722 3.52349 21.0002C2.13898 18.9281 1.40001 16.492 1.40001 14C1.40001 10.6583 2.7275 7.45341 5.09046 5.09045C7.45342 2.7275 10.6583 1.4 14 1.4V1.4ZM14 0C11.2311 0 8.52431 0.821086 6.22202 2.35943C3.91973 3.89777 2.12532 6.08427 1.06569 8.64243C0.00606598 11.2006 -0.271181 14.0155 0.269012 16.7313C0.809205 19.447 2.14258 21.9416 4.10051 23.8995C6.05845 25.8574 8.55301 27.1908 11.2687 27.731C13.9845 28.2712 16.7994 27.9939 19.3576 26.9343C21.9157 25.8747 24.1022 24.0803 25.6406 21.778C27.1789 19.4757 28 16.7689 28 14C28 10.287 26.525 6.72601 23.8995 4.1005C21.274 1.475 17.713 0 14 0V0Z" fill="white"/>
</svg>
