<svg width="28" height="28" viewBox="0 0 28 28" fill="none" xmlns="http://www.w3.org/2000/svg">
<path d="M21.483 10.8779C21.483 11.0319 21.483 11.1719 21.483 11.3189C21.483 13.0556 21.0162 14.7603 20.1313 16.2547C19.2465 17.7491 17.9762 18.9782 16.4534 19.8133C14.9307 20.6484 13.2114 21.0588 11.4757 21.0015C9.73992 20.9443 8.05146 20.4215 6.58704 19.4879C6.85635 19.5218 7.12759 19.5382 7.39904 19.5369C8.93512 19.5397 10.4272 19.0242 11.634 18.0739C10.9241 18.0587 10.2366 17.8227 9.66698 17.3987C9.09741 16.9746 8.67414 16.3836 8.45604 15.7079C8.66836 15.7492 8.88379 15.7726 9.10004 15.7779C9.40515 15.7811 9.70918 15.741 10.003 15.6589C9.2315 15.5064 8.53682 15.0909 8.03763 14.4832C7.53844 13.8755 7.26572 13.1133 7.26604 12.3269V12.2709C7.73866 12.5384 8.27007 12.6851 8.81304 12.6979C8.34464 12.3872 7.96109 11.9646 7.69709 11.4684C7.43308 10.9721 7.29696 10.4179 7.30104 9.85586C7.30288 9.2546 7.45958 8.66396 7.75604 8.14086C8.60975 9.18962 9.67371 10.0479 10.8794 10.6604C12.085 11.2728 13.4056 11.6259 14.756 11.6969C14.7091 11.4383 14.6903 11.1755 14.7 10.9129C14.6991 10.4664 14.7862 10.0242 14.9565 9.6115C15.1267 9.19879 15.3766 8.8237 15.6919 8.50771C16.0073 8.19171 16.3818 7.94101 16.7942 7.76996C17.2066 7.59891 17.6486 7.51086 18.095 7.51086C18.5609 7.50694 19.0225 7.60015 19.4504 7.78455C19.8782 7.96895 20.263 8.24049 20.58 8.58186C21.344 8.43226 22.076 8.15036 22.743 7.74886C22.4834 8.53643 21.9525 9.20622 21.245 9.63886C21.9197 9.55957 22.5782 9.37781 23.198 9.09986C22.739 9.79172 22.1579 10.3942 21.483 10.8779Z" fill="white"/>
<path d="M14 1.4C16.492 1.4 18.9281 2.13898 21.0002 3.52348C23.0722 4.90799 24.6872 6.87584 25.6409 9.17819C26.5946 11.4805 26.8441 14.014 26.3579 16.4581C25.8717 18.9023 24.6717 21.1474 22.9095 22.9095C21.1474 24.6717 18.9023 25.8717 16.4581 26.3579C14.014 26.8441 11.4805 26.5945 9.17819 25.6409C6.87585 24.6872 4.90799 23.0722 3.52349 21.0002C2.13898 18.9281 1.40001 16.492 1.40001 14C1.40001 10.6583 2.7275 7.45341 5.09046 5.09045C7.45342 2.7275 10.6583 1.4 14 1.4V1.4ZM14 0C11.2311 0 8.52431 0.821086 6.22202 2.35943C3.91973 3.89777 2.12532 6.08427 1.06569 8.64243C0.00606598 11.2006 -0.271181 14.0155 0.269012 16.7313C0.809205 19.447 2.14258 21.9416 4.10051 23.8995C6.05845 25.8574 8.55301 27.1908 11.2687 27.731C13.9845 28.2712 16.7994 27.9939 19.3576 26.9343C21.9157 25.8747 24.1022 24.0803 25.6406 21.778C27.1789 19.4757 28 16.7689 28 14C28 10.287 26.525 6.72601 23.8995 4.1005C21.274 1.475 17.713 0 14 0V0Z" fill="white"/>
</svg>
